<svg width="1600" height="1200" viewBox="0 0 1600 1200" fill="none" xmlns="http://www.w3.org/2000/svg">
<g clip-path="url(#clip0)">
<rect width="1600" height="1200" fill="#FFE0E6"/>
<g filter="url(#filter0_dii)">
<rect x="250" y="84" width="470" height="926" rx="50" fill="#FFF6FA"/>
</g>
<g filter="url(#filter1_ii)">
<rect x="257" y="97" width="456" height="900" rx="50" fill="#FBF3F8"/>
</g>
<rect x="257.25" y="97.25" width="455.5" height="899.5" rx="49.75" stroke="url(#paint0_linear)" stroke-opacity="0.5" stroke-width="0.5"/>
<g filter="url(#filter2_dd)">
<rect x="588" y="426.341" width="103" height="403.399" rx="24" fill="#FBF3F8"/>
</g>
<g filter="url(#filter3_dd)">
<rect x="588" y="840.432" width="103" height="84.568" rx="24" fill="#FF5976"/>
</g>
<path d="M422.833 490.496H439.167" stroke="#2F1A35" stroke-width="3" stroke-linecap="round" stroke-linejoin="round"/>
<path d="M544.636 879.667L537 887.09M537 879.667L544.636 887.09M548.455 873.482H531.909L523 883.379L531.909 893.276H548.455C549.13 893.276 549.777 893.015 550.254 892.551C550.732 892.087 551 891.458 551 890.802V875.956C551 875.3 550.732 874.67 550.254 874.206C549.777 873.742 549.13 873.482 548.455 873.482Z" stroke="#2F1A35" stroke-width="2" stroke-linecap="round" stroke-linejoin="round"/>
<path d="M541.65 578.892C541.65 588.947 537.76 593.974 529.979 593.974C528.619 593.974 527.541 593.857 526.744 593.623V591.109C527.682 591.414 528.748 591.566 529.943 591.566C532.756 591.566 534.877 590.699 536.307 588.964C537.748 587.218 538.533 584.546 538.662 580.949H538.451C537.807 581.921 536.951 582.666 535.885 583.181C534.818 583.685 533.617 583.937 532.281 583.937C530.008 583.937 528.203 583.257 526.867 581.898C525.531 580.539 524.863 578.64 524.863 576.203C524.863 573.531 525.607 571.421 527.096 569.875C528.596 568.328 530.564 567.554 533.002 567.554C534.748 567.554 536.271 568.005 537.572 568.908C538.885 569.798 539.893 571.105 540.596 572.828C541.299 574.539 541.65 576.56 541.65 578.892ZM533.002 570.05C531.326 570.05 530.031 570.589 529.117 571.668C528.203 572.746 527.746 574.246 527.746 576.168C527.746 577.855 528.168 579.185 529.012 580.158C529.855 581.119 531.139 581.599 532.861 581.599C533.928 581.599 534.906 581.382 535.797 580.949C536.699 580.515 537.408 579.923 537.924 579.173C538.439 578.423 538.697 577.638 538.697 576.818C538.697 575.587 538.457 574.451 537.977 573.408C537.496 572.365 536.822 571.544 535.955 570.947C535.1 570.349 534.115 570.05 533.002 570.05Z" fill="#2F1A35"/>
<g filter="url(#filter4_ii)">
<rect x="270" y="394.263" width="234.263" height="421" rx="24" transform="rotate(-90 270 394.263)" fill="#FBF3F8"/>
</g>
<path d="M323.568 791.92H320.721V773.604C320.721 772.08 320.768 770.639 320.861 769.279C320.615 769.525 320.34 769.783 320.035 770.053C319.73 770.322 318.336 771.465 315.852 773.48L314.305 771.477L321.107 766.221H323.568V791.92Z" fill="#2F1A35"/>
<path d="M540.684 773.24C540.684 774.88 540.221 776.222 539.295 777.265C538.381 778.308 537.08 779.005 535.393 779.357V779.497C537.455 779.755 538.984 780.411 539.98 781.466C540.977 782.521 541.475 783.904 541.475 785.615C541.475 788.064 540.625 789.951 538.926 791.275C537.227 792.587 534.812 793.244 531.684 793.244C530.324 793.244 529.076 793.138 527.939 792.927C526.814 792.728 525.719 792.37 524.652 791.855V789.078C525.766 789.628 526.949 790.05 528.203 790.343C529.469 790.624 530.664 790.765 531.789 790.765C536.23 790.765 538.451 789.025 538.451 785.544C538.451 782.427 536.002 780.869 531.104 780.869H528.572V778.355H531.139C533.143 778.355 534.73 777.915 535.902 777.036C537.074 776.146 537.66 774.915 537.66 773.345C537.66 772.091 537.227 771.107 536.359 770.392C535.504 769.677 534.338 769.32 532.861 769.32C531.736 769.32 530.676 769.472 529.68 769.777C528.684 770.081 527.547 770.644 526.27 771.464L524.793 769.495C525.848 768.663 527.061 768.013 528.432 767.544C529.814 767.064 531.268 766.824 532.791 766.824C535.287 766.824 537.227 767.398 538.609 768.546C539.992 769.683 540.684 771.247 540.684 773.24Z" fill="#2F1A35"/>
<path d="M328.863 687.837H325.049V693.743H322.254V687.837H309.756V685.288L321.955 667.904H325.049V685.183H328.863V687.837ZM322.254 685.183V676.64C322.254 674.964 322.312 673.071 322.43 670.962H322.289C321.727 672.087 321.199 673.019 320.707 673.757L312.674 685.183H322.254Z" fill="#2F1A35"/>
<path d="M425.791 678.046C428.498 678.046 430.625 678.72 432.172 680.068C433.73 681.404 434.51 683.237 434.51 685.57C434.51 688.23 433.66 690.316 431.961 691.827C430.273 693.339 427.941 694.095 424.965 694.095C422.07 694.095 419.861 693.632 418.338 692.706V689.894C419.158 690.421 420.178 690.837 421.396 691.142C422.615 691.435 423.816 691.581 425 691.581C427.062 691.581 428.662 691.095 429.799 690.122C430.947 689.15 431.521 687.743 431.521 685.904C431.521 682.318 429.324 680.525 424.93 680.525C423.816 680.525 422.328 680.695 420.465 681.034L418.953 680.068L419.92 668.044H432.699V670.734H422.416L421.766 678.45C423.113 678.181 424.455 678.046 425.791 678.046Z" fill="#2F1A35"/>
<path d="M525.057 682.757C525.057 677.706 526.035 673.933 527.992 671.437C529.961 668.929 532.867 667.675 536.711 667.675C538.035 667.675 539.078 667.786 539.84 668.009V670.523C538.938 670.23 537.906 670.083 536.746 670.083C533.992 670.083 531.889 670.945 530.436 672.667C528.982 674.378 528.186 677.073 528.045 680.753H528.256C529.545 678.737 531.584 677.73 534.373 677.73C536.682 677.73 538.498 678.427 539.822 679.821C541.158 681.216 541.826 683.109 541.826 685.499C541.826 688.171 541.094 690.275 539.629 691.81C538.176 693.333 536.207 694.095 533.723 694.095C531.062 694.095 528.953 693.099 527.395 691.107C525.836 689.103 525.057 686.32 525.057 682.757ZM533.688 691.616C535.352 691.616 536.641 691.095 537.555 690.052C538.48 688.997 538.943 687.48 538.943 685.499C538.943 683.8 538.516 682.464 537.66 681.491C536.805 680.519 535.527 680.032 533.828 680.032C532.773 680.032 531.807 680.249 530.928 680.683C530.049 681.116 529.346 681.714 528.818 682.476C528.303 683.237 528.045 684.029 528.045 684.849C528.045 686.056 528.279 687.181 528.748 688.224C529.217 689.267 529.879 690.093 530.734 690.702C531.602 691.312 532.586 691.616 533.688 691.616Z" fill="#2F1A35"/>
<path d="M314.01 593.623L324.662 570.613H310.652V567.923H327.756V570.261L317.244 593.623H314.01Z" fill="#2F1A35"/>
<path d="M436.791 883.044C436.791 887.485 436.088 890.802 434.682 892.993C433.287 895.185 431.148 896.28 428.266 896.28C425.5 896.28 423.396 895.161 421.955 892.923C420.514 890.673 419.793 887.38 419.793 883.044C419.793 878.568 420.49 875.245 421.885 873.077C423.279 870.909 425.406 869.825 428.266 869.825C431.055 869.825 433.17 870.956 434.611 873.218C436.064 875.48 436.791 878.755 436.791 883.044ZM422.746 883.044C422.746 886.782 423.186 889.507 424.064 891.218C424.943 892.917 426.344 893.767 428.266 893.767C430.211 893.767 431.617 892.905 432.484 891.183C433.363 889.448 433.803 886.735 433.803 883.044C433.803 879.353 433.363 876.651 432.484 874.941C431.617 873.218 430.211 872.357 428.266 872.357C426.344 872.357 424.943 873.206 424.064 874.905C423.186 876.593 422.746 879.306 422.746 883.044Z" fill="#2F1A35"/>
<path d="M320.672 885.317C320.672 884.532 320.848 883.94 321.199 883.542C321.562 883.132 322.078 882.927 322.746 882.927C323.426 882.927 323.953 883.132 324.328 883.542C324.715 883.94 324.908 884.532 324.908 885.317C324.908 886.079 324.715 886.665 324.328 887.075C323.941 887.485 323.414 887.69 322.746 887.69C322.148 887.69 321.65 887.509 321.252 887.145C320.865 886.77 320.672 886.161 320.672 885.317Z" fill="#2F1A35"/>
<path d="M434.65 797.752H417.758V795.239L424.525 788.436C426.588 786.35 427.947 784.862 428.604 783.971C429.26 783.08 429.752 782.213 430.08 781.369C430.408 780.526 430.572 779.617 430.572 778.645C430.572 777.274 430.156 776.19 429.324 775.393C428.492 774.584 427.338 774.18 425.861 774.18C424.795 774.18 423.781 774.356 422.82 774.707C421.871 775.059 420.811 775.698 419.639 776.623L418.092 774.637C420.459 772.668 423.037 771.684 425.826 771.684C428.24 771.684 430.133 772.305 431.504 773.547C432.875 774.778 433.561 776.436 433.561 778.522C433.561 780.151 433.104 781.762 432.189 783.356C431.275 784.949 429.564 786.965 427.057 789.403L421.432 794.905V795.045H434.65V797.752Z" fill="black"/>
<path d="M426.266 567.554C428.609 567.554 430.467 568.099 431.838 569.189C433.209 570.279 433.895 571.785 433.895 573.707C433.895 574.972 433.502 576.127 432.717 577.169C431.932 578.212 430.678 579.162 428.955 580.017C431.041 581.013 432.523 582.062 433.402 583.164C434.281 584.253 434.721 585.519 434.721 586.961C434.721 589.093 433.977 590.798 432.488 592.076C431 593.341 428.961 593.974 426.371 593.974C423.629 593.974 421.52 593.377 420.043 592.181C418.566 590.974 417.828 589.269 417.828 587.066C417.828 584.125 419.621 581.834 423.207 580.193C421.59 579.279 420.43 578.294 419.727 577.24C419.023 576.173 418.672 574.984 418.672 573.671C418.672 571.808 419.357 570.326 420.729 569.224C422.111 568.111 423.957 567.554 426.266 567.554ZM420.711 587.136C420.711 588.543 421.197 589.638 422.17 590.423C423.154 591.209 424.531 591.601 426.301 591.601C428.047 591.601 429.406 591.191 430.379 590.371C431.352 589.55 431.838 588.425 431.838 586.996C431.838 585.859 431.381 584.851 430.467 583.972C429.553 583.082 427.959 582.22 425.686 581.388C423.939 582.138 422.674 582.97 421.889 583.884C421.104 584.787 420.711 585.871 420.711 587.136ZM426.23 569.927C424.766 569.927 423.617 570.279 422.785 570.982C421.953 571.685 421.537 572.623 421.537 573.794C421.537 574.873 421.883 575.798 422.574 576.572C423.266 577.345 424.543 578.119 426.406 578.892C428.082 578.189 429.266 577.433 429.957 576.625C430.66 575.816 431.012 574.873 431.012 573.794C431.012 572.611 430.584 571.673 429.729 570.982C428.885 570.279 427.719 569.927 426.23 569.927Z" fill="#2F1A35"/>
<path d="M631 879.314H649" stroke="#FBF3F8" stroke-width="3" stroke-linecap="round" stroke-linejoin="round"/>
<path d="M631 887.09H649" stroke="#FBF3F8" stroke-width="3" stroke-linecap="round" stroke-linejoin="round"/>
<path d="M316.594 492.474L313.572 484.754H303.844L300.855 492.474H298L307.596 468.103H309.97L319.516 492.474H316.594ZM312.692 482.214L309.87 474.694C309.505 473.742 309.129 472.574 308.741 471.191C308.498 472.253 308.149 473.421 307.695 474.694L304.84 482.214H312.692ZM334.945 470.377C332.278 470.377 330.169 471.268 328.62 473.05C327.082 474.821 326.312 477.25 326.312 480.338C326.312 483.515 327.054 485.972 328.537 487.709C330.031 489.436 332.156 490.299 334.912 490.299C336.605 490.299 338.537 489.995 340.706 489.386V491.86C339.024 492.491 336.948 492.806 334.48 492.806C330.905 492.806 328.144 491.721 326.196 489.552C324.259 487.383 323.291 484.3 323.291 480.305C323.291 477.804 323.756 475.612 324.685 473.731C325.626 471.849 326.976 470.399 328.736 469.381C330.507 468.363 332.588 467.854 334.978 467.854C337.524 467.854 339.749 468.319 341.652 469.248L340.457 471.672C338.62 470.809 336.782 470.377 334.945 470.377Z" fill="#2F1A35"/>
<path d="M431 467.977V483.853" stroke="#2F1A35" stroke-width="3" stroke-linecap="round" stroke-linejoin="round"/>
<path d="M422.833 475.915H439.167" stroke="#2F1A35" stroke-width="3" stroke-linecap="round" stroke-linejoin="round"/>
<path d="M634.833 680.044H651.167" stroke="#FF5976" stroke-width="3" stroke-linecap="round" stroke-linejoin="round"/>
<path d="M644 771.255V787.132" stroke="#FF5976" stroke-width="3" stroke-linecap="round" stroke-linejoin="round"/>
<path d="M635.833 779.193H652.167" stroke="#FF5976" stroke-width="3" stroke-linecap="round" stroke-linejoin="round"/>
<path d="M650 573.119L636 586.728" stroke="#FF5976" stroke-width="3" stroke-linecap="round" stroke-linejoin="round"/>
<path d="M636 573.119L650 586.728" stroke="#FF5976" stroke-width="3" stroke-linecap="round" stroke-linejoin="round"/>
<path d="M631 482.719H659" stroke="#FF5976" stroke-width="3" stroke-linecap="round" stroke-linejoin="round"/>
<ellipse cx="645" cy="472.822" rx="3.5" ry="3.71145" fill="#FF5976"/>
<ellipse cx="645" cy="492.616" rx="3.5" ry="3.71145" fill="#FF5976"/>
<path d="M526.2 481.79C524.4 481.79 522.948 481.154 521.844 479.882C520.74 478.61 520.188 476.942 520.188 474.878C520.188 472.814 520.74 471.146 521.844 469.874C522.948 468.602 524.4 467.966 526.2 467.966C528 467.966 529.452 468.602 530.556 469.874C531.684 471.122 532.248 472.79 532.248 474.878C532.248 476.966 531.684 478.646 530.556 479.918C529.452 481.166 528 481.79 526.2 481.79ZM541.32 468.218H544.848L527.64 493.418H524.112L541.32 468.218ZM526.2 479.27C527.184 479.27 527.94 478.886 528.468 478.118C529.02 477.35 529.296 476.27 529.296 474.878C529.296 473.486 529.02 472.406 528.468 471.638C527.94 470.87 527.184 470.486 526.2 470.486C525.264 470.486 524.508 470.882 523.932 471.674C523.38 472.442 523.104 473.51 523.104 474.878C523.104 476.246 523.38 477.326 523.932 478.118C524.508 478.886 525.264 479.27 526.2 479.27ZM542.724 493.67C540.924 493.67 539.472 493.034 538.368 491.762C537.264 490.49 536.712 488.822 536.712 486.758C536.712 484.694 537.264 483.026 538.368 481.754C539.472 480.482 540.924 479.846 542.724 479.846C544.524 479.846 545.976 480.482 547.08 481.754C548.208 483.026 548.772 484.694 548.772 486.758C548.772 488.822 548.208 490.49 547.08 491.762C545.976 493.034 544.524 493.67 542.724 493.67ZM542.724 491.15C543.684 491.15 544.44 490.766 544.992 489.998C545.544 489.206 545.82 488.126 545.82 486.758C545.82 485.39 545.544 484.322 544.992 483.554C544.44 482.762 543.684 482.366 542.724 482.366C541.764 482.366 541.008 482.75 540.456 483.518C539.904 484.286 539.628 485.366 539.628 486.758C539.628 488.15 539.904 489.23 540.456 489.998C541.008 490.766 541.764 491.15 542.724 491.15Z" fill="#2F1A35"/>
<g filter="url(#filter5_dii)">
<rect x="800" y="185" width="470" height="926" rx="50" fill="#FFF6FA"/>
</g>
<g filter="url(#filter6_ii)">
<rect x="807" y="198" width="456" height="900" rx="50" fill="#FBF3F8"/>
</g>
<rect x="807.25" y="198.25" width="455.5" height="899.5" rx="49.75" stroke="url(#paint1_linear)" stroke-opacity="0.5" stroke-width="0.5"/>
<g filter="url(#filter7_dd)">
<rect x="1138" y="513" width="103" height="415" rx="24" fill="#FBF3F8"/>
</g>
<g filter="url(#filter8_ii)">
<rect x="932" y="733" width="90" height="82" rx="24" fill="#FBF3F8"/>
</g>
<g filter="url(#filter9_dd)">
<rect x="1138" y="939" width="103" height="87" rx="24" fill="#FF5976"/>
</g>
<path d="M972.833 578.609H989.167" stroke="#2F1A35" stroke-width="3" stroke-linecap="round" stroke-linejoin="round"/>
<path d="M1094.64 979.364L1087 987M1087 979.364L1094.64 987M1098.45 973H1081.91L1073 983.182L1081.91 993.364H1098.45C1099.13 993.364 1099.78 993.095 1100.25 992.618C1100.73 992.141 1101 991.493 1101 990.818V975.545C1101 974.87 1100.73 974.223 1100.25 973.746C1099.78 973.268 1099.13 973 1098.45 973Z" stroke="#2F1A35" stroke-width="2" stroke-linecap="round" stroke-linejoin="round"/>
<path d="M1091.65 669.27C1091.65 679.324 1087.76 684.352 1079.98 684.352C1078.62 684.352 1077.54 684.234 1076.74 684V681.486C1077.68 681.791 1078.75 681.943 1079.94 681.943C1082.76 681.943 1084.88 681.076 1086.31 679.342C1087.75 677.596 1088.53 674.924 1088.66 671.326H1088.45C1087.81 672.299 1086.95 673.043 1085.88 673.559C1084.82 674.062 1083.62 674.314 1082.28 674.314C1080.01 674.314 1078.2 673.635 1076.87 672.275C1075.53 670.916 1074.86 669.018 1074.86 666.58C1074.86 663.908 1075.61 661.799 1077.1 660.252C1078.6 658.705 1080.56 657.932 1083 657.932C1084.75 657.932 1086.27 658.383 1087.57 659.285C1088.88 660.176 1089.89 661.482 1090.6 663.205C1091.3 664.916 1091.65 666.938 1091.65 669.27ZM1083 660.428C1081.33 660.428 1080.03 660.967 1079.12 662.045C1078.2 663.123 1077.75 664.623 1077.75 666.545C1077.75 668.232 1078.17 669.562 1079.01 670.535C1079.86 671.496 1081.14 671.977 1082.86 671.977C1083.93 671.977 1084.91 671.76 1085.8 671.326C1086.7 670.893 1087.41 670.301 1087.92 669.551C1088.44 668.801 1088.7 668.016 1088.7 667.195C1088.7 665.965 1088.46 664.828 1087.98 663.785C1087.5 662.742 1086.82 661.922 1085.96 661.324C1085.1 660.727 1084.12 660.428 1083 660.428Z" fill="#2F1A35"/>
<g filter="url(#filter10_ii)">
<rect x="820" y="480" width="233" height="421" rx="24" transform="rotate(-90 820 480)" fill="#FBF3F8"/>
</g>
<path d="M873.568 888H870.721V869.684C870.721 868.16 870.768 866.719 870.861 865.359C870.615 865.605 870.34 865.863 870.035 866.133C869.73 866.402 868.336 867.545 865.852 869.561L864.305 867.557L871.107 862.301H873.568V888Z" fill="#2F1A35"/>
<path d="M1090.68 869.348C1090.68 870.988 1090.22 872.33 1089.29 873.373C1088.38 874.416 1087.08 875.113 1085.39 875.465V875.605C1087.46 875.863 1088.98 876.52 1089.98 877.574C1090.98 878.629 1091.47 880.012 1091.47 881.723C1091.47 884.172 1090.62 886.059 1088.93 887.383C1087.23 888.695 1084.81 889.352 1081.68 889.352C1080.32 889.352 1079.08 889.246 1077.94 889.035C1076.81 888.836 1075.72 888.479 1074.65 887.963V885.186C1075.77 885.736 1076.95 886.158 1078.2 886.451C1079.47 886.732 1080.66 886.873 1081.79 886.873C1086.23 886.873 1088.45 885.133 1088.45 881.652C1088.45 878.535 1086 876.977 1081.1 876.977H1078.57V874.463H1081.14C1083.14 874.463 1084.73 874.023 1085.9 873.145C1087.07 872.254 1087.66 871.023 1087.66 869.453C1087.66 868.199 1087.23 867.215 1086.36 866.5C1085.5 865.785 1084.34 865.428 1082.86 865.428C1081.74 865.428 1080.68 865.58 1079.68 865.885C1078.68 866.189 1077.55 866.752 1076.27 867.572L1074.79 865.604C1075.85 864.771 1077.06 864.121 1078.43 863.652C1079.81 863.172 1081.27 862.932 1082.79 862.932C1085.29 862.932 1087.23 863.506 1088.61 864.654C1089.99 865.791 1090.68 867.355 1090.68 869.348Z" fill="#2F1A35"/>
<path d="M878.863 781.094H875.049V787H872.254V781.094H859.756V778.545L871.955 761.16H875.049V778.439H878.863V781.094ZM872.254 778.439V769.896C872.254 768.221 872.312 766.328 872.43 764.219H872.289C871.727 765.344 871.199 766.275 870.707 767.014L862.674 778.439H872.254Z" fill="#2F1A35"/>
<path d="M975.791 771.303C978.498 771.303 980.625 771.977 982.172 773.324C983.73 774.66 984.51 776.494 984.51 778.826C984.51 781.486 983.66 783.572 981.961 785.084C980.273 786.596 977.941 787.352 974.965 787.352C972.07 787.352 969.861 786.889 968.338 785.963V783.15C969.158 783.678 970.178 784.094 971.396 784.398C972.615 784.691 973.816 784.838 975 784.838C977.062 784.838 978.662 784.352 979.799 783.379C980.947 782.406 981.521 781 981.521 779.16C981.521 775.574 979.324 773.781 974.93 773.781C973.816 773.781 972.328 773.951 970.465 774.291L968.953 773.324L969.92 761.301H982.699V763.99H972.416L971.766 771.707C973.113 771.438 974.455 771.303 975.791 771.303Z" fill="#2F1A35"/>
<path d="M1075.06 776.014C1075.06 770.963 1076.04 767.189 1077.99 764.693C1079.96 762.186 1082.87 760.932 1086.71 760.932C1088.04 760.932 1089.08 761.043 1089.84 761.266V763.779C1088.94 763.486 1087.91 763.34 1086.75 763.34C1083.99 763.34 1081.89 764.201 1080.44 765.924C1078.98 767.635 1078.19 770.33 1078.04 774.01H1078.26C1079.54 771.994 1081.58 770.986 1084.37 770.986C1086.68 770.986 1088.5 771.684 1089.82 773.078C1091.16 774.473 1091.83 776.365 1091.83 778.756C1091.83 781.428 1091.09 783.531 1089.63 785.066C1088.18 786.59 1086.21 787.352 1083.72 787.352C1081.06 787.352 1078.95 786.355 1077.39 784.363C1075.84 782.359 1075.06 779.576 1075.06 776.014ZM1083.69 784.873C1085.35 784.873 1086.64 784.352 1087.55 783.309C1088.48 782.254 1088.94 780.736 1088.94 778.756C1088.94 777.057 1088.52 775.721 1087.66 774.748C1086.8 773.775 1085.53 773.289 1083.83 773.289C1082.77 773.289 1081.81 773.506 1080.93 773.939C1080.05 774.373 1079.35 774.971 1078.82 775.732C1078.3 776.494 1078.04 777.285 1078.04 778.105C1078.04 779.312 1078.28 780.438 1078.75 781.48C1079.22 782.523 1079.88 783.35 1080.73 783.959C1081.6 784.568 1082.59 784.873 1083.69 784.873Z" fill="#2F1A35"/>
<path d="M864.01 684L874.662 660.99H860.652V658.301H877.756V660.639L867.244 684H864.01Z" fill="#2F1A35"/>
<path d="M986.791 982.115C986.791 986.557 986.088 989.873 984.682 992.064C983.287 994.256 981.148 995.352 978.266 995.352C975.5 995.352 973.396 994.232 971.955 991.994C970.514 989.744 969.793 986.451 969.793 982.115C969.793 977.639 970.49 974.316 971.885 972.148C973.279 969.98 975.406 968.896 978.266 968.896C981.055 968.896 983.17 970.027 984.611 972.289C986.064 974.551 986.791 977.826 986.791 982.115ZM972.746 982.115C972.746 985.854 973.186 988.578 974.064 990.289C974.943 991.988 976.344 992.838 978.266 992.838C980.211 992.838 981.617 991.977 982.484 990.254C983.363 988.52 983.803 985.807 983.803 982.115C983.803 978.424 983.363 975.723 982.484 974.012C981.617 972.289 980.211 971.428 978.266 971.428C976.344 971.428 974.943 972.277 974.064 973.977C973.186 975.664 972.746 978.377 972.746 982.115Z" fill="#2F1A35"/>
<path d="M870.672 984.137C870.672 983.352 870.848 982.76 871.199 982.361C871.562 981.951 872.078 981.746 872.746 981.746C873.426 981.746 873.953 981.951 874.328 982.361C874.715 982.76 874.908 983.352 874.908 984.137C874.908 984.898 874.715 985.484 874.328 985.895C873.941 986.305 873.414 986.51 872.746 986.51C872.148 986.51 871.65 986.328 871.252 985.965C870.865 985.59 870.672 984.98 870.672 984.137Z" fill="#2F1A35"/>
<path d="M984.65 894H967.758V891.486L974.525 884.684C976.588 882.598 977.947 881.109 978.604 880.219C979.26 879.328 979.752 878.461 980.08 877.617C980.408 876.773 980.572 875.865 980.572 874.893C980.572 873.521 980.156 872.438 979.324 871.641C978.492 870.832 977.338 870.428 975.861 870.428C974.795 870.428 973.781 870.604 972.82 870.955C971.871 871.307 970.811 871.945 969.639 872.871L968.092 870.885C970.459 868.916 973.037 867.932 975.826 867.932C978.24 867.932 980.133 868.553 981.504 869.795C982.875 871.025 983.561 872.684 983.561 874.77C983.561 876.398 983.104 878.01 982.189 879.604C981.275 881.197 979.564 883.213 977.057 885.65L971.432 891.152V891.293H984.65V894Z" fill="black"/>
<path d="M976.266 657.932C978.609 657.932 980.467 658.477 981.838 659.566C983.209 660.656 983.895 662.162 983.895 664.084C983.895 665.35 983.502 666.504 982.717 667.547C981.932 668.59 980.678 669.539 978.955 670.395C981.041 671.391 982.523 672.439 983.402 673.541C984.281 674.631 984.721 675.896 984.721 677.338C984.721 679.471 983.977 681.176 982.488 682.453C981 683.719 978.961 684.352 976.371 684.352C973.629 684.352 971.52 683.754 970.043 682.559C968.566 681.352 967.828 679.646 967.828 677.443C967.828 674.502 969.621 672.211 973.207 670.57C971.59 669.656 970.43 668.672 969.727 667.617C969.023 666.551 968.672 665.361 968.672 664.049C968.672 662.186 969.357 660.703 970.729 659.602C972.111 658.488 973.957 657.932 976.266 657.932ZM970.711 677.514C970.711 678.92 971.197 680.016 972.17 680.801C973.154 681.586 974.531 681.979 976.301 681.979C978.047 681.979 979.406 681.568 980.379 680.748C981.352 679.928 981.838 678.803 981.838 677.373C981.838 676.236 981.381 675.229 980.467 674.35C979.553 673.459 977.959 672.598 975.686 671.766C973.939 672.516 972.674 673.348 971.889 674.262C971.104 675.164 970.711 676.248 970.711 677.514ZM976.23 660.305C974.766 660.305 973.617 660.656 972.785 661.359C971.953 662.062 971.537 663 971.537 664.172C971.537 665.25 971.883 666.176 972.574 666.949C973.266 667.723 974.543 668.496 976.406 669.27C978.082 668.566 979.266 667.811 979.957 667.002C980.66 666.193 981.012 665.25 981.012 664.172C981.012 662.988 980.584 662.051 979.729 661.359C978.885 660.656 977.719 660.305 976.23 660.305Z" fill="#2F1A35"/>
<path d="M1181 979H1199" stroke="#FBF3F8" stroke-width="3" stroke-linecap="round" stroke-linejoin="round"/>
<path d="M1181 987H1199" stroke="#FBF3F8" stroke-width="3" stroke-linecap="round" stroke-linejoin="round"/>
<path d="M866.594 580L863.572 572.28H853.844L850.855 580H848L857.596 555.629H859.97L869.516 580H866.594ZM862.692 569.74L859.87 562.22C859.505 561.268 859.129 560.1 858.741 558.717C858.498 559.779 858.149 560.947 857.695 562.22L854.84 569.74H862.692ZM884.945 557.903C882.278 557.903 880.169 558.794 878.62 560.576C877.082 562.347 876.312 564.776 876.312 567.864C876.312 571.041 877.054 573.498 878.537 575.235C880.031 576.962 882.156 577.825 884.912 577.825C886.605 577.825 888.537 577.521 890.706 576.912V579.386C889.024 580.017 886.948 580.332 884.48 580.332C880.905 580.332 878.144 579.247 876.196 577.078C874.259 574.909 873.291 571.826 873.291 567.831C873.291 565.33 873.756 563.138 874.685 561.257C875.626 559.375 876.976 557.925 878.736 556.907C880.507 555.889 882.588 555.38 884.978 555.38C887.524 555.38 889.749 555.845 891.652 556.774L890.457 559.198C888.62 558.335 886.782 557.903 884.945 557.903Z" fill="#2F1A35"/>
<path d="M981 555.67V571.547" stroke="#2F1A35" stroke-width="3" stroke-linecap="round" stroke-linejoin="round"/>
<path d="M972.833 563.609H989.167" stroke="#2F1A35" stroke-width="3" stroke-linecap="round" stroke-linejoin="round"/>
<path d="M1181.83 773.609H1198.17" stroke="#FF5976" stroke-width="3" stroke-linecap="round" stroke-linejoin="round"/>
<path d="M1190 867.67V883.547" stroke="#FF5976" stroke-width="3" stroke-linecap="round" stroke-linejoin="round"/>
<path d="M1181.83 875.609H1198.17" stroke="#FF5976" stroke-width="3" stroke-linecap="round" stroke-linejoin="round"/>
<path d="M1197 663.804L1183 677.413" stroke="#FF5976" stroke-width="3" stroke-linecap="round" stroke-linejoin="round"/>
<path d="M1183 663.804L1197 677.413" stroke="#FF5976" stroke-width="3" stroke-linecap="round" stroke-linejoin="round"/>
<path d="M1176 571H1204" stroke="#FF5976" stroke-width="3" stroke-linecap="round" stroke-linejoin="round"/>
<ellipse cx="1190" cy="560.818" rx="3.5" ry="3.81818" fill="#FF5976"/>
<ellipse cx="1190" cy="581.182" rx="3.5" ry="3.81818" fill="#FF5976"/>
<path d="M1076.2 569.372C1074.4 569.372 1072.95 568.736 1071.84 567.464C1070.74 566.192 1070.19 564.524 1070.19 562.46C1070.19 560.396 1070.74 558.728 1071.84 557.456C1072.95 556.184 1074.4 555.548 1076.2 555.548C1078 555.548 1079.45 556.184 1080.56 557.456C1081.68 558.704 1082.25 560.372 1082.25 562.46C1082.25 564.548 1081.68 566.228 1080.56 567.5C1079.45 568.748 1078 569.372 1076.2 569.372ZM1091.32 555.8H1094.85L1077.64 581H1074.11L1091.32 555.8ZM1076.2 566.852C1077.18 566.852 1077.94 566.468 1078.47 565.7C1079.02 564.932 1079.3 563.852 1079.3 562.46C1079.3 561.068 1079.02 559.988 1078.47 559.22C1077.94 558.452 1077.18 558.068 1076.2 558.068C1075.26 558.068 1074.51 558.464 1073.93 559.256C1073.38 560.024 1073.1 561.092 1073.1 562.46C1073.1 563.828 1073.38 564.908 1073.93 565.7C1074.51 566.468 1075.26 566.852 1076.2 566.852ZM1092.72 581.252C1090.92 581.252 1089.47 580.616 1088.37 579.344C1087.26 578.072 1086.71 576.404 1086.71 574.34C1086.71 572.276 1087.26 570.608 1088.37 569.336C1089.47 568.064 1090.92 567.428 1092.72 567.428C1094.52 567.428 1095.98 568.064 1097.08 569.336C1098.21 570.608 1098.77 572.276 1098.77 574.34C1098.77 576.404 1098.21 578.072 1097.08 579.344C1095.98 580.616 1094.52 581.252 1092.72 581.252ZM1092.72 578.732C1093.68 578.732 1094.44 578.348 1094.99 577.58C1095.54 576.788 1095.82 575.708 1095.82 574.34C1095.82 572.972 1095.54 571.904 1094.99 571.136C1094.44 570.344 1093.68 569.948 1092.72 569.948C1091.76 569.948 1091.01 570.332 1090.46 571.1C1089.9 571.868 1089.63 572.948 1089.63 574.34C1089.63 575.732 1089.9 576.812 1090.46 577.58C1091.01 578.348 1091.76 578.732 1092.72 578.732Z" fill="#2F1A35"/>
<path d="M1143.27 322.932C1145.61 322.932 1147.47 323.477 1148.84 324.566C1150.21 325.656 1150.89 327.162 1150.89 329.084C1150.89 330.35 1150.5 331.504 1149.72 332.547C1148.93 333.59 1147.68 334.539 1145.96 335.395C1148.04 336.391 1149.52 337.439 1150.4 338.541C1151.28 339.631 1151.72 340.896 1151.72 342.338C1151.72 344.471 1150.98 346.176 1149.49 347.453C1148 348.719 1145.96 349.352 1143.37 349.352C1140.63 349.352 1138.52 348.754 1137.04 347.559C1135.57 346.352 1134.83 344.646 1134.83 342.443C1134.83 339.502 1136.62 337.211 1140.21 335.57C1138.59 334.656 1137.43 333.672 1136.73 332.617C1136.02 331.551 1135.67 330.361 1135.67 329.049C1135.67 327.186 1136.36 325.703 1137.73 324.602C1139.11 323.488 1140.96 322.932 1143.27 322.932ZM1137.71 342.514C1137.71 343.92 1138.2 345.016 1139.17 345.801C1140.15 346.586 1141.53 346.979 1143.3 346.979C1145.05 346.979 1146.41 346.568 1147.38 345.748C1148.35 344.928 1148.84 343.803 1148.84 342.373C1148.84 341.236 1148.38 340.229 1147.47 339.35C1146.55 338.459 1144.96 337.598 1142.69 336.766C1140.94 337.516 1139.67 338.348 1138.89 339.262C1138.1 340.164 1137.71 341.248 1137.71 342.514ZM1143.23 325.305C1141.77 325.305 1140.62 325.656 1139.79 326.359C1138.95 327.062 1138.54 328 1138.54 329.172C1138.54 330.25 1138.88 331.176 1139.57 331.949C1140.27 332.723 1141.54 333.496 1143.41 334.27C1145.08 333.566 1146.27 332.811 1146.96 332.002C1147.66 331.193 1148.01 330.25 1148.01 329.172C1148.01 327.988 1147.58 327.051 1146.73 326.359C1145.88 325.656 1144.72 325.305 1143.23 325.305ZM1198.65 333.303C1201.35 333.303 1203.48 333.977 1205.03 335.324C1206.59 336.66 1207.37 338.494 1207.37 340.826C1207.37 343.486 1206.52 345.572 1204.82 347.084C1203.13 348.596 1200.8 349.352 1197.82 349.352C1194.93 349.352 1192.72 348.889 1191.19 347.963V345.15C1192.01 345.678 1193.03 346.094 1194.25 346.398C1195.47 346.691 1196.67 346.838 1197.86 346.838C1199.92 346.838 1201.52 346.352 1202.66 345.379C1203.8 344.406 1204.38 343 1204.38 341.16C1204.38 337.574 1202.18 335.781 1197.79 335.781C1196.67 335.781 1195.18 335.951 1193.32 336.291L1191.81 335.324L1192.78 323.301H1205.56V325.99H1195.27L1194.62 333.707C1195.97 333.438 1197.31 333.303 1198.65 333.303Z" fill="black"/>
<path d="M1177.48 404.125H1172.4V412H1168.67V404.125H1152.01V400.727L1168.27 377.547H1172.4V400.586H1177.48V404.125ZM1168.67 400.586V389.195C1168.67 386.961 1168.75 384.438 1168.91 381.625H1168.72C1167.97 383.125 1167.27 384.367 1166.61 385.352L1155.9 400.586H1168.67ZM1205.92 394.82C1205.92 400.742 1204.99 405.164 1203.11 408.086C1201.25 411.008 1198.4 412.469 1194.56 412.469C1190.87 412.469 1188.06 410.977 1186.14 407.992C1184.22 404.992 1183.26 400.602 1183.26 394.82C1183.26 388.852 1184.19 384.422 1186.05 381.531C1187.91 378.641 1190.74 377.195 1194.56 377.195C1198.27 377.195 1201.1 378.703 1203.02 381.719C1204.95 384.734 1205.92 389.102 1205.92 394.82ZM1187.2 394.82C1187.2 399.805 1187.78 403.438 1188.95 405.719C1190.13 407.984 1191.99 409.117 1194.56 409.117C1197.15 409.117 1199.02 407.969 1200.18 405.672C1201.35 403.359 1201.94 399.742 1201.94 394.82C1201.94 389.898 1201.35 386.297 1200.18 384.016C1199.02 381.719 1197.15 380.57 1194.56 380.57C1191.99 380.57 1190.13 381.703 1188.95 383.969C1187.78 386.219 1187.2 389.836 1187.2 394.82Z" fill="black"/>
<path d="M1179 328.804L1165 342.413" stroke="black" stroke-width="3" stroke-linecap="round" stroke-linejoin="round"/>
<path d="M1165 328.804L1179 342.413" stroke="black" stroke-width="3" stroke-linecap="round" stroke-linejoin="round"/>
<mask id="mask0" mask-type="alpha" maskUnits="userSpaceOnUse" x="257" y="97" width="459" height="100">
<rect x="257" y="97" width="459" height="100" rx="50" fill="#C4C4C4"/>
</mask>
<g mask="url(#mask0)">
<path opacity="0.95" fill-rule="evenodd" clip-rule="evenodd" d="M257 98V123H713V98H257Z" fill="#FF5976"/>
<mask id="mask1" mask-type="alpha" maskUnits="userSpaceOnUse" x="570" y="105" width="16" height="12">
<path fill-rule="evenodd" clip-rule="evenodd" d="M570 105L578 117L586 105H570Z" fill="white"/>
</mask>
<g mask="url(#mask1)">
<path fill-rule="evenodd" clip-rule="evenodd" d="M578 105C571.4 105 566 110.4 566 117C566 123.6 571.4 129 578 129C584.6 129 590 123.6 590 117C590 110.4 584.6 105 578 105ZM578 126C573 126 569 122 569 117C569 112 573 108 578 108C583 108 587 112 587 117C587 122 583 126 578 126Z" fill="white" fill-opacity="0.3"/>
<path fill-rule="evenodd" clip-rule="evenodd" d="M578 108C573 108 569 112 569 117C569 122 573 126 578 126C583 126 587 122 587 117C587 112 583 108 578 108ZM578 123C574.7 123 572 120.3 572 117C572 113.7 574.7 111 578 111C581.3 111 584 113.7 584 117C584 120.3 581.3 123 578 123Z" fill="white" fill-opacity="0.9"/>
<path fill-rule="evenodd" clip-rule="evenodd" d="M578 111C574.7 111 572 113.7 572 117C572 120.3 574.7 123 578 123C581.3 123 584 120.3 584 117C584 113.7 581.3 111 578 111ZM578 120C576.3 120 575 118.7 575 117C575 115.3 576.3 114 578 114C579.7 114 581 115.3 581 117C581 118.7 579.7 120 578 120Z" fill="white" fill-opacity="0.9"/>
<path fill-rule="evenodd" clip-rule="evenodd" d="M578 120C579.657 120 581 118.657 581 117C581 115.343 579.657 114 578 114C576.343 114 575 115.343 575 117C575 118.657 576.343 120 578 120Z" fill="white" fill-opacity="0.9"/>
</g>
<mask id="mask2" mask-type="alpha" maskUnits="userSpaceOnUse" x="596" y="105" width="12" height="12">
<path fill-rule="evenodd" clip-rule="evenodd" d="M608 117V105L596 117H608Z" fill="white"/>
</mask>
<g mask="url(#mask2)">
<path fill-rule="evenodd" clip-rule="evenodd" d="M605 105V117H608V105H605Z" fill="white" fill-opacity="0.3"/>
<path fill-rule="evenodd" clip-rule="evenodd" d="M602 105V117H605V105H602Z" fill="white" fill-opacity="0.3"/>
<path fill-rule="evenodd" clip-rule="evenodd" d="M599 105V117H602V105H599Z" fill="white" fill-opacity="0.9"/>
<path fill-rule="evenodd" clip-rule="evenodd" d="M596 105V117H599V105H596Z" fill="white" fill-opacity="0.9"/>
</g>
<mask id="mask3" mask-type="alpha" maskUnits="userSpaceOnUse" x="622" y="104" width="8" height="13">
<path fill-rule="evenodd" clip-rule="evenodd" d="M629 105H628V104H624V105H623C622.4 105 622 105.4 622 106V116C622 116.6 622.4 117 623 117H629C629.6 117 630 116.6 630 116V106C630 105.4 629.6 105 629 105Z" fill="white"/>
</mask>
<g mask="url(#mask3)">
<path fill-rule="evenodd" clip-rule="evenodd" d="M622 114V117H630V114H622Z" fill="white" fill-opacity="0.9"/>
<path fill-rule="evenodd" clip-rule="evenodd" d="M622 111V114H630V111H622Z" fill="white" fill-opacity="0.9"/>
<path fill-rule="evenodd" clip-rule="evenodd" d="M622 108V111H630V108H622Z" fill="white" fill-opacity="0.3"/>
<path fill-rule="evenodd" clip-rule="evenodd" d="M622 105V108H630V105H622Z" fill="white" fill-opacity="0.3"/>
<path fill-rule="evenodd" clip-rule="evenodd" d="M624 104V105H628V104H624Z" fill="white" fill-opacity="0.3"/>
</g>
<g opacity="0.9">
<path d="M644.695 117H643.242V107.367L640.328 108.438V107.125L644.469 105.57H644.695V117ZM656.383 117H648.93V115.961L652.867 111.586C653.451 110.924 653.852 110.388 654.07 109.977C654.294 109.56 654.406 109.13 654.406 108.688C654.406 108.094 654.227 107.607 653.867 107.227C653.508 106.846 653.029 106.656 652.43 106.656C651.711 106.656 651.151 106.862 650.75 107.273C650.354 107.68 650.156 108.247 650.156 108.977H648.711C648.711 107.93 649.047 107.083 649.719 106.438C650.396 105.792 651.299 105.469 652.43 105.469C653.487 105.469 654.323 105.747 654.938 106.305C655.552 106.857 655.859 107.594 655.859 108.516C655.859 109.635 655.146 110.969 653.719 112.516L650.672 115.82H656.383V117ZM658.016 116.242C658.016 115.992 658.089 115.784 658.234 115.617C658.385 115.451 658.609 115.367 658.906 115.367C659.203 115.367 659.427 115.451 659.578 115.617C659.734 115.784 659.812 115.992 659.812 116.242C659.812 116.482 659.734 116.682 659.578 116.844C659.427 117.005 659.203 117.086 658.906 117.086C658.609 117.086 658.385 117.005 658.234 116.844C658.089 116.682 658.016 116.482 658.016 116.242ZM658.023 109.344C658.023 109.094 658.096 108.885 658.242 108.719C658.393 108.552 658.617 108.469 658.914 108.469C659.211 108.469 659.435 108.552 659.586 108.719C659.742 108.885 659.82 109.094 659.82 109.344C659.82 109.583 659.742 109.784 659.586 109.945C659.435 110.107 659.211 110.188 658.914 110.188C658.617 110.188 658.393 110.107 658.242 109.945C658.096 109.784 658.023 109.583 658.023 109.344ZM663.891 110.609H664.977C665.659 110.599 666.195 110.419 666.586 110.07C666.977 109.721 667.172 109.25 667.172 108.656C667.172 107.323 666.508 106.656 665.18 106.656C664.555 106.656 664.055 106.836 663.68 107.195C663.31 107.549 663.125 108.021 663.125 108.609H661.68C661.68 107.708 662.008 106.961 662.664 106.367C663.326 105.768 664.164 105.469 665.18 105.469C666.253 105.469 667.094 105.753 667.703 106.32C668.312 106.888 668.617 107.677 668.617 108.688C668.617 109.182 668.456 109.661 668.133 110.125C667.815 110.589 667.38 110.935 666.828 111.164C667.453 111.362 667.935 111.69 668.273 112.148C668.617 112.607 668.789 113.167 668.789 113.828C668.789 114.849 668.456 115.659 667.789 116.258C667.122 116.857 666.255 117.156 665.188 117.156C664.12 117.156 663.25 116.867 662.578 116.289C661.911 115.711 661.578 114.948 661.578 114H663.031C663.031 114.599 663.227 115.078 663.617 115.438C664.008 115.797 664.531 115.977 665.188 115.977C665.885 115.977 666.419 115.794 666.789 115.43C667.159 115.065 667.344 114.542 667.344 113.859C667.344 113.198 667.141 112.69 666.734 112.336C666.328 111.982 665.742 111.799 664.977 111.789H663.891V110.609ZM677.906 112.148C677.906 113.841 677.617 115.099 677.039 115.922C676.461 116.745 675.557 117.156 674.328 117.156C673.115 117.156 672.216 116.755 671.633 115.953C671.049 115.146 670.747 113.943 670.727 112.344V110.414C670.727 108.742 671.016 107.5 671.594 106.688C672.172 105.875 673.078 105.469 674.312 105.469C675.536 105.469 676.438 105.862 677.016 106.648C677.594 107.43 677.891 108.638 677.906 110.273V112.148ZM676.461 110.172C676.461 108.948 676.289 108.057 675.945 107.5C675.602 106.938 675.057 106.656 674.312 106.656C673.573 106.656 673.034 106.935 672.695 107.492C672.357 108.049 672.182 108.906 672.172 110.062V112.375C672.172 113.604 672.349 114.513 672.703 115.102C673.062 115.685 673.604 115.977 674.328 115.977C675.042 115.977 675.57 115.701 675.914 115.148C676.263 114.596 676.445 113.727 676.461 112.539V110.172Z" fill="white"/>
</g>
</g>
<mask id="mask4" mask-type="alpha" maskUnits="userSpaceOnUse" x="807" y="197" width="459" height="100">
<rect x="807" y="197" width="459" height="100" rx="50" fill="#C4C4C4"/>
</mask>
<g mask="url(#mask4)">
<path opacity="0.95" fill-rule="evenodd" clip-rule="evenodd" d="M807 198V223H1263V198H807Z" fill="#FF5976"/>
<mask id="mask5" mask-type="alpha" maskUnits="userSpaceOnUse" x="1120" y="205" width="16" height="12">
<path fill-rule="evenodd" clip-rule="evenodd" d="M1120 205L1128 217L1136 205H1120Z" fill="white"/>
</mask>
<g mask="url(#mask5)">
<path fill-rule="evenodd" clip-rule="evenodd" d="M1128 205C1121.4 205 1116 210.4 1116 217C1116 223.6 1121.4 229 1128 229C1134.6 229 1140 223.6 1140 217C1140 210.4 1134.6 205 1128 205ZM1128 226C1123 226 1119 222 1119 217C1119 212 1123 208 1128 208C1133 208 1137 212 1137 217C1137 222 1133 226 1128 226Z" fill="white" fill-opacity="0.3"/>
<path fill-rule="evenodd" clip-rule="evenodd" d="M1128 208C1123 208 1119 212 1119 217C1119 222 1123 226 1128 226C1133 226 1137 222 1137 217C1137 212 1133 208 1128 208ZM1128 223C1124.7 223 1122 220.3 1122 217C1122 213.7 1124.7 211 1128 211C1131.3 211 1134 213.7 1134 217C1134 220.3 1131.3 223 1128 223Z" fill="white" fill-opacity="0.9"/>
<path fill-rule="evenodd" clip-rule="evenodd" d="M1128 211C1124.7 211 1122 213.7 1122 217C1122 220.3 1124.7 223 1128 223C1131.3 223 1134 220.3 1134 217C1134 213.7 1131.3 211 1128 211ZM1128 220C1126.3 220 1125 218.7 1125 217C1125 215.3 1126.3 214 1128 214C1129.7 214 1131 215.3 1131 217C1131 218.7 1129.7 220 1128 220Z" fill="white" fill-opacity="0.9"/>
<path fill-rule="evenodd" clip-rule="evenodd" d="M1128 220C1129.66 220 1131 218.657 1131 217C1131 215.343 1129.66 214 1128 214C1126.34 214 1125 215.343 1125 217C1125 218.657 1126.34 220 1128 220Z" fill="white" fill-opacity="0.9"/>
</g>
<mask id="mask6" mask-type="alpha" maskUnits="userSpaceOnUse" x="1146" y="205" width="12" height="12">
<path fill-rule="evenodd" clip-rule="evenodd" d="M1158 217V205L1146 217H1158Z" fill="white"/>
</mask>
<g mask="url(#mask6)">
<path fill-rule="evenodd" clip-rule="evenodd" d="M1155 205V217H1158V205H1155Z" fill="white" fill-opacity="0.3"/>
<path fill-rule="evenodd" clip-rule="evenodd" d="M1152 205V217H1155V205H1152Z" fill="white" fill-opacity="0.3"/>
<path fill-rule="evenodd" clip-rule="evenodd" d="M1149 205V217H1152V205H1149Z" fill="white" fill-opacity="0.9"/>
<path fill-rule="evenodd" clip-rule="evenodd" d="M1146 205V217H1149V205H1146Z" fill="white" fill-opacity="0.9"/>
</g>
<mask id="mask7" mask-type="alpha" maskUnits="userSpaceOnUse" x="1172" y="204" width="8" height="13">
<path fill-rule="evenodd" clip-rule="evenodd" d="M1179 205H1178V204H1174V205H1173C1172.4 205 1172 205.4 1172 206V216C1172 216.6 1172.4 217 1173 217H1179C1179.6 217 1180 216.6 1180 216V206C1180 205.4 1179.6 205 1179 205Z" fill="white"/>
</mask>
<g mask="url(#mask7)">
<path fill-rule="evenodd" clip-rule="evenodd" d="M1172 214V217H1180V214H1172Z" fill="white" fill-opacity="0.9"/>
<path fill-rule="evenodd" clip-rule="evenodd" d="M1172 211V214H1180V211H1172Z" fill="white" fill-opacity="0.9"/>
<path fill-rule="evenodd" clip-rule="evenodd" d="M1172 208V211H1180V208H1172Z" fill="white" fill-opacity="0.3"/>
<path fill-rule="evenodd" clip-rule="evenodd" d="M1172 205V208H1180V205H1172Z" fill="white" fill-opacity="0.3"/>
<path fill-rule="evenodd" clip-rule="evenodd" d="M1174 204V205H1178V204H1174Z" fill="white" fill-opacity="0.3"/>
</g>
<g opacity="0.9">
<path d="M1194.7 217H1193.24V207.367L1190.33 208.438V207.125L1194.47 205.57H1194.7V217ZM1206.38 217H1198.93V215.961L1202.87 211.586C1203.45 210.924 1203.85 210.388 1204.07 209.977C1204.29 209.56 1204.41 209.13 1204.41 208.688C1204.41 208.094 1204.23 207.607 1203.87 207.227C1203.51 206.846 1203.03 206.656 1202.43 206.656C1201.71 206.656 1201.15 206.862 1200.75 207.273C1200.35 207.68 1200.16 208.247 1200.16 208.977H1198.71C1198.71 207.93 1199.05 207.083 1199.72 206.438C1200.4 205.792 1201.3 205.469 1202.43 205.469C1203.49 205.469 1204.32 205.747 1204.94 206.305C1205.55 206.857 1205.86 207.594 1205.86 208.516C1205.86 209.635 1205.15 210.969 1203.72 212.516L1200.67 215.82H1206.38V217ZM1208.02 216.242C1208.02 215.992 1208.09 215.784 1208.23 215.617C1208.39 215.451 1208.61 215.367 1208.91 215.367C1209.2 215.367 1209.43 215.451 1209.58 215.617C1209.73 215.784 1209.81 215.992 1209.81 216.242C1209.81 216.482 1209.73 216.682 1209.58 216.844C1209.43 217.005 1209.2 217.086 1208.91 217.086C1208.61 217.086 1208.39 217.005 1208.23 216.844C1208.09 216.682 1208.02 216.482 1208.02 216.242ZM1208.02 209.344C1208.02 209.094 1208.1 208.885 1208.24 208.719C1208.39 208.552 1208.62 208.469 1208.91 208.469C1209.21 208.469 1209.43 208.552 1209.59 208.719C1209.74 208.885 1209.82 209.094 1209.82 209.344C1209.82 209.583 1209.74 209.784 1209.59 209.945C1209.43 210.107 1209.21 210.188 1208.91 210.188C1208.62 210.188 1208.39 210.107 1208.24 209.945C1208.1 209.784 1208.02 209.583 1208.02 209.344ZM1213.89 210.609H1214.98C1215.66 210.599 1216.2 210.419 1216.59 210.07C1216.98 209.721 1217.17 209.25 1217.17 208.656C1217.17 207.323 1216.51 206.656 1215.18 206.656C1214.55 206.656 1214.05 206.836 1213.68 207.195C1213.31 207.549 1213.12 208.021 1213.12 208.609H1211.68C1211.68 207.708 1212.01 206.961 1212.66 206.367C1213.33 205.768 1214.16 205.469 1215.18 205.469C1216.25 205.469 1217.09 205.753 1217.7 206.32C1218.31 206.888 1218.62 207.677 1218.62 208.688C1218.62 209.182 1218.46 209.661 1218.13 210.125C1217.82 210.589 1217.38 210.935 1216.83 211.164C1217.45 211.362 1217.93 211.69 1218.27 212.148C1218.62 212.607 1218.79 213.167 1218.79 213.828C1218.79 214.849 1218.46 215.659 1217.79 216.258C1217.12 216.857 1216.26 217.156 1215.19 217.156C1214.12 217.156 1213.25 216.867 1212.58 216.289C1211.91 215.711 1211.58 214.948 1211.58 214H1213.03C1213.03 214.599 1213.23 215.078 1213.62 215.438C1214.01 215.797 1214.53 215.977 1215.19 215.977C1215.89 215.977 1216.42 215.794 1216.79 215.43C1217.16 215.065 1217.34 214.542 1217.34 213.859C1217.34 213.198 1217.14 212.69 1216.73 212.336C1216.33 211.982 1215.74 211.799 1214.98 211.789H1213.89V210.609ZM1227.91 212.148C1227.91 213.841 1227.62 215.099 1227.04 215.922C1226.46 216.745 1225.56 217.156 1224.33 217.156C1223.11 217.156 1222.22 216.755 1221.63 215.953C1221.05 215.146 1220.75 213.943 1220.73 212.344V210.414C1220.73 208.742 1221.02 207.5 1221.59 206.688C1222.17 205.875 1223.08 205.469 1224.31 205.469C1225.54 205.469 1226.44 205.862 1227.02 206.648C1227.59 207.43 1227.89 208.638 1227.91 210.273V212.148ZM1226.46 210.172C1226.46 208.948 1226.29 208.057 1225.95 207.5C1225.6 206.938 1225.06 206.656 1224.31 206.656C1223.57 206.656 1223.03 206.935 1222.7 207.492C1222.36 208.049 1222.18 208.906 1222.17 210.062V212.375C1222.17 213.604 1222.35 214.513 1222.7 215.102C1223.06 215.685 1223.6 215.977 1224.33 215.977C1225.04 215.977 1225.57 215.701 1225.91 215.148C1226.26 214.596 1226.45 213.727 1226.46 212.539V210.172Z" fill="white"/>
</g>
</g>
</g>
<defs>
<filter id="filter0_dii" x="220" y="64" width="620" height="1046" filterUnits="userSpaceOnUse" color-interpolation-filters="sRGB">
<feFlood flood-opacity="0" result="BackgroundImageFix"/>
<feColorMatrix in="SourceAlpha" type="matrix" values="0 0 0 0 0 0 0 0 0 0 0 0 0 0 0 0 0 0 127 0"/>
<feOffset dx="60" dy="40"/>
<feGaussianBlur stdDeviation="30"/>
<feColorMatrix type="matrix" values="0 0 0 0 0.419608 0 0 0 0 0.498039 0 0 0 0 0.6 0 0 0 0.2 0"/>
<feBlend mode="normal" in2="BackgroundImageFix" result="effect1_dropShadow"/>
<feBlend mode="normal" in="SourceGraphic" in2="effect1_dropShadow" result="shape"/>
<feColorMatrix in="SourceAlpha" type="matrix" values="0 0 0 0 0 0 0 0 0 0 0 0 0 0 0 0 0 0 127 0" result="hardAlpha"/>
<feOffset dx="-30" dy="-2"/>
<feGaussianBlur stdDeviation="15"/>
<feComposite in2="hardAlpha" operator="arithmetic" k2="-1" k3="1"/>
<feColorMatrix type="matrix" values="0 0 0 0 0.25098 0 0 0 0 0.321569 0 0 0 0 0.501961 0 0 0 0.12 0"/>
<feBlend mode="normal" in2="shape" result="effect2_innerShadow"/>
<feColorMatrix in="SourceAlpha" type="matrix" values="0 0 0 0 0 0 0 0 0 0 0 0 0 0 0 0 0 0 127 0" result="hardAlpha"/>
<feOffset dx="30" dy="2"/>
<feGaussianBlur stdDeviation="15"/>
<feComposite in2="hardAlpha" operator="arithmetic" k2="-1" k3="1"/>
<feColorMatrix type="matrix" values="0 0 0 0 0.996078 0 0 0 0 0.960784 0 0 0 0 0.976471 0 0 0 1 0"/>
<feBlend mode="normal" in2="effect2_innerShadow" result="effect3_innerShadow"/>
</filter>
<filter id="filter1_ii" x="227" y="95" width="516" height="904" filterUnits="userSpaceOnUse" color-interpolation-filters="sRGB">
<feFlood flood-opacity="0" result="BackgroundImageFix"/>
<feBlend mode="normal" in="SourceGraphic" in2="BackgroundImageFix" result="shape"/>
<feColorMatrix in="SourceAlpha" type="matrix" values="0 0 0 0 0 0 0 0 0 0 0 0 0 0 0 0 0 0 127 0" result="hardAlpha"/>
<feOffset dx="-30" dy="-2"/>
<feGaussianBlur stdDeviation="15"/>
<feComposite in2="hardAlpha" operator="arithmetic" k2="-1" k3="1"/>
<feColorMatrix type="matrix" values="0 0 0 0 0.25098 0 0 0 0 0.321569 0 0 0 0 0.501961 0 0 0 0.08 0"/>
<feBlend mode="normal" in2="shape" result="effect1_innerShadow"/>
<feColorMatrix in="SourceAlpha" type="matrix" values="0 0 0 0 0 0 0 0 0 0 0 0 0 0 0 0 0 0 127 0" result="hardAlpha"/>
<feOffset dx="30" dy="2"/>
<feGaussianBlur stdDeviation="15"/>
<feComposite in2="hardAlpha" operator="arithmetic" k2="-1" k3="1"/>
<feColorMatrix type="matrix" values="0 0 0 0 1 0 0 0 0 0.977214 0 0 0 0 0.987341 0 0 0 0.3 0"/>
<feBlend mode="normal" in2="effect1_innerShadow" result="effect2_innerShadow"/>
</filter>
<filter id="filter2_dd" x="555" y="393.341" width="158" height="458.399" filterUnits="userSpaceOnUse" color-interpolation-filters="sRGB">
<feFlood flood-opacity="0" result="BackgroundImageFix"/>
<feColorMatrix in="SourceAlpha" type="matrix" values="0 0 0 0 0 0 0 0 0 0 0 0 0 0 0 0 0 0 127 0"/>
<feMorphology radius="7" operator="dilate" in="SourceAlpha" result="effect1_dropShadow"/>
<feOffset dx="-6" dy="-6"/>
<feGaussianBlur stdDeviation="10"/>
<feColorMatrix type="matrix" values="0 0 0 0 1 0 0 0 0 1 0 0 0 0 1 0 0 0 1 0"/>
<feBlend mode="normal" in2="BackgroundImageFix" result="effect1_dropShadow"/>
<feColorMatrix in="SourceAlpha" type="matrix" values="0 0 0 0 0 0 0 0 0 0 0 0 0 0 0 0 0 0 127 0"/>
<feMorphology radius="1" operator="dilate" in="SourceAlpha" result="effect2_dropShadow"/>
<feOffset dx="6" dy="6"/>
<feGaussianBlur stdDeviation="7.5"/>
<feColorMatrix type="matrix" values="0 0 0 0 0 0 0 0 0 0 0 0 0 0 0 0 0 0 0.15 0"/>
<feBlend mode="normal" in2="effect1_dropShadow" result="effect2_dropShadow"/>
<feBlend mode="normal" in="SourceGraphic" in2="effect2_dropShadow" result="shape"/>
</filter>
<filter id="filter3_dd" x="555" y="807.432" width="158" height="139.568" filterUnits="userSpaceOnUse" color-interpolation-filters="sRGB">
<feFlood flood-opacity="0" result="BackgroundImageFix"/>
<feColorMatrix in="SourceAlpha" type="matrix" values="0 0 0 0 0 0 0 0 0 0 0 0 0 0 0 0 0 0 127 0"/>
<feMorphology radius="7" operator="dilate" in="SourceAlpha" result="effect1_dropShadow"/>
<feOffset dx="-6" dy="-6"/>
<feGaussianBlur stdDeviation="10"/>
<feColorMatrix type="matrix" values="0 0 0 0 1 0 0 0 0 1 0 0 0 0 1 0 0 0 1 0"/>
<feBlend mode="normal" in2="BackgroundImageFix" result="effect1_dropShadow"/>
<feColorMatrix in="SourceAlpha" type="matrix" values="0 0 0 0 0 0 0 0 0 0 0 0 0 0 0 0 0 0 127 0"/>
<feMorphology radius="1" operator="dilate" in="SourceAlpha" result="effect2_dropShadow"/>
<feOffset dx="6" dy="6"/>
<feGaussianBlur stdDeviation="7.5"/>
<feColorMatrix type="matrix" values="0 0 0 0 0 0 0 0 0 0 0 0 0 0 0 0 0 0 0.15 0"/>
<feBlend mode="normal" in2="effect1_dropShadow" result="effect2_dropShadow"/>
<feBlend mode="normal" in="SourceGraphic" in2="effect2_dropShadow" result="shape"/>
</filter>
<filter id="filter4_ii" x="262" y="152" width="437" height="250.263" filterUnits="userSpaceOnUse" color-interpolation-filters="sRGB">
<feFlood flood-opacity="0" result="BackgroundImageFix"/>
<feBlend mode="normal" in="SourceGraphic" in2="BackgroundImageFix" result="shape"/>
<feColorMatrix in="SourceAlpha" type="matrix" values="0 0 0 0 0 0 0 0 0 0 0 0 0 0 0 0 0 0 127 0" result="hardAlpha"/>
<feOffset dx="8" dy="8"/>
<feGaussianBlur stdDeviation="6"/>
<feComposite in2="hardAlpha" operator="arithmetic" k2="-1" k3="1"/>
<feColorMatrix type="matrix" values="0 0 0 0 0.960784 0 0 0 0 0.960784 0 0 0 0 0.960784 0 0 0 1 0"/>
<feBlend mode="normal" in2="shape" result="effect1_innerShadow"/>
<feColorMatrix in="SourceAlpha" type="matrix" values="0 0 0 0 0 0 0 0 0 0 0 0 0 0 0 0 0 0 127 0" result="hardAlpha"/>
<feOffset dx="-8" dy="-8"/>
<feGaussianBlur stdDeviation="6"/>
<feComposite in2="hardAlpha" operator="arithmetic" k2="-1" k3="1"/>
<feColorMatrix type="matrix" values="0 0 0 0 0 0 0 0 0 0 0 0 0 0 0 0 0 0 0.15 0"/>
<feBlend mode="normal" in2="effect1_innerShadow" result="effect2_innerShadow"/>
</filter>
<filter id="filter5_dii" x="770" y="165" width="620" height="1046" filterUnits="userSpaceOnUse" color-interpolation-filters="sRGB">
<feFlood flood-opacity="0" result="BackgroundImageFix"/>
<feColorMatrix in="SourceAlpha" type="matrix" values="0 0 0 0 0 0 0 0 0 0 0 0 0 0 0 0 0 0 127 0"/>
<feOffset dx="60" dy="40"/>
<feGaussianBlur stdDeviation="30"/>
<feColorMatrix type="matrix" values="0 0 0 0 0.419608 0 0 0 0 0.498039 0 0 0 0 0.6 0 0 0 0.2 0"/>
<feBlend mode="normal" in2="BackgroundImageFix" result="effect1_dropShadow"/>
<feBlend mode="normal" in="SourceGraphic" in2="effect1_dropShadow" result="shape"/>
<feColorMatrix in="SourceAlpha" type="matrix" values="0 0 0 0 0 0 0 0 0 0 0 0 0 0 0 0 0 0 127 0" result="hardAlpha"/>
<feOffset dx="-30" dy="-2"/>
<feGaussianBlur stdDeviation="15"/>
<feComposite in2="hardAlpha" operator="arithmetic" k2="-1" k3="1"/>
<feColorMatrix type="matrix" values="0 0 0 0 0.25098 0 0 0 0 0.321569 0 0 0 0 0.501961 0 0 0 0.12 0"/>
<feBlend mode="normal" in2="shape" result="effect2_innerShadow"/>
<feColorMatrix in="SourceAlpha" type="matrix" values="0 0 0 0 0 0 0 0 0 0 0 0 0 0 0 0 0 0 127 0" result="hardAlpha"/>
<feOffset dx="30" dy="2"/>
<feGaussianBlur stdDeviation="15"/>
<feComposite in2="hardAlpha" operator="arithmetic" k2="-1" k3="1"/>
<feColorMatrix type="matrix" values="0 0 0 0 0.996078 0 0 0 0 0.960784 0 0 0 0 0.976471 0 0 0 1 0"/>
<feBlend mode="normal" in2="effect2_innerShadow" result="effect3_innerShadow"/>
</filter>
<filter id="filter6_ii" x="777" y="196" width="516" height="904" filterUnits="userSpaceOnUse" color-interpolation-filters="sRGB">
<feFlood flood-opacity="0" result="BackgroundImageFix"/>
<feBlend mode="normal" in="SourceGraphic" in2="BackgroundImageFix" result="shape"/>
<feColorMatrix in="SourceAlpha" type="matrix" values="0 0 0 0 0 0 0 0 0 0 0 0 0 0 0 0 0 0 127 0" result="hardAlpha"/>
<feOffset dx="-30" dy="-2"/>
<feGaussianBlur stdDeviation="15"/>
<feComposite in2="hardAlpha" operator="arithmetic" k2="-1" k3="1"/>
<feColorMatrix type="matrix" values="0 0 0 0 0.25098 0 0 0 0 0.321569 0 0 0 0 0.501961 0 0 0 0.08 0"/>
<feBlend mode="normal" in2="shape" result="effect1_innerShadow"/>
<feColorMatrix in="SourceAlpha" type="matrix" values="0 0 0 0 0 0 0 0 0 0 0 0 0 0 0 0 0 0 127 0" result="hardAlpha"/>
<feOffset dx="30" dy="2"/>
<feGaussianBlur stdDeviation="15"/>
<feComposite in2="hardAlpha" operator="arithmetic" k2="-1" k3="1"/>
<feColorMatrix type="matrix" values="0 0 0 0 1 0 0 0 0 0.977214 0 0 0 0 0.987341 0 0 0 0.3 0"/>
<feBlend mode="normal" in2="effect1_innerShadow" result="effect2_innerShadow"/>
</filter>
<filter id="filter7_dd" x="1105" y="480" width="158" height="470" filterUnits="userSpaceOnUse" color-interpolation-filters="sRGB">
<feFlood flood-opacity="0" result="BackgroundImageFix"/>
<feColorMatrix in="SourceAlpha" type="matrix" values="0 0 0 0 0 0 0 0 0 0 0 0 0 0 0 0 0 0 127 0"/>
<feMorphology radius="7" operator="dilate" in="SourceAlpha" result="effect1_dropShadow"/>
<feOffset dx="-6" dy="-6"/>
<feGaussianBlur stdDeviation="10"/>
<feColorMatrix type="matrix" values="0 0 0 0 1 0 0 0 0 1 0 0 0 0 1 0 0 0 1 0"/>
<feBlend mode="normal" in2="BackgroundImageFix" result="effect1_dropShadow"/>
<feColorMatrix in="SourceAlpha" type="matrix" values="0 0 0 0 0 0 0 0 0 0 0 0 0 0 0 0 0 0 127 0"/>
<feMorphology radius="1" operator="dilate" in="SourceAlpha" result="effect2_dropShadow"/>
<feOffset dx="6" dy="6"/>
<feGaussianBlur stdDeviation="7.5"/>
<feColorMatrix type="matrix" values="0 0 0 0 0 0 0 0 0 0 0 0 0 0 0 0 0 0 0.15 0"/>
<feBlend mode="normal" in2="effect1_dropShadow" result="effect2_dropShadow"/>
<feBlend mode="normal" in="SourceGraphic" in2="effect2_dropShadow" result="shape"/>
</filter>
<filter id="filter8_ii" x="928" y="729" width="98" height="90" filterUnits="userSpaceOnUse" color-interpolation-filters="sRGB">
<feFlood flood-opacity="0" result="BackgroundImageFix"/>
<feBlend mode="normal" in="SourceGraphic" in2="BackgroundImageFix" result="shape"/>
<feColorMatrix in="SourceAlpha" type="matrix" values="0 0 0 0 0 0 0 0 0 0 0 0 0 0 0 0 0 0 127 0" result="hardAlpha"/>
<feOffset dx="4" dy="4"/>
<feGaussianBlur stdDeviation="6"/>
<feComposite in2="hardAlpha" operator="arithmetic" k2="-1" k3="1"/>
<feColorMatrix type="matrix" values="0 0 0 0 1 0 0 0 0 1 0 0 0 0 1 0 0 0 1 0"/>
<feBlend mode="normal" in2="shape" result="effect1_innerShadow"/>
<feColorMatrix in="SourceAlpha" type="matrix" values="0 0 0 0 0 0 0 0 0 0 0 0 0 0 0 0 0 0 127 0" result="hardAlpha"/>
<feOffset dx="-4" dy="-4"/>
<feGaussianBlur stdDeviation="6"/>
<feComposite in2="hardAlpha" operator="arithmetic" k2="-1" k3="1"/>
<feColorMatrix type="matrix" values="0 0 0 0 0 0 0 0 0 0 0 0 0 0 0 0 0 0 0.15 0"/>
<feBlend mode="normal" in2="effect1_innerShadow" result="effect2_innerShadow"/>
</filter>
<filter id="filter9_dd" x="1105" y="906" width="158" height="142" filterUnits="userSpaceOnUse" color-interpolation-filters="sRGB">
<feFlood flood-opacity="0" result="BackgroundImageFix"/>
<feColorMatrix in="SourceAlpha" type="matrix" values="0 0 0 0 0 0 0 0 0 0 0 0 0 0 0 0 0 0 127 0"/>
<feMorphology radius="7" operator="dilate" in="SourceAlpha" result="effect1_dropShadow"/>
<feOffset dx="-6" dy="-6"/>
<feGaussianBlur stdDeviation="10"/>
<feColorMatrix type="matrix" values="0 0 0 0 1 0 0 0 0 1 0 0 0 0 1 0 0 0 1 0"/>
<feBlend mode="normal" in2="BackgroundImageFix" result="effect1_dropShadow"/>
<feColorMatrix in="SourceAlpha" type="matrix" values="0 0 0 0 0 0 0 0 0 0 0 0 0 0 0 0 0 0 127 0"/>
<feMorphology radius="1" operator="dilate" in="SourceAlpha" result="effect2_dropShadow"/>
<feOffset dx="6" dy="6"/>
<feGaussianBlur stdDeviation="7.5"/>
<feColorMatrix type="matrix" values="0 0 0 0 0 0 0 0 0 0 0 0 0 0 0 0 0 0 0.15 0"/>
<feBlend mode="normal" in2="effect1_dropShadow" result="effect2_dropShadow"/>
<feBlend mode="normal" in="SourceGraphic" in2="effect2_dropShadow" result="shape"/>
</filter>
<filter id="filter10_ii" x="812" y="239" width="437" height="249" filterUnits="userSpaceOnUse" color-interpolation-filters="sRGB">
<feFlood flood-opacity="0" result="BackgroundImageFix"/>
<feBlend mode="normal" in="SourceGraphic" in2="BackgroundImageFix" result="shape"/>
<feColorMatrix in="SourceAlpha" type="matrix" values="0 0 0 0 0 0 0 0 0 0 0 0 0 0 0 0 0 0 127 0" result="hardAlpha"/>
<feOffset dx="8" dy="8"/>
<feGaussianBlur stdDeviation="6"/>
<feComposite in2="hardAlpha" operator="arithmetic" k2="-1" k3="1"/>
<feColorMatrix type="matrix" values="0 0 0 0 0.960784 0 0 0 0 0.960784 0 0 0 0 0.960784 0 0 0 1 0"/>
<feBlend mode="normal" in2="shape" result="effect1_innerShadow"/>
<feColorMatrix in="SourceAlpha" type="matrix" values="0 0 0 0 0 0 0 0 0 0 0 0 0 0 0 0 0 0 127 0" result="hardAlpha"/>
<feOffset dx="-8" dy="-8"/>
<feGaussianBlur stdDeviation="6"/>
<feComposite in2="hardAlpha" operator="arithmetic" k2="-1" k3="1"/>
<feColorMatrix type="matrix" values="0 0 0 0 0 0 0 0 0 0 0 0 0 0 0 0 0 0 0.15 0"/>
<feBlend mode="normal" in2="effect1_innerShadow" result="effect2_innerShadow"/>
</filter>
<linearGradient id="paint0_linear" x1="485" y1="97" x2="485" y2="997" gradientUnits="userSpaceOnUse">
<stop stop-color="#D3D7DB"/>
<stop offset="1" stop-color="#CED2D6"/>
</linearGradient>
<linearGradient id="paint1_linear" x1="1035" y1="198" x2="1035" y2="1098" gradientUnits="userSpaceOnUse">
<stop stop-color="#D3D7DB"/>
<stop offset="1" stop-color="#CED2D6"/>
</linearGradient>
<clipPath id="clip0">
<rect width="1600" height="1200" fill="white"/>
</clipPath>
</defs>
</svg>
