<svg width="1100" height="1100" fill="none" xmlns="http://www.w3.org/2000/svg"><g filter="url(#filter0_b)"><path fill="#FCE3EE" d="M0 0h1100v1100H0z"/><g clip-path="url(#clip0)" filter="url(#filter1_dd)"><path fill="#fff" d="M102 233h900v620H102z"/><path fill="url(#paint0_linear)" d="M102 233h900v620H102z"/><path d="M102 233h550c193.3 0 350 156.7 350 350v270H278c-97.202 0-176-78.798-176-176V233z" fill="#fff"/><path d="M503 696h69c15.464 0 28 12.536 28 28v14h-83c-7.732 0-14-6.268-14-14v-28z" fill="url(#paint1_linear)"/><path d="M679.1 476H424.817c-32.045 0-33.548 49.368 0 49.368H679.1c31.672 0 32.172 56.132 0 56.132H424.817c-34.045 0-32.12 51.5 0 51.5H679.1" stroke="url(#paint2_linear)" stroke-width="2"/><path d="M416.32 505.09c2.466 0 3.906-1.062 3.906-2.7 0-3.636-6.138-1.71-6.138-4.266 0-.9.756-1.566 2.466-1.566.972 0 1.962.234 2.79.81l.558-1.026c-.792-.54-2.124-.882-3.348-.882-2.412 0-3.744 1.152-3.744 2.7 0 3.744 6.138 1.8 6.138 4.266 0 .936-.738 1.548-2.538 1.548-1.332 0-2.61-.468-3.366-1.062l-.576 1.008c.774.666 2.286 1.17 3.852 1.17zm11.039 0c2.772 0 4.806-2.016 4.806-4.824s-2.034-4.806-4.806-4.806c-2.772 0-4.824 1.998-4.824 4.806s2.052 4.824 4.824 4.824zm0-1.134c-2.016 0-3.528-1.476-3.528-3.69s1.512-3.69 3.528-3.69 3.51 1.476 3.51 3.69-1.494 3.69-3.51 3.69zm20.123-8.496c-1.71 0-3.06.774-3.744 1.998-.576-1.332-1.8-1.998-3.366-1.998-1.584 0-2.808.666-3.474 1.8v-1.728h-1.224V505h1.278v-4.968c0-2.16 1.242-3.42 3.168-3.42 1.728 0 2.736 1.026 2.736 3.024V505h1.278v-4.968c0-2.16 1.224-3.42 3.168-3.42 1.71 0 2.718 1.026 2.718 3.024V505h1.278v-5.49c0-2.718-1.512-4.05-3.816-4.05zm16.479 4.806c0-2.844-1.926-4.806-4.59-4.806-2.664 0-4.626 1.998-4.626 4.806s2.016 4.824 4.968 4.824c1.494 0 2.808-.54 3.654-1.548l-.72-.828c-.72.828-1.746 1.242-2.898 1.242-2.07 0-3.582-1.314-3.726-3.294h7.92c0-.144.018-.288.018-.396zm-4.59-3.708c1.854 0 3.204 1.296 3.366 3.15h-6.714c.162-1.854 1.512-3.15 3.348-3.15zm12.627 6.948c-.36.324-.882.486-1.404.486-1.062 0-1.638-.612-1.638-1.728v-5.652h2.88v-1.08h-2.88v-2.07h-1.278v2.07h-1.692v1.08h1.692v5.724c0 1.746.99 2.754 2.772 2.754.738 0 1.494-.216 1.998-.666l-.45-.918zm8.501-8.046c-1.602 0-2.844.63-3.546 1.728v-5.544h-1.278V505h1.278v-4.968c0-2.16 1.278-3.42 3.312-3.42 1.8 0 2.844 1.026 2.844 3.024V505h1.278v-5.49c0-2.718-1.584-4.05-3.888-4.05zm8.905-1.998c.54 0 .936-.414.936-.936 0-.486-.414-.882-.936-.882s-.936.414-.936.9c0 .504.414.918.936.918zM488.756 505h1.278v-9.468h-1.278V505zm10.558-9.54c-1.638 0-2.916.666-3.6 1.818v-1.746h-1.224V505h1.278v-4.968c0-2.16 1.278-3.42 3.312-3.42 1.8 0 2.844 1.026 2.844 3.024V505h1.278v-5.49c0-2.718-1.584-4.05-3.888-4.05zm15.835.072v1.818c-.792-1.242-2.16-1.89-3.744-1.89-2.7 0-4.752 1.854-4.752 4.572s2.052 4.608 4.752 4.608c1.548 0 2.898-.63 3.69-1.836v1.206c0 2.34-1.098 3.438-3.492 3.438-1.458 0-2.826-.486-3.726-1.296l-.648.972c.99.936 2.682 1.458 4.41 1.458 3.132 0 4.734-1.476 4.734-4.734v-8.316h-1.224zm-3.618 7.974c-2.088 0-3.582-1.422-3.582-3.474 0-2.052 1.494-3.456 3.582-3.456s3.6 1.404 3.6 3.456-1.512 3.474-3.6 3.474zm16.876-11.214c-4.968 0-8.406 3.348-8.406 8.136 0 4.77 3.384 8.172 8.334 8.172 1.206 0 2.682-.27 3.762-.828l-.306-.882c-1.044.54-2.376.792-3.456.792-4.374 0-7.344-2.988-7.344-7.254s3.006-7.218 7.416-7.218c4.356 0 7.398 2.808 7.398 7.038 0 2.43-.72 3.816-1.836 3.816-.612 0-1.116-.36-1.116-1.368v-6.822h-1.17v1.818c-.738-1.206-2.016-1.89-3.564-1.89-2.556 0-4.464 1.926-4.464 4.626 0 2.718 1.908 4.662 4.464 4.662 1.584 0 2.88-.72 3.6-1.962.072 1.242.864 1.962 2.034 1.962 1.854 0 2.988-1.8 2.988-4.86 0-4.716-3.456-7.938-8.334-7.938zm-.126 11.754c-1.998 0-3.438-1.458-3.438-3.618s1.44-3.582 3.438-3.582c1.944 0 3.42 1.404 3.42 3.582 0 2.196-1.476 3.618-3.42 3.618zm20.326-3.78c0-2.844-1.926-4.806-4.59-4.806-2.664 0-4.626 1.998-4.626 4.806s2.016 4.824 4.968 4.824c1.494 0 2.808-.54 3.654-1.548l-.72-.828c-.72.828-1.746 1.242-2.898 1.242-2.07 0-3.583-1.314-3.726-3.294h7.92c0-.144.018-.288.018-.396zm-4.59-3.708c1.854 0 3.204 1.296 3.366 3.15h-6.714c.162-1.854 1.512-3.15 3.348-3.15zM559.332 505l-3.78-4.86 3.564-4.608h-1.404l-2.844 3.708-2.844-3.708h-1.44l3.564 4.608-3.744 4.86h1.44l3.024-3.96 3.006 3.96h1.458zm6.164-9.54c-1.494 0-2.898.468-3.852 1.278l.576.954c.774-.684 1.926-1.116 3.15-1.116 1.764 0 2.682.882 2.682 2.502v.576h-3.006c-2.718 0-3.654 1.224-3.654 2.682 0 1.638 1.314 2.754 3.456 2.754 1.566 0 2.682-.594 3.258-1.566V505h1.224v-5.868c0-2.448-1.386-3.672-3.834-3.672zm-.45 8.622c-1.512 0-2.394-.684-2.394-1.782 0-.972.594-1.692 2.43-1.692h2.97v1.548c-.504 1.242-1.566 1.926-3.006 1.926zm20.463-8.622c-1.71 0-3.06.774-3.744 1.998-.576-1.332-1.8-1.998-3.366-1.998-1.584 0-2.808.666-3.474 1.8v-1.728h-1.224V505h1.278v-4.968c0-2.16 1.242-3.42 3.168-3.42 1.728 0 2.736 1.026 2.736 3.024V505h1.278v-4.968c0-2.16 1.224-3.42 3.168-3.42 1.71 0 2.718 1.026 2.718 3.024V505h1.278v-5.49c0-2.718-1.512-4.05-3.816-4.05zm13.06 0c-1.566 0-2.88.684-3.654 1.944v-1.872h-1.224v12.96h1.278v-5.274c.792 1.224 2.088 1.872 3.6 1.872 2.7 0 4.716-1.944 4.716-4.824 0-2.862-2.016-4.806-4.716-4.806zm-.09 8.496c-2.016 0-3.528-1.476-3.528-3.69 0-2.196 1.512-3.69 3.528-3.69 1.998 0 3.528 1.494 3.528 3.69 0 2.214-1.53 3.69-3.528 3.69zM606.79 505h1.278v-13.356h-1.278V505zm13.996-4.734c0-2.844-1.926-4.806-4.59-4.806-2.664 0-4.626 1.998-4.626 4.806s2.016 4.824 4.968 4.824c1.494 0 2.808-.54 3.654-1.548l-.72-.828c-.72.828-1.746 1.242-2.898 1.242-2.07 0-3.582-1.314-3.726-3.294h7.92c0-.144.018-.288.018-.396zm-4.59-3.708c1.854 0 3.204 1.296 3.366 3.15h-6.714c.162-1.854 1.512-3.15 3.348-3.15zm8.217 8.532a.983.983 0 00.972-.99.968.968 0 00-.972-.972.953.953 0 00-.954.972c0 .558.432.99.954.99zm8.249 0c1.602 0 2.952-.648 3.708-1.872l-.954-.648c-.648.954-1.656 1.386-2.754 1.386-2.07 0-3.582-1.458-3.582-3.69 0-2.214 1.512-3.69 3.582-3.69 1.098 0 2.106.45 2.754 1.404l.954-.648c-.756-1.242-2.106-1.872-3.708-1.872-2.826 0-4.878 1.98-4.878 4.806s2.052 4.824 4.878 4.824zm10.83 0c2.772 0 4.806-2.016 4.806-4.824s-2.034-4.806-4.806-4.806c-2.772 0-4.824 1.998-4.824 4.806s2.052 4.824 4.824 4.824zm0-1.134c-2.016 0-3.528-1.476-3.528-3.69s1.512-3.69 3.528-3.69 3.51 1.476 3.51 3.69-1.494 3.69-3.51 3.69zm20.123-8.496c-1.71 0-3.06.774-3.744 1.998-.576-1.332-1.8-1.998-3.366-1.998-1.584 0-2.808.666-3.474 1.8v-1.728h-1.224V505h1.278v-4.968c0-2.16 1.242-3.42 3.168-3.42 1.728 0 2.736 1.026 2.736 3.024V505h1.278v-4.968c0-2.16 1.224-3.42 3.168-3.42 1.71 0 2.718 1.026 2.718 3.024V505h1.278v-5.49c0-2.718-1.512-4.05-3.816-4.05z" fill="#878484"/><path d="M420.024 552.2c2.144 0 3.824.512 5.04 1.536 1.216 1.024 1.824 2.432 1.824 4.224 0 1.792-.608 3.2-1.824 4.224-1.216 1.008-2.896 1.512-5.04 1.512h-4.512V569h-1.776v-16.8h6.288zm-.048 9.936c1.664 0 2.936-.36 3.816-1.08.88-.736 1.32-1.768 1.32-3.096 0-1.36-.44-2.4-1.32-3.12-.88-.736-2.152-1.104-3.816-1.104h-4.464v8.4h4.464zm15.891-5.856c1.648 0 2.912.416 3.792 1.248.88.816 1.32 2.032 1.32 3.648V569h-1.632v-1.968c-.384.656-.952 1.168-1.704 1.536-.736.368-1.616.552-2.64.552-1.408 0-2.528-.336-3.36-1.008-.832-.672-1.248-1.56-1.248-2.664 0-1.072.384-1.936 1.152-2.592.784-.656 2.024-.984 3.72-.984h4.008v-.768c0-1.088-.304-1.912-.912-2.472-.608-.576-1.496-.864-2.664-.864-.8 0-1.568.136-2.304.408a5.644 5.644 0 00-1.896 1.08l-.768-1.272c.64-.544 1.408-.96 2.304-1.248a8.754 8.754 0 012.832-.456zm-.6 11.496c.96 0 1.784-.216 2.472-.648.688-.448 1.2-1.088 1.536-1.92v-2.064h-3.96c-2.16 0-3.24.752-3.24 2.256 0 .736.28 1.32.84 1.752.56.416 1.344.624 2.352.624zm14.924 1.344a10.06 10.06 0 01-2.952-.432c-.928-.304-1.656-.68-2.184-1.128l.768-1.344c.528.416 1.192.76 1.992 1.032a8.14 8.14 0 002.496.384c1.152 0 2-.176 2.544-.528.56-.368.84-.88.84-1.536 0-.464-.152-.824-.456-1.08-.304-.272-.688-.472-1.152-.6-.464-.144-1.08-.28-1.848-.408-1.024-.192-1.848-.384-2.472-.576a3.817 3.817 0 01-1.608-1.032c-.432-.48-.648-1.144-.648-1.992 0-1.056.44-1.92 1.32-2.592.88-.672 2.104-1.008 3.672-1.008.816 0 1.632.112 2.448.336.816.208 1.488.488 2.016.84l-.744 1.368c-1.04-.72-2.28-1.08-3.72-1.08-1.088 0-1.912.192-2.472.576-.544.384-.816.888-.816 1.512 0 .48.152.864.456 1.152.32.288.712.504 1.176.648.464.128 1.104.264 1.92.408 1.008.192 1.816.384 2.424.576.608.192 1.128.52 1.56.984.432.464.648 1.104.648 1.92 0 1.104-.464 1.984-1.392 2.64-.912.64-2.184.96-3.816.96zm12.942 0a10.06 10.06 0 01-2.952-.432c-.928-.304-1.656-.68-2.184-1.128l.768-1.344c.528.416 1.192.76 1.992 1.032a8.14 8.14 0 002.496.384c1.152 0 2-.176 2.544-.528.56-.368.84-.88.84-1.536 0-.464-.152-.824-.456-1.08-.304-.272-.688-.472-1.152-.6-.464-.144-1.08-.28-1.848-.408-1.024-.192-1.848-.384-2.472-.576a3.817 3.817 0 01-1.608-1.032c-.432-.48-.648-1.144-.648-1.992 0-1.056.44-1.92 1.32-2.592.88-.672 2.104-1.008 3.672-1.008.816 0 1.632.112 2.448.336.816.208 1.488.488 2.016.84l-.744 1.368c-1.04-.72-2.28-1.08-3.72-1.08-1.088 0-1.912.192-2.472.576-.544.384-.816.888-.816 1.512 0 .48.152.864.456 1.152.32.288.712.504 1.176.648.464.128 1.104.264 1.92.408 1.008.192 1.816.384 2.424.576.608.192 1.128.52 1.56.984.432.464.648 1.104.648 1.92 0 1.104-.464 1.984-1.392 2.64-.912.64-2.184.96-3.816.96zm27.852-12.744L486.209 569h-1.608l-3.984-10.344L476.633 569h-1.608l-4.752-12.624h1.632l3.96 10.728 4.056-10.728h1.464l4.032 10.728 4.008-10.728h1.56zm8.574 12.744c-1.216 0-2.312-.272-3.288-.816a6.126 6.126 0 01-2.304-2.304c-.56-.976-.84-2.08-.84-3.312 0-1.232.28-2.336.84-3.312a5.953 5.953 0 012.304-2.28c.976-.544 2.072-.816 3.288-.816 1.216 0 2.312.272 3.288.816a5.787 5.787 0 012.28 2.28c.56.976.84 2.08.84 3.312 0 1.232-.28 2.336-.84 3.312a5.953 5.953 0 01-2.28 2.304c-.976.544-2.072.816-3.288.816zm0-1.512c.896 0 1.696-.2 2.4-.6.72-.416 1.28-1 1.68-1.752.4-.752.6-1.608.6-2.568s-.2-1.816-.6-2.568a4.166 4.166 0 00-1.68-1.728c-.704-.416-1.504-.624-2.4-.624-.896 0-1.704.208-2.424.624-.704.4-1.264.976-1.68 1.728-.4.752-.6 1.608-.6 2.568s.2 1.816.6 2.568a4.541 4.541 0 001.68 1.752c.72.4 1.528.6 2.424.6zm12.719-8.76c.4-.848.992-1.488 1.776-1.92.8-.432 1.784-.648 2.952-.648v1.656l-.408-.024c-1.328 0-2.368.408-3.12 1.224-.752.816-1.128 1.96-1.128 3.432V569h-1.704v-12.624h1.632v2.472zm20.416-7.656V569h-1.632v-2.496a5.174 5.174 0 01-2.04 1.944c-.832.448-1.776.672-2.832.672-1.184 0-2.256-.272-3.216-.816a5.832 5.832 0 01-2.256-2.28c-.544-.976-.816-2.088-.816-3.336 0-1.248.272-2.36.816-3.336a5.668 5.668 0 012.256-2.256c.96-.544 2.032-.816 3.216-.816 1.024 0 1.944.216 2.76.648a5.139 5.139 0 012.04 1.848v-7.584h1.704zm-6.36 16.416c.88 0 1.672-.2 2.376-.6.72-.416 1.28-1 1.68-1.752.416-.752.624-1.608.624-2.568s-.208-1.816-.624-2.568a4.166 4.166 0 00-1.68-1.728c-.704-.416-1.496-.624-2.376-.624-.896 0-1.704.208-2.424.624-.704.4-1.264.976-1.68 1.728-.4.752-.6 1.608-.6 2.568s.2 1.816.6 2.568a4.541 4.541 0 001.68 1.752c.72.4 1.528.6 2.424.6z" fill="#363232"/><path d="M491.768 601.4c1.608 0 2.868.384 3.78 1.152.912.768 1.368 1.824 1.368 3.168s-.456 2.4-1.368 3.168c-.912.756-2.172 1.134-3.78 1.134h-3.384V614h-1.332v-12.6h4.716zm-.036 7.452c1.248 0 2.202-.27 2.862-.81.66-.552.99-1.326.99-2.322 0-1.02-.33-1.8-.99-2.34-.66-.552-1.614-.828-2.862-.828h-3.348v6.3h3.348zm11.918-4.392c1.236 0 2.184.312 2.844.936.66.612.99 1.524.99 2.736V614h-1.224v-1.476c-.288.492-.714.876-1.278 1.152-.552.276-1.212.414-1.98.414-1.056 0-1.896-.252-2.52-.756-.624-.504-.936-1.17-.936-1.998 0-.804.288-1.452.864-1.944.588-.492 1.518-.738 2.79-.738h3.006v-.576c0-.816-.228-1.434-.684-1.854-.456-.432-1.122-.648-1.998-.648-.6 0-1.176.102-1.728.306a4.233 4.233 0 00-1.422.81l-.576-.954a4.99 4.99 0 011.728-.936 6.566 6.566 0 012.124-.342zm-.45 8.622c.72 0 1.338-.162 1.854-.486.516-.336.9-.816 1.152-1.44v-1.548h-2.97c-1.62 0-2.43.564-2.43 1.692 0 .552.21.99.63 1.314.42.312 1.008.468 1.764.468zm11.193 1.008a7.545 7.545 0 01-2.214-.324c-.696-.228-1.242-.51-1.638-.846l.576-1.008c.396.312.894.57 1.494.774.6.192 1.224.288 1.872.288.864 0 1.5-.132 1.908-.396.42-.276.63-.66.63-1.152 0-.348-.114-.618-.342-.81a2.116 2.116 0 00-.864-.45c-.348-.108-.81-.21-1.386-.306a17.522 17.522 0 01-1.854-.432 2.863 2.863 0 01-1.206-.774c-.324-.36-.486-.858-.486-1.494 0-.792.33-1.44.99-1.944.66-.504 1.578-.756 2.754-.756.612 0 1.224.084 1.836.252.612.156 1.116.366 1.512.63l-.558 1.026c-.78-.54-1.71-.81-2.79-.81-.816 0-1.434.144-1.854.432-.408.288-.612.666-.612 1.134 0 .36.114.648.342.864.24.216.534.378.882.486.348.096.828.198 1.44.306.756.144 1.362.288 1.818.432.456.144.846.39 1.17.738.324.348.486.828.486 1.44 0 .828-.348 1.488-1.044 1.98-.684.48-1.638.72-2.862.72zm9.707 0a7.545 7.545 0 01-2.214-.324c-.696-.228-1.242-.51-1.638-.846l.576-1.008c.396.312.894.57 1.494.774.6.192 1.224.288 1.872.288.864 0 1.5-.132 1.908-.396.42-.276.63-.66.63-1.152 0-.348-.114-.618-.342-.81a2.116 2.116 0 00-.864-.45c-.348-.108-.81-.21-1.386-.306a17.522 17.522 0 01-1.854-.432 2.863 2.863 0 01-1.206-.774c-.324-.36-.486-.858-.486-1.494 0-.792.33-1.44.99-1.944.66-.504 1.578-.756 2.754-.756.612 0 1.224.084 1.836.252.612.156 1.116.366 1.512.63l-.558 1.026c-.78-.54-1.71-.81-2.79-.81-.816 0-1.434.144-1.854.432-.408.288-.612.666-.612 1.134 0 .36.114.648.342.864.24.216.534.378.882.486.348.096.828.198 1.44.306.756.144 1.362.288 1.818.432.456.144.846.39 1.17.738.324.348.486.828.486 1.44 0 .828-.348 1.488-1.044 1.98-.684.48-1.638.72-2.862.72zm20.889-9.558L541.407 614h-1.206l-2.988-7.758-2.988 7.758h-1.206l-3.564-9.468h1.224l2.97 8.046 3.042-8.046h1.098l3.024 8.046 3.006-8.046h1.17zm6.431 9.558c-.912 0-1.734-.204-2.466-.612a4.594 4.594 0 01-1.728-1.728c-.42-.732-.63-1.56-.63-2.484 0-.924.21-1.752.63-2.484a4.465 4.465 0 011.728-1.71c.732-.408 1.554-.612 2.466-.612.912 0 1.734.204 2.466.612a4.34 4.34 0 011.71 1.71c.42.732.63 1.56.63 2.484 0 .924-.21 1.752-.63 2.484a4.465 4.465 0 01-1.71 1.728c-.732.408-1.554.612-2.466.612zm0-1.134c.672 0 1.272-.15 1.8-.45.54-.312.96-.75 1.26-1.314.3-.564.45-1.206.45-1.926s-.15-1.362-.45-1.926c-.3-.564-.72-.996-1.26-1.296-.528-.312-1.128-.468-1.8-.468-.672 0-1.278.156-1.818.468-.528.3-.948.732-1.26 1.296-.3.564-.45 1.206-.45 1.926s.15 1.362.45 1.926a3.406 3.406 0 001.26 1.314c.54.3 1.146.45 1.818.45zm9.539-6.57c.3-.636.744-1.116 1.332-1.44.6-.324 1.338-.486 2.214-.486v1.242l-.306-.018c-.996 0-1.776.306-2.34.918-.564.612-.846 1.47-.846 2.574V614h-1.278v-9.468h1.224v1.854zm15.312-5.742V614h-1.224v-1.872a3.88 3.88 0 01-1.53 1.458c-.624.336-1.332.504-2.124.504-.888 0-1.692-.204-2.412-.612a4.374 4.374 0 01-1.692-1.71c-.408-.732-.612-1.566-.612-2.502 0-.936.204-1.77.612-2.502a4.251 4.251 0 011.692-1.692c.72-.408 1.524-.612 2.412-.612.768 0 1.458.162 2.07.486a3.854 3.854 0 011.53 1.386v-5.688h1.278zm-4.77 12.312c.66 0 1.254-.15 1.782-.45.54-.312.96-.75 1.26-1.314.312-.564.468-1.206.468-1.926s-.156-1.362-.468-1.926c-.3-.564-.72-.996-1.26-1.296a3.436 3.436 0 00-1.782-.468c-.672 0-1.278.156-1.818.468-.528.3-.948.732-1.26 1.296-.3.564-.45 1.206-.45 1.926s.15 1.362.45 1.926a3.406 3.406 0 001.26 1.314c.54.3 1.146.45 1.818.45z" fill="#878484"/><path d="M486.512 352.4h6.24v28.32h17.568V386h-23.808v-33.6zm41.844 33.936c-2.592 0-4.928-.56-7.008-1.68-2.08-1.12-3.712-2.672-4.896-4.656-1.152-2.016-1.728-4.288-1.728-6.816 0-2.528.576-4.784 1.728-6.768 1.184-1.984 2.816-3.536 4.896-4.656 2.08-1.12 4.416-1.68 7.008-1.68 2.624 0 4.976.56 7.056 1.68 2.08 1.12 3.696 2.672 4.848 4.656 1.184 1.984 1.776 4.24 1.776 6.768 0 2.528-.592 4.8-1.776 6.816-1.152 1.984-2.768 3.536-4.848 4.656-2.08 1.12-4.432 1.68-7.056 1.68zm0-5.136c2.208 0 4.032-.736 5.472-2.208 1.44-1.472 2.16-3.408 2.16-5.808s-.72-4.336-2.16-5.808c-1.44-1.472-3.264-2.208-5.472-2.208-2.208 0-4.032.736-5.472 2.208-1.408 1.472-2.112 3.408-2.112 5.808s.704 4.336 2.112 5.808c1.44 1.472 3.264 2.208 5.472 2.208zm47.258-20.832v21.744c0 9.024-4.608 13.536-13.824 13.536-2.464 0-4.8-.32-7.008-.96-2.208-.608-4.032-1.504-5.472-2.688l2.688-4.512c1.12.928 2.528 1.664 4.224 2.208a16.45 16.45 0 005.232.864c2.816 0 4.88-.64 6.192-1.92 1.312-1.28 1.968-3.232 1.968-5.856v-1.344c-1.024 1.12-2.272 1.968-3.744 2.544-1.472.576-3.088.864-4.848.864-2.432 0-4.64-.512-6.624-1.536a12.11 12.11 0 01-4.656-4.416c-1.12-1.888-1.68-4.048-1.68-6.48 0-2.432.56-4.576 1.68-6.432a11.759 11.759 0 014.656-4.368c1.984-1.024 4.192-1.536 6.624-1.536 1.856 0 3.536.304 5.04.912a9.313 9.313 0 013.84 2.784v-3.408h5.712zm-13.68 19.392c2.272 0 4.128-.672 5.568-2.016 1.472-1.376 2.208-3.152 2.208-5.328 0-2.144-.736-3.888-2.208-5.232-1.44-1.344-3.296-2.016-5.568-2.016-2.304 0-4.192.672-5.664 2.016-1.44 1.344-2.16 3.088-2.16 5.232 0 2.176.72 3.952 2.16 5.328 1.472 1.344 3.36 2.016 5.664 2.016zm23.968-19.392h6V386h-6v-25.632zm3.024-4.224c-1.088 0-2-.336-2.736-1.008-.736-.704-1.104-1.568-1.104-2.592s.368-1.872 1.104-2.544c.736-.704 1.648-1.056 2.736-1.056 1.088 0 2 .336 2.736 1.008.736.64 1.104 1.456 1.104 2.448 0 1.056-.368 1.952-1.104 2.688-.704.704-1.616 1.056-2.736 1.056zm27.795 3.936c3.232 0 5.824.944 7.776 2.832s2.928 4.688 2.928 8.4V386h-6v-13.92c0-2.24-.528-3.92-1.584-5.04-1.056-1.152-2.56-1.728-4.512-1.728-2.208 0-3.952.672-5.232 2.016-1.28 1.312-1.92 3.216-1.92 5.712V386h-6v-25.632h5.712v3.312c.992-1.184 2.24-2.08 3.744-2.688 1.504-.608 3.2-.912 5.088-.912z" fill="#150101"/><path d="M427.616 461.464V463h-11.88v-16.8h11.52v1.536h-9.744v5.976h8.688v1.512h-8.688v6.24h10.104zm20.759-11.184c1.584 0 2.824.456 3.72 1.368.912.912 1.368 2.256 1.368 4.032V463h-1.704v-7.152c0-1.312-.32-2.312-.96-3-.624-.688-1.512-1.032-2.664-1.032-1.312 0-2.344.408-3.096 1.224-.752.8-1.128 1.912-1.128 3.336V463h-1.704v-7.152c0-1.312-.32-2.312-.96-3-.624-.688-1.52-1.032-2.688-1.032-1.296 0-2.328.408-3.096 1.224-.752.8-1.128 1.912-1.128 3.336V463h-1.704v-12.624h1.632v2.304a4.553 4.553 0 011.872-1.776c.8-.416 1.72-.624 2.76-.624 1.056 0 1.968.224 2.736.672.784.448 1.368 1.112 1.752 1.992a4.86 4.86 0 011.992-1.944c.88-.48 1.88-.72 3-.72zm15.325 0c1.648 0 2.912.416 3.792 1.248.88.816 1.32 2.032 1.32 3.648V463h-1.632v-1.968c-.384.656-.952 1.168-1.704 1.536-.736.368-1.616.552-2.64.552-1.408 0-2.528-.336-3.36-1.008-.832-.672-1.248-1.56-1.248-2.664 0-1.072.384-1.936 1.152-2.592.784-.656 2.024-.984 3.72-.984h4.008v-.768c0-1.088-.304-1.912-.912-2.472-.608-.576-1.496-.864-2.664-.864-.8 0-1.568.136-2.304.408a5.644 5.644 0 00-1.896 1.08l-.768-1.272c.64-.544 1.408-.96 2.304-1.248a8.754 8.754 0 012.832-.456zm-.6 11.496c.96 0 1.784-.216 2.472-.648.688-.448 1.2-1.088 1.536-1.92v-2.064h-3.96c-2.16 0-3.24.752-3.24 2.256 0 .736.28 1.32.84 1.752.56.416 1.344.624 2.352.624zm11.54-11.4h1.704V463h-1.704v-12.624zm.864-2.76c-.352 0-.648-.12-.888-.36s-.36-.528-.36-.864c0-.32.12-.6.36-.84s.536-.36.888-.36.648.12.888.36c.24.224.36.496.36.816 0 .352-.12.648-.36.888s-.536.36-.888.36zm6.781-2.424h1.704V463h-1.704v-17.808z" fill="#363232"/><path d="M524.692 710.4h2.34v10.62h6.588V723h-8.928v-12.6zm15.692 12.726c-.973 0-1.849-.21-2.629-.63a4.676 4.676 0 01-1.836-1.746c-.432-.756-.648-1.608-.648-2.556s.216-1.794.648-2.538a4.676 4.676 0 011.836-1.746c.78-.42 1.656-.63 2.629-.63.983 0 1.865.21 2.645.63a4.546 4.546 0 011.819 1.746c.444.744.666 1.59.666 2.538 0 .948-.222 1.8-.666 2.556a4.546 4.546 0 01-1.819 1.746c-.78.42-1.662.63-2.645.63zm0-1.926c.828 0 1.512-.276 2.051-.828.541-.552.811-1.278.811-2.178 0-.9-.27-1.626-.811-2.178-.539-.552-1.223-.828-2.051-.828-.828 0-1.513.276-2.053.828-.528.552-.792 1.278-.792 2.178 0 .9.264 1.626.792 2.178.54.552 1.225.828 2.053.828zm17.721-7.812v8.154c0 3.384-1.728 5.076-5.184 5.076-.924 0-1.8-.12-2.628-.36-.828-.228-1.512-.564-2.052-1.008l1.008-1.692c.42.348.948.624 1.584.828a6.169 6.169 0 001.962.324c1.056 0 1.83-.24 2.322-.72s.738-1.212.738-2.196v-.504c-.384.42-.852.738-1.404.954a4.948 4.948 0 01-1.818.324c-.912 0-1.74-.192-2.484-.576a4.54 4.54 0 01-1.746-1.656c-.42-.708-.63-1.518-.63-2.43 0-.912.21-1.716.63-2.412a4.41 4.41 0 011.746-1.638c.744-.384 1.572-.576 2.484-.576.696 0 1.326.114 1.89.342a3.492 3.492 0 011.44 1.044v-1.278h2.142zm-5.13 7.272c.852 0 1.548-.252 2.088-.756.552-.516.828-1.182.828-1.998 0-.804-.276-1.458-.828-1.962-.54-.504-1.236-.756-2.088-.756-.864 0-1.572.252-2.124.756-.54.504-.81 1.158-.81 1.962 0 .816.27 1.482.81 1.998.552.504 1.26.756 2.124.756zm8.988-7.272h2.25V723h-2.25v-9.612zm1.134-1.584c-.408 0-.75-.126-1.026-.378a1.293 1.293 0 01-.414-.972c0-.384.138-.702.414-.954a1.427 1.427 0 011.026-.396c.408 0 .75.126 1.026.378.276.24.414.546.414.918 0 .396-.138.732-.414 1.008-.264.264-.606.396-1.026.396zm10.423 1.476c1.212 0 2.184.354 2.916 1.062.732.708 1.098 1.758 1.098 3.15V723h-2.25v-5.22c0-.84-.198-1.47-.594-1.89-.396-.432-.96-.648-1.692-.648-.828 0-1.482.252-1.962.756-.48.492-.72 1.206-.72 2.142V723h-2.25v-9.612h2.142v1.242c.372-.444.84-.78 1.404-1.008.564-.228 1.2-.342 1.908-.342z" fill="#fff"/><path d="M540.136 647.726v2.982h4.732v1.54h-4.732V656h-1.82v-9.8h7.154v1.526h-5.334zm10.781 8.372c-.756 0-1.437-.163-2.044-.49a3.632 3.632 0 01-1.428-1.358c-.336-.588-.504-1.251-.504-1.988 0-.737.168-1.395.504-1.974a3.632 3.632 0 011.428-1.358c.607-.327 1.288-.49 2.044-.49.765 0 1.451.163 2.058.49a3.537 3.537 0 011.414 1.358c.345.579.518 1.237.518 1.974 0 .737-.173 1.4-.518 1.988a3.537 3.537 0 01-1.414 1.358c-.607.327-1.293.49-2.058.49zm0-1.498c.644 0 1.176-.215 1.596-.644.42-.429.63-.994.63-1.694s-.21-1.265-.63-1.694c-.42-.429-.952-.644-1.596-.644-.644 0-1.176.215-1.596.644-.411.429-.616.994-.616 1.694s.205 1.265.616 1.694c.42.429.952.644 1.596.644zm8.029-4.984c.504-.784 1.391-1.176 2.66-1.176v1.666a2.213 2.213 0 00-.406-.042c-.681 0-1.213.201-1.596.602-.382.392-.574.961-.574 1.708V656h-1.75v-7.476h1.666v1.092zm12.197-1.092v6.342c0 2.632-1.344 3.948-4.032 3.948-.719 0-1.4-.093-2.044-.28-.644-.177-1.176-.439-1.596-.784l.784-1.316c.326.271.737.485 1.232.644a4.795 4.795 0 001.526.252c.821 0 1.423-.187 1.806-.56.382-.373.574-.943.574-1.708v-.392a2.878 2.878 0 01-1.092.742c-.43.168-.901.252-1.414.252-.71 0-1.354-.149-1.932-.448a3.525 3.525 0 01-1.358-1.288c-.327-.551-.49-1.181-.49-1.89 0-.709.163-1.335.49-1.876a3.425 3.425 0 011.358-1.274 4.141 4.141 0 011.932-.448 3.9 3.9 0 011.47.266c.448.177.821.448 1.12.812v-.994h1.666zm-3.99 5.656c.662 0 1.204-.196 1.624-.588.429-.401.644-.919.644-1.554 0-.625-.215-1.134-.644-1.526-.42-.392-.962-.588-1.624-.588-.672 0-1.223.196-1.652.588-.42.392-.63.901-.63 1.526 0 .635.21 1.153.63 1.554.429.392.98.588 1.652.588zm10.35 1.918c-.756 0-1.437-.163-2.044-.49a3.646 3.646 0 01-1.428-1.358c-.336-.588-.504-1.251-.504-1.988 0-.737.168-1.395.504-1.974a3.646 3.646 0 011.428-1.358c.607-.327 1.288-.49 2.044-.49.766 0 1.452.163 2.058.49a3.537 3.537 0 011.414 1.358c.346.579.518 1.237.518 1.974 0 .737-.172 1.4-.518 1.988a3.537 3.537 0 01-1.414 1.358c-.606.327-1.292.49-2.058.49zm0-1.498c.644 0 1.176-.215 1.596-.644.42-.429.63-.994.63-1.694s-.21-1.265-.63-1.694c-.42-.429-.952-.644-1.596-.644-.644 0-1.176.215-1.596.644-.41.429-.616.994-.616 1.694s.206 1.265.616 1.694c.42.429.952.644 1.596.644zm10.858.994a2.067 2.067 0 01-.756.378c-.29.084-.598.126-.924.126-.822 0-1.456-.215-1.904-.644-.448-.429-.672-1.055-.672-1.876v-3.598h-1.232v-1.4h1.232v-1.708h1.75v1.708h2.002v1.4h-2.002v3.556c0 .364.088.644.266.84.177.187.434.28.77.28.392 0 .718-.103.98-.308l.49 1.246zm10.908-9.394c.85 0 1.587.14 2.212.42.635.28 1.12.681 1.456 1.204.336.523.504 1.143.504 1.862 0 .709-.168 1.33-.504 1.862-.336.523-.821.924-1.456 1.204-.625.28-1.362.42-2.212.42h-2.212V656h-1.82v-9.8h4.032zm-.084 5.432c.794 0 1.396-.168 1.806-.504.411-.336.616-.817.616-1.442s-.205-1.106-.616-1.442c-.41-.336-1.012-.504-1.806-.504h-2.128v3.892h2.128zm9.394-3.192c1.101 0 1.941.266 2.52.798.588.523.882 1.316.882 2.38V656h-1.652v-.91a2.073 2.073 0 01-.924.756c-.392.168-.868.252-1.428.252-.56 0-1.05-.093-1.47-.28a2.39 2.39 0 01-.98-.798 2.09 2.09 0 01-.336-1.162c0-.672.247-1.209.742-1.61.504-.411 1.292-.616 2.366-.616h1.932v-.112c0-.523-.159-.924-.476-1.204-.308-.28-.77-.42-1.386-.42-.42 0-.836.065-1.246.196a3.058 3.058 0 00-1.022.546l-.686-1.274a4.245 4.245 0 011.414-.686 6.276 6.276 0 011.75-.238zm-.238 6.384c.438 0 .826-.098 1.162-.294.345-.205.588-.495.728-.868v-.868h-1.806c-1.008 0-1.512.331-1.512.994 0 .317.126.569.378.756.252.187.602.28 1.05.28zm8.896 1.274c-.607 0-1.2-.079-1.778-.238-.579-.159-1.041-.359-1.386-.602l.672-1.33c.336.224.737.406 1.204.546.476.131.942.196 1.4.196 1.045 0 1.568-.275 1.568-.826 0-.261-.136-.443-.406-.546-.262-.103-.686-.201-1.274-.294a10.658 10.658 0 01-1.512-.322 2.383 2.383 0 01-1.008-.63c-.28-.308-.42-.733-.42-1.274 0-.709.294-1.274.882-1.694.597-.429 1.4-.644 2.408-.644a6.7 6.7 0 011.54.182c.513.112.933.266 1.26.462l-.672 1.33c-.635-.373-1.349-.56-2.142-.56-.514 0-.906.079-1.176.238-.262.149-.392.35-.392.602 0 .28.14.481.42.602.289.112.732.219 1.33.322.597.093 1.087.201 1.47.322.382.121.709.327.98.616.28.289.42.7.42 1.232 0 .7-.304 1.26-.91 1.68-.607.42-1.433.63-2.478.63zm7.905 0c-.607 0-1.2-.079-1.778-.238-.579-.159-1.041-.359-1.386-.602l.672-1.33c.336.224.737.406 1.204.546.476.131.942.196 1.4.196 1.045 0 1.568-.275 1.568-.826 0-.261-.136-.443-.406-.546-.262-.103-.686-.201-1.274-.294a10.658 10.658 0 01-1.512-.322 2.383 2.383 0 01-1.008-.63c-.28-.308-.42-.733-.42-1.274 0-.709.294-1.274.882-1.694.597-.429 1.4-.644 2.408-.644a6.7 6.7 0 011.54.182c.513.112.933.266 1.26.462l-.672 1.33c-.635-.373-1.349-.56-2.142-.56-.514 0-.906.079-1.176.238-.262.149-.392.35-.392.602 0 .28.14.481.42.602.289.112.732.219 1.33.322.597.093 1.087.201 1.47.322.382.121.709.327.98.616.28.289.42.7.42 1.232 0 .7-.304 1.26-.91 1.68-.607.42-1.433.63-2.478.63zm17.12-7.574L639.504 656h-1.68l-1.932-5.152-1.96 5.152h-1.68l-2.744-7.476h1.652l1.974 5.516 2.058-5.516h1.47l2.016 5.544 2.03-5.544h1.554zm5.058 7.574c-.756 0-1.437-.163-2.044-.49a3.632 3.632 0 01-1.428-1.358c-.336-.588-.504-1.251-.504-1.988 0-.737.168-1.395.504-1.974a3.632 3.632 0 011.428-1.358c.607-.327 1.288-.49 2.044-.49.765 0 1.451.163 2.058.49a3.537 3.537 0 011.414 1.358c.345.579.518 1.237.518 1.974 0 .737-.173 1.4-.518 1.988a3.537 3.537 0 01-1.414 1.358c-.607.327-1.293.49-2.058.49zm0-1.498c.644 0 1.176-.215 1.596-.644.42-.429.63-.994.63-1.694s-.21-1.265-.63-1.694c-.42-.429-.952-.644-1.596-.644-.644 0-1.176.215-1.596.644-.411.429-.616.994-.616 1.694s.205 1.265.616 1.694c.42.429.952.644 1.596.644zm8.03-4.984c.504-.784 1.39-1.176 2.66-1.176v1.666a2.23 2.23 0 00-.406-.042c-.682 0-1.214.201-1.596.602-.383.392-.574.961-.574 1.708V656h-1.75v-7.476h1.666v1.092zm12.098-4.004V656h-1.68v-.966c-.29.355-.649.621-1.078.798-.42.177-.887.266-1.4.266-.719 0-1.368-.159-1.946-.476a3.433 3.433 0 01-1.344-1.344c-.327-.588-.49-1.26-.49-2.016s.163-1.423.49-2.002a3.433 3.433 0 011.344-1.344c.578-.317 1.227-.476 1.946-.476.494 0 .947.084 1.358.252.41.168.76.42 1.05.756v-3.836h1.75zM663.5 654.6c.42 0 .798-.093 1.134-.28.336-.196.602-.471.798-.826.196-.355.294-.765.294-1.232 0-.467-.098-.877-.294-1.232a2.026 2.026 0 00-.798-.812 2.209 2.209 0 00-1.134-.294c-.42 0-.798.098-1.134.294a2.026 2.026 0 00-.798.812c-.196.355-.294.765-.294 1.232 0 .467.098.877.294 1.232.196.355.462.63.798.826.336.187.714.28 1.134.28zm13.466-1.848c0-.504.112-.919.336-1.246.234-.336.57-.7 1.008-1.092.336-.299.584-.555.742-.77.168-.224.252-.476.252-.756 0-.392-.158-.709-.476-.952-.317-.243-.742-.364-1.274-.364-1.008 0-1.768.359-2.282 1.078l-1.358-.882c.402-.551.92-.971 1.554-1.26.635-.299 1.382-.448 2.24-.448 1.046 0 1.876.229 2.492.686.626.448.938 1.069.938 1.862 0 .383-.065.719-.196 1.008a2.73 2.73 0 01-.448.742c-.177.196-.41.425-.7.686-.354.317-.62.597-.798.84a1.488 1.488 0 00-.252.868h-1.778zm.896 3.346a1.13 1.13 0 01-.812-.308 1.094 1.094 0 01-.308-.784c0-.308.103-.565.308-.77a1.13 1.13 0 01.812-.308c.318 0 .579.103.784.308.215.205.322.462.322.77s-.107.569-.322.784a1.062 1.062 0 01-.784.308z" fill="#FF003D"/><path d="M424.596 799.2h3.99c1.036 0 1.951.21 2.744.63a4.489 4.489 0 011.848 1.736c.439.737.658 1.582.658 2.534 0 .952-.219 1.801-.658 2.548a4.615 4.615 0 01-1.848 1.736c-.793.411-1.708.616-2.744.616h-3.99v-9.8zm3.934 8.904c.859 0 1.61-.168 2.254-.504a3.777 3.777 0 001.498-1.414c.355-.607.532-1.302.532-2.086 0-.784-.177-1.475-.532-2.072a3.65 3.65 0 00-1.498-1.414c-.644-.345-1.395-.518-2.254-.518h-2.898v8.008h2.898zm11.132.966a3.878 3.878 0 01-1.918-.476 3.583 3.583 0 01-1.344-1.344c-.326-.569-.49-1.213-.49-1.932 0-.719.164-1.363.49-1.932a3.477 3.477 0 011.344-1.33 3.878 3.878 0 011.918-.476c.71 0 1.349.159 1.918.476a3.37 3.37 0 011.33 1.33c.327.569.49 1.213.49 1.932 0 .719-.163 1.363-.49 1.932a3.47 3.47 0 01-1.33 1.344c-.569.317-1.208.476-1.918.476zm0-.882c.523 0 .99-.117 1.4-.35a2.52 2.52 0 00.98-1.022c.234-.439.35-.938.35-1.498s-.116-1.059-.35-1.498a2.424 2.424 0 00-.98-1.008 2.694 2.694 0 00-1.4-.364c-.522 0-.994.121-1.414.364a2.55 2.55 0 00-.98 1.008c-.233.439-.35.938-.35 1.498s.117 1.059.35 1.498c.243.439.57.779.98 1.022.42.233.892.35 1.414.35zm10.22-6.608c.924 0 1.656.271 2.198.812.55.532.826 1.311.826 2.338V809h-.994v-4.172c0-.765-.192-1.349-.574-1.75-.383-.401-.929-.602-1.638-.602-.794 0-1.424.238-1.89.714-.458.467-.686 1.115-.686 1.946V809h-.994v-7.364h.952v1.358c.27-.448.644-.793 1.12-1.036.485-.252 1.045-.378 1.68-.378zm10.3 6.972c-.186.168-.42.299-.7.392a2.86 2.86 0 01-.854.126c-.69 0-1.222-.187-1.596-.56-.373-.373-.56-.901-.56-1.582v-4.452h-1.316v-.84h1.316v-1.61h.994v1.61h2.24v.84h-2.24v4.396c0 .439.108.775.322 1.008.224.224.542.336.952.336.206 0 .402-.033.588-.098.196-.065.364-.159.504-.28l.35.714zm10.626-6.972c.924 0 1.657.271 2.198.812.551.532.826 1.311.826 2.338V809h-.994v-4.172c0-.765-.191-1.349-.574-1.75-.383-.401-.929-.602-1.638-.602-.793 0-1.423.238-1.89.714-.457.467-.686 1.115-.686 1.946V809h-.994v-10.388h.994v4.312a2.697 2.697 0 011.12-.994c.476-.233 1.022-.35 1.638-.35zm8.999 0c.961 0 1.698.243 2.212.728.513.476.77 1.185.77 2.128V809h-.952v-1.148a2.276 2.276 0 01-.994.896c-.43.215-.943.322-1.54.322-.822 0-1.475-.196-1.96-.588-.486-.392-.728-.91-.728-1.554 0-.625.224-1.129.672-1.512.457-.383 1.18-.574 2.17-.574h2.338v-.448c0-.635-.178-1.115-.532-1.442-.355-.336-.873-.504-1.554-.504-.467 0-.915.079-1.344.238-.43.149-.798.359-1.106.63l-.448-.742c.373-.317.821-.56 1.344-.728a5.111 5.111 0 011.652-.266zm-.35 6.706c.56 0 1.04-.126 1.442-.378.401-.261.7-.635.896-1.12v-1.204h-2.31c-1.26 0-1.89.439-1.89 1.316 0 .429.163.77.49 1.022.326.243.784.364 1.372.364zm12.783-6.65L488.964 809h-1.022l-3.262-7.364h1.036l2.758 6.272 2.786-6.272h.98zm8.306 3.99h-6.16c.056.765.35 1.386.882 1.862.532.467 1.204.7 2.016.7.458 0 .878-.079 1.26-.238.383-.168.714-.411.994-.728l.56.644a3.133 3.133 0 01-1.232.896 4.096 4.096 0 01-1.61.308c-.756 0-1.428-.159-2.016-.476a3.556 3.556 0 01-1.358-1.344c-.326-.569-.49-1.213-.49-1.932 0-.719.154-1.363.462-1.932a3.468 3.468 0 011.288-1.33 3.639 3.639 0 011.848-.476c.682 0 1.293.159 1.834.476.542.317.966.761 1.274 1.33.308.56.462 1.204.462 1.932l-.014.308zm-3.556-3.192c-.709 0-1.306.229-1.792.686-.476.448-.746 1.036-.812 1.764h5.222c-.065-.728-.34-1.316-.826-1.764-.476-.457-1.073-.686-1.792-.686zm13.234-.854c.961 0 1.698.243 2.212.728.513.476.77 1.185.77 2.128V809h-.952v-1.148a2.276 2.276 0 01-.994.896c-.43.215-.943.322-1.54.322-.822 0-1.475-.196-1.96-.588-.486-.392-.728-.91-.728-1.554 0-.625.224-1.129.672-1.512.457-.383 1.18-.574 2.17-.574h2.338v-.448c0-.635-.178-1.115-.532-1.442-.355-.336-.873-.504-1.554-.504-.467 0-.915.079-1.344.238-.43.149-.798.359-1.106.63l-.448-.742c.373-.317.821-.56 1.344-.728a5.111 5.111 0 011.652-.266zm-.35 6.706c.56 0 1.04-.126 1.442-.378.401-.261.7-.635.896-1.12v-1.204h-2.31c-1.26 0-1.89.439-1.89 1.316 0 .429.163.77.49 1.022.326.243.784.364 1.372.364zm9.811.784c-.728 0-1.381-.159-1.96-.476a3.477 3.477 0 01-1.344-1.33 3.885 3.885 0 01-.49-1.946c0-.719.163-1.363.49-1.932a3.477 3.477 0 011.344-1.33c.579-.317 1.232-.476 1.96-.476.635 0 1.199.126 1.694.378a2.77 2.77 0 011.19 1.078l-.742.504a2.27 2.27 0 00-.924-.812 2.679 2.679 0 00-1.218-.28c-.532 0-1.013.121-1.442.364-.42.233-.751.569-.994 1.008-.233.439-.35.938-.35 1.498 0 .569.117 1.073.35 1.512.243.429.574.765.994 1.008.429.233.91.35 1.442.35.439 0 .845-.089 1.218-.266a2.27 2.27 0 00.924-.812l.742.504a2.86 2.86 0 01-1.19 1.092 3.851 3.851 0 01-1.694.364zm8.466 0c-.728 0-1.382-.159-1.96-.476a3.463 3.463 0 01-1.344-1.33 3.885 3.885 0 01-.49-1.946c0-.719.163-1.363.49-1.932a3.463 3.463 0 011.344-1.33c.578-.317 1.232-.476 1.96-.476.634 0 1.199.126 1.694.378.504.243.9.602 1.19 1.078l-.742.504a2.27 2.27 0 00-.924-.812 2.685 2.685 0 00-1.218-.28c-.532 0-1.013.121-1.442.364-.42.233-.752.569-.994 1.008-.234.439-.35.938-.35 1.498 0 .569.116 1.073.35 1.512.242.429.574.765.994 1.008.429.233.91.35 1.442.35.438 0 .844-.089 1.218-.266a2.27 2.27 0 00.924-.812l.742.504c-.29.476-.686.84-1.19 1.092a3.851 3.851 0 01-1.694.364zm8.423 0c-.709 0-1.349-.159-1.918-.476a3.583 3.583 0 01-1.344-1.344c-.327-.569-.49-1.213-.49-1.932 0-.719.163-1.363.49-1.932a3.477 3.477 0 011.344-1.33c.569-.317 1.209-.476 1.918-.476.709 0 1.349.159 1.918.476a3.376 3.376 0 011.33 1.33c.327.569.49 1.213.49 1.932 0 .719-.163 1.363-.49 1.932a3.477 3.477 0 01-1.33 1.344c-.569.317-1.209.476-1.918.476zm0-.882c.523 0 .989-.117 1.4-.35a2.52 2.52 0 00.98-1.022c.233-.439.35-.938.35-1.498s-.117-1.059-.35-1.498a2.424 2.424 0 00-.98-1.008 2.696 2.696 0 00-1.4-.364 2.77 2.77 0 00-1.414.364 2.544 2.544 0 00-.98 1.008c-.233.439-.35.938-.35 1.498s.117 1.059.35 1.498c.243.439.569.779.98 1.022.42.233.891.35 1.414.35zm13.103-6.552V809h-.952v-1.344c-.261.448-.62.798-1.078 1.05-.457.243-.98.364-1.568.364-.961 0-1.722-.266-2.282-.798-.55-.541-.826-1.33-.826-2.366v-4.27h.994v4.172c0 .775.192 1.363.574 1.764.383.401.929.602 1.638.602.775 0 1.386-.233 1.834-.7.448-.476.672-1.134.672-1.974v-3.864h.994zm7.236-.056c.924 0 1.657.271 2.198.812.551.532.826 1.311.826 2.338V809h-.994v-4.172c0-.765-.191-1.349-.574-1.75-.382-.401-.928-.602-1.638-.602-.793 0-1.423.238-1.89.714-.457.467-.686 1.115-.686 1.946V809h-.994v-7.364h.952v1.358a2.733 2.733 0 011.12-1.036c.486-.252 1.046-.378 1.68-.378zm10.301 6.972c-.187.168-.42.299-.7.392a2.865 2.865 0 01-.854.126c-.691 0-1.223-.187-1.596-.56-.373-.373-.56-.901-.56-1.582v-4.452h-1.316v-.84h1.316v-1.61h.994v1.61h2.24v.84h-2.24v4.396c0 .439.107.775.322 1.008.224.224.541.336.952.336.205 0 .401-.033.588-.098.196-.065.364-.159.504-.28l.35.714zm8.778-2.492c0-.383.06-.719.182-1.008a2.79 2.79 0 01.476-.742c.186-.205.429-.439.728-.7.401-.355.695-.663.882-.924.196-.271.294-.597.294-.98 0-.513-.201-.924-.602-1.232-.402-.317-.952-.476-1.652-.476-1.158 0-2.049.378-2.674 1.134l-.742-.56c.793-.971 1.955-1.456 3.486-1.456.98 0 1.759.219 2.338.658.588.439.882 1.031.882 1.778 0 .383-.066.723-.196 1.022a2.595 2.595 0 01-.462.742 8.823 8.823 0 01-.714.714c-.402.364-.7.691-.896.98-.196.28-.294.63-.294 1.05h-1.036zm.518 3.01a.703.703 0 01-.518-.21.734.734 0 01-.21-.518.66.66 0 01.21-.504c.14-.14.312-.21.518-.21.214 0 .392.07.532.21a.66.66 0 01.21.504.712.712 0 01-.224.518.704.704 0 01-.518.21zm80.271-7.49c.924 0 1.657.271 2.198.812.551.532.826 1.311.826 2.338V809h-.994v-4.172c0-.765-.191-1.349-.574-1.75-.383-.401-.929-.602-1.638-.602-.793 0-1.423.238-1.89.714-.457.467-.686 1.115-.686 1.946V809h-.994v-10.388h.994v4.312a2.697 2.697 0 011.12-.994c.476-.233 1.022-.35 1.638-.35zm12.862 4.046h-6.16c.056.765.35 1.386.882 1.862.532.467 1.204.7 2.016.7.457 0 .877-.079 1.26-.238.383-.168.714-.411.994-.728l.56.644a3.14 3.14 0 01-1.232.896 4.096 4.096 0 01-1.61.308c-.756 0-1.428-.159-2.016-.476a3.55 3.55 0 01-1.358-1.344c-.327-.569-.49-1.213-.49-1.932 0-.719.154-1.363.462-1.932a3.461 3.461 0 011.288-1.33 3.639 3.639 0 011.848-.476c.681 0 1.293.159 1.834.476.541.317.966.761 1.274 1.33.308.56.462 1.204.462 1.932l-.014.308zm-3.556-3.192c-.709 0-1.307.229-1.792.686-.476.448-.747 1.036-.812 1.764h5.222c-.065-.728-.341-1.316-.826-1.764-.476-.457-1.073-.686-1.792-.686zm7.245.644a2.417 2.417 0 011.036-1.12c.467-.252 1.041-.378 1.722-.378v.966l-.238-.014c-.775 0-1.381.238-1.82.714-.439.476-.658 1.143-.658 2.002V809h-.994v-7.364h.952v1.442zm11.602 2.548h-6.16c.056.765.35 1.386.882 1.862.532.467 1.204.7 2.016.7.457 0 .877-.079 1.26-.238.382-.168.714-.411.994-.728l.56.644a3.147 3.147 0 01-1.232.896 4.1 4.1 0 01-1.61.308c-.756 0-1.428-.159-2.016-.476a3.543 3.543 0 01-1.358-1.344c-.327-.569-.49-1.213-.49-1.932 0-.719.154-1.363.462-1.932a3.454 3.454 0 011.288-1.33 3.634 3.634 0 011.848-.476c.681 0 1.292.159 1.834.476.541.317.966.761 1.274 1.33.308.56.462 1.204.462 1.932l-.014.308zm-3.556-3.192c-.71 0-1.307.229-1.792.686-.476.448-.747 1.036-.812 1.764h5.222c-.066-.728-.341-1.316-.826-1.764-.476-.457-1.074-.686-1.792-.686z" fill="#363232"/><path d="M590.063 809.14a7.534 7.534 0 01-2.198-.322c-.7-.215-1.255-.499-1.666-.854l.63-1.414a5.09 5.09 0 001.47.784 5.55 5.55 0 001.764.294c.728 0 1.269-.117 1.624-.35.364-.233.546-.541.546-.924a.865.865 0 00-.308-.686 1.99 1.99 0 00-.756-.434 17.01 17.01 0 00-1.26-.35 15.098 15.098 0 01-1.82-.532 3.084 3.084 0 01-1.19-.826c-.327-.383-.49-.896-.49-1.54 0-.541.145-1.031.434-1.47.299-.448.742-.803 1.33-1.064.597-.261 1.325-.392 2.184-.392a7.05 7.05 0 011.764.224 4.864 4.864 0 011.498.644l-.574 1.414a5.665 5.665 0 00-1.344-.574 5.014 5.014 0 00-1.358-.196c-.719 0-1.255.121-1.61.364-.345.243-.518.565-.518.966 0 .28.098.509.294.686.205.177.462.317.77.42.308.103.728.219 1.26.35.728.168 1.325.345 1.792.532a2.95 2.95 0 011.19.826c.336.373.504.877.504 1.512 0 .541-.149 1.031-.448 1.47-.289.439-.733.789-1.33 1.05-.597.261-1.325.392-2.184.392zm6.299-7.616h1.75V809h-1.75v-7.476zm.882-1.232c-.318 0-.584-.098-.798-.294a1.003 1.003 0 01-.322-.756.96.96 0 01.322-.742c.214-.205.48-.308.798-.308.317 0 .583.098.798.294a.907.907 0 01.322.714c0 .308-.108.569-.322.784-.206.205-.472.308-.798.308zm11.285 1.232v6.342c0 2.632-1.344 3.948-4.032 3.948-.719 0-1.4-.093-2.044-.28-.644-.177-1.176-.439-1.596-.784l.784-1.316c.326.271.737.485 1.232.644a4.795 4.795 0 001.526.252c.821 0 1.423-.187 1.806-.56.382-.373.574-.943.574-1.708v-.392a2.878 2.878 0 01-1.092.742c-.43.168-.901.252-1.414.252-.71 0-1.354-.149-1.932-.448a3.525 3.525 0 01-1.358-1.288c-.327-.551-.49-1.181-.49-1.89 0-.709.163-1.335.49-1.876a3.425 3.425 0 011.358-1.274 4.141 4.141 0 011.932-.448 3.9 3.9 0 011.47.266c.448.177.821.448 1.12.812v-.994h1.666zm-3.99 5.656c.662 0 1.204-.196 1.624-.588.429-.401.644-.919.644-1.554 0-.625-.215-1.134-.644-1.526-.42-.392-.962-.588-1.624-.588-.672 0-1.223.196-1.652.588-.42.392-.63.901-.63 1.526 0 .635.21 1.153.63 1.554.429.392.98.588 1.652.588zm11.232-5.74c.943 0 1.699.275 2.268.826.57.551.854 1.367.854 2.45V809h-1.75v-4.06c0-.653-.154-1.143-.462-1.47-.308-.336-.746-.504-1.316-.504-.644 0-1.152.196-1.526.588-.373.383-.56.938-.56 1.666V809h-1.75v-7.476h1.666v.966c.29-.345.654-.607 1.092-.784a3.94 3.94 0 011.484-.266zm14.993 7.7c-1.353 0-2.408-.378-3.164-1.134-.756-.765-1.134-1.857-1.134-3.276v-5.53h1.82v5.46c0 1.923.831 2.884 2.492 2.884 1.652 0 2.478-.961 2.478-2.884v-5.46h1.792v5.53c0 1.419-.378 2.511-1.134 3.276-.746.756-1.796 1.134-3.15 1.134zm11.509-7.7c.728 0 1.377.159 1.946.476a3.41 3.41 0 011.358 1.344c.327.579.49 1.246.49 2.002 0 .756-.163 1.428-.49 2.016a3.41 3.41 0 01-1.358 1.344c-.569.317-1.218.476-1.946.476-1.008 0-1.806-.336-2.394-1.008v3.626h-1.75v-10.192h1.666v.98c.29-.355.644-.621 1.064-.798.43-.177.901-.266 1.414-.266zm-.196 6.16c.644 0 1.172-.215 1.582-.644.42-.429.63-.994.63-1.694s-.21-1.265-.63-1.694c-.41-.429-.938-.644-1.582-.644-.42 0-.798.098-1.134.294a2.026 2.026 0 00-.798.812c-.196.355-.294.765-.294 1.232 0 .467.098.877.294 1.232.196.355.462.63.798.826.336.187.714.28 1.134.28z" fill="#05BBFC"/><path d="M145.22 289.36c-3.48 0-6.192-.972-8.136-2.916-1.944-1.968-2.916-4.776-2.916-8.424V263.8h4.68v14.04c0 4.944 2.136 7.416 6.408 7.416 4.248 0 6.372-2.472 6.372-7.416V263.8h4.608v14.22c0 3.648-.972 6.456-2.916 8.424-1.92 1.944-4.62 2.916-8.1 2.916zm16.31-25.56h4.68V289h-4.68v-25.2z" fill="#F02D76"/><path d="M181.168 265.2c1.456 0 2.72.24 3.792.72 1.088.48 1.92 1.168 2.496 2.064.576.896.864 1.96.864 3.192 0 1.216-.288 2.28-.864 3.192-.576.896-1.408 1.584-2.496 2.064-1.072.48-2.336.72-3.792.72h-3.792V282h-3.12v-16.8h6.912zm-.144 9.312c1.36 0 2.392-.288 3.096-.864.704-.576 1.056-1.4 1.056-2.472s-.352-1.896-1.056-2.472c-.704-.576-1.736-.864-3.096-.864h-3.648v6.672h3.648zm11.558-10.32h3V282h-3v-17.808zm13.034 4.848c1.888 0 3.328.456 4.32 1.368 1.008.896 1.512 2.256 1.512 4.08V282h-2.832v-1.56c-.368.56-.896.992-1.584 1.296-.672.288-1.488.432-2.448.432s-1.8-.16-2.52-.48c-.72-.336-1.28-.792-1.68-1.368a3.582 3.582 0 01-.576-1.992c0-1.152.424-2.072 1.272-2.76.864-.704 2.216-1.056 4.056-1.056h3.312v-.192c0-.896-.272-1.584-.816-2.064-.528-.48-1.32-.72-2.376-.72-.72 0-1.432.112-2.136.336-.688.224-1.272.536-1.752.936l-1.176-2.184c.672-.512 1.48-.904 2.424-1.176a10.785 10.785 0 013-.408zm-.408 10.944c.752 0 1.416-.168 1.992-.504a2.85 2.85 0 001.248-1.488v-1.488h-3.096c-1.728 0-2.592.568-2.592 1.704 0 .544.216.976.648 1.296.432.32 1.032.48 1.8.48zm18.562-10.944c1.616 0 2.912.472 3.888 1.416s1.464 2.344 1.464 4.2V282h-3v-6.96c0-1.12-.264-1.96-.792-2.52-.528-.576-1.28-.864-2.256-.864-1.104 0-1.976.336-2.616 1.008-.64.656-.96 1.608-.96 2.856V282h-3v-12.816h2.856v1.656a4.69 4.69 0 011.872-1.344c.752-.304 1.6-.456 2.544-.456zm22.523 6.624c0 .208-.016.504-.048.888h-10.056c.176.944.632 1.696 1.368 2.256.752.544 1.68.816 2.784.816 1.408 0 2.568-.464 3.48-1.392l1.608 1.848a5.418 5.418 0 01-2.184 1.56c-.88.352-1.872.528-2.976.528-1.408 0-2.648-.28-3.72-.84-1.072-.56-1.904-1.336-2.496-2.328-.576-1.008-.864-2.144-.864-3.408 0-1.248.28-2.368.84-3.36a6.104 6.104 0 012.376-2.352c1.008-.56 2.144-.84 3.408-.84 1.248 0 2.36.28 3.336.84a5.667 5.667 0 012.304 2.328c.56.992.84 2.144.84 3.456zm-6.48-4.224c-.96 0-1.776.288-2.448.864-.656.56-1.056 1.312-1.2 2.256h7.272c-.128-.928-.52-1.68-1.176-2.256-.656-.576-1.472-.864-2.448-.864zm18.265 9.864a3.525 3.525 0 01-1.296.648 5.656 5.656 0 01-1.584.216c-1.408 0-2.496-.368-3.264-1.104-.768-.736-1.152-1.808-1.152-3.216v-6.168h-2.112v-2.4h2.112v-2.928h3v2.928h3.432v2.4h-3.432v6.096c0 .624.152 1.104.456 1.44.304.32.744.48 1.32.48.672 0 1.232-.176 1.68-.528l.84 2.136z" fill="#DA46B1"/><path stroke="#F02D76" stroke-width="3" d="M174 287.5h84"/></g></g><defs><linearGradient id="paint0_linear" x1="102" y1="888" x2="1171.83" y2="283.968" gradientUnits="userSpaceOnUse"><stop stop-color="#D34DC2"/><stop offset=".167" stop-color="#F82460"/><stop offset=".66" stop-color="#DF40A2"/><stop offset=".974" stop-color="#F82461"/></linearGradient><linearGradient id="paint1_linear" x1="486.424" y1="750.25" x2="614.873" y2="641.965" gradientUnits="userSpaceOnUse"><stop stop-color="#FD1F54"/><stop offset=".953" stop-color="#E13E9E"/></linearGradient><linearGradient id="paint2_linear" x1="817.587" y1="419.071" x2="406.677" y2="600.117" gradientUnits="userSpaceOnUse"><stop stop-color="#BC67FF"/><stop offset=".979" stop-color="#FD1F54"/></linearGradient><filter id="filter0_b" x="-250" y="-250" width="1600" height="1600" filterUnits="userSpaceOnUse" color-interpolation-filters="sRGB"><feFlood flood-opacity="0" result="BackgroundImageFix"/><feGaussianBlur in="BackgroundImage" stdDeviation="125"/><feComposite in2="SourceAlpha" operator="in" result="effect1_backgroundBlur"/><feBlend in="SourceGraphic" in2="effect1_backgroundBlur" result="shape"/></filter><filter id="filter1_dd" x="48" y="179" width="1008" height="728" filterUnits="userSpaceOnUse" color-interpolation-filters="sRGB"><feFlood flood-opacity="0" result="BackgroundImageFix"/><feColorMatrix in="SourceAlpha" values="0 0 0 0 0 0 0 0 0 0 0 0 0 0 0 0 0 0 127 0"/><feOffset dx="4" dy="4"/><feGaussianBlur stdDeviation="25"/><feColorMatrix values="0 0 0 0 0 0 0 0 0 0 0 0 0 0 0 0 0 0 0.5 0"/><feBlend in2="BackgroundImageFix" result="effect1_dropShadow"/><feColorMatrix in="SourceAlpha" values="0 0 0 0 0 0 0 0 0 0 0 0 0 0 0 0 0 0 127 0"/><feOffset dx="-4" dy="-4"/><feGaussianBlur stdDeviation="25"/><feColorMatrix values="0 0 0 0 1 0 0 0 0 1 0 0 0 0 1 0 0 0 1 0"/><feBlend in2="effect1_dropShadow" result="effect2_dropShadow"/><feBlend in="SourceGraphic" in2="effect2_dropShadow" result="shape"/></filter><clipPath id="clip0"><path fill="#fff" transform="translate(102 233)" d="M0 0h900v620H0z"/></clipPath></defs></svg>