<svg width="1100" height="1100" viewBox="0 0 1100 1100" fill="none" xmlns="http://www.w3.org/2000/svg">
<g filter="url(#filter0_b)">
<rect width="1100" height="1100" fill="#FCE3EE"/>
<g clip-path="url(#clip0)" filter="url(#filter1_dd)">
<rect width="900" height="620" transform="translate(102 233)" fill="white"/>
<rect x="102" y="233" width="900" height="620" fill="url(#paint0_linear)"/>
<path d="M102 233H652C845.3 233 1002 389.7 1002 583V853H278C180.798 853 102 774.202 102 677V233Z" fill="white"/>
<path d="M503 696H572C587.464 696 600 708.536 600 724V738H517C509.268 738 503 731.732 503 724V696Z" fill="url(#paint1_linear)"/>
<path d="M679.1 476H424.817C392.772 476 391.269 525.368 424.817 525.368C458.365 525.368 608.317 525.368 679.1 525.368C710.772 525.368 711.272 581.5 679.1 581.5C640.913 581.5 493.667 581.5 424.817 581.5C390.772 581.5 392.697 633 424.817 633C456.937 633 607.723 633 679.1 633" stroke="url(#paint2_linear)" stroke-width="2"/>
<path d="M416.32 505.09C418.786 505.09 420.226 504.028 420.226 502.39C420.226 498.754 414.088 500.68 414.088 498.124C414.088 497.224 414.844 496.558 416.554 496.558C417.526 496.558 418.516 496.792 419.344 497.368L419.902 496.342C419.11 495.802 417.778 495.46 416.554 495.46C414.142 495.46 412.81 496.612 412.81 498.16C412.81 501.904 418.948 499.96 418.948 502.426C418.948 503.362 418.21 503.974 416.41 503.974C415.078 503.974 413.8 503.506 413.044 502.912L412.468 503.92C413.242 504.586 414.754 505.09 416.32 505.09ZM427.359 505.09C430.131 505.09 432.165 503.074 432.165 500.266C432.165 497.458 430.131 495.46 427.359 495.46C424.587 495.46 422.535 497.458 422.535 500.266C422.535 503.074 424.587 505.09 427.359 505.09ZM427.359 503.956C425.343 503.956 423.831 502.48 423.831 500.266C423.831 498.052 425.343 496.576 427.359 496.576C429.375 496.576 430.869 498.052 430.869 500.266C430.869 502.48 429.375 503.956 427.359 503.956ZM447.482 495.46C445.772 495.46 444.422 496.234 443.738 497.458C443.162 496.126 441.938 495.46 440.372 495.46C438.788 495.46 437.564 496.126 436.898 497.26V495.532H435.674V505H436.952V500.032C436.952 497.872 438.194 496.612 440.12 496.612C441.848 496.612 442.856 497.638 442.856 499.636V505H444.134V500.032C444.134 497.872 445.358 496.612 447.302 496.612C449.012 496.612 450.02 497.638 450.02 499.636V505H451.298V499.51C451.298 496.792 449.786 495.46 447.482 495.46ZM463.961 500.266C463.961 497.422 462.035 495.46 459.371 495.46C456.707 495.46 454.745 497.458 454.745 500.266C454.745 503.074 456.761 505.09 459.713 505.09C461.207 505.09 462.521 504.55 463.367 503.542L462.647 502.714C461.927 503.542 460.901 503.956 459.749 503.956C457.679 503.956 456.167 502.642 456.023 500.662H463.943C463.943 500.518 463.961 500.374 463.961 500.266ZM459.371 496.558C461.225 496.558 462.575 497.854 462.737 499.708H456.023C456.185 497.854 457.535 496.558 459.371 496.558ZM471.998 503.506C471.638 503.83 471.116 503.992 470.594 503.992C469.532 503.992 468.956 503.38 468.956 502.264V496.612H471.836V495.532H468.956V493.462H467.678V495.532H465.986V496.612H467.678V502.336C467.678 504.082 468.668 505.09 470.45 505.09C471.188 505.09 471.944 504.874 472.448 504.424L471.998 503.506ZM480.499 495.46C478.897 495.46 477.655 496.09 476.953 497.188V491.644H475.675V505H476.953V500.032C476.953 497.872 478.231 496.612 480.265 496.612C482.065 496.612 483.109 497.638 483.109 499.636V505H484.387V499.51C484.387 496.792 482.803 495.46 480.499 495.46ZM489.404 493.462C489.944 493.462 490.34 493.048 490.34 492.526C490.34 492.04 489.926 491.644 489.404 491.644C488.882 491.644 488.468 492.058 488.468 492.544C488.468 493.048 488.882 493.462 489.404 493.462ZM488.756 505H490.034V495.532H488.756V505ZM499.314 495.46C497.676 495.46 496.398 496.126 495.714 497.278V495.532H494.49V505H495.768V500.032C495.768 497.872 497.046 496.612 499.08 496.612C500.88 496.612 501.924 497.638 501.924 499.636V505H503.202V499.51C503.202 496.792 501.618 495.46 499.314 495.46ZM515.149 495.532V497.35C514.357 496.108 512.989 495.46 511.405 495.46C508.705 495.46 506.653 497.314 506.653 500.032C506.653 502.75 508.705 504.64 511.405 504.64C512.953 504.64 514.303 504.01 515.095 502.804V504.01C515.095 506.35 513.997 507.448 511.603 507.448C510.145 507.448 508.777 506.962 507.877 506.152L507.229 507.124C508.219 508.06 509.911 508.582 511.639 508.582C514.771 508.582 516.373 507.106 516.373 503.848V495.532H515.149ZM511.531 503.506C509.443 503.506 507.949 502.084 507.949 500.032C507.949 497.98 509.443 496.576 511.531 496.576C513.619 496.576 515.131 497.98 515.131 500.032C515.131 502.084 513.619 503.506 511.531 503.506ZM528.407 492.292C523.439 492.292 520.001 495.64 520.001 500.428C520.001 505.198 523.385 508.6 528.335 508.6C529.541 508.6 531.017 508.33 532.097 507.772L531.791 506.89C530.747 507.43 529.415 507.682 528.335 507.682C523.961 507.682 520.991 504.694 520.991 500.428C520.991 496.162 523.997 493.21 528.407 493.21C532.763 493.21 535.805 496.018 535.805 500.248C535.805 502.678 535.085 504.064 533.969 504.064C533.357 504.064 532.853 503.704 532.853 502.696V495.874H531.683V497.692C530.945 496.486 529.667 495.802 528.119 495.802C525.563 495.802 523.655 497.728 523.655 500.428C523.655 503.146 525.563 505.09 528.119 505.09C529.703 505.09 530.999 504.37 531.719 503.128C531.791 504.37 532.583 505.09 533.753 505.09C535.607 505.09 536.741 503.29 536.741 500.23C536.741 495.514 533.285 492.292 528.407 492.292ZM528.281 504.046C526.283 504.046 524.843 502.588 524.843 500.428C524.843 498.268 526.283 496.846 528.281 496.846C530.225 496.846 531.701 498.25 531.701 500.428C531.701 502.624 530.225 504.046 528.281 504.046ZM548.607 500.266C548.607 497.422 546.681 495.46 544.017 495.46C541.353 495.46 539.391 497.458 539.391 500.266C539.391 503.074 541.407 505.09 544.359 505.09C545.853 505.09 547.167 504.55 548.013 503.542L547.293 502.714C546.573 503.542 545.547 503.956 544.395 503.956C542.325 503.956 540.812 502.642 540.669 500.662H548.589C548.589 500.518 548.607 500.374 548.607 500.266ZM544.017 496.558C545.871 496.558 547.221 497.854 547.383 499.708H540.669C540.831 497.854 542.181 496.558 544.017 496.558ZM559.332 505L555.552 500.14L559.116 495.532H557.712L554.868 499.24L552.024 495.532H550.584L554.148 500.14L550.404 505H551.844L554.868 501.04L557.874 505H559.332ZM565.496 495.46C564.002 495.46 562.598 495.928 561.644 496.738L562.22 497.692C562.994 497.008 564.146 496.576 565.37 496.576C567.134 496.576 568.052 497.458 568.052 499.078V499.654H565.046C562.328 499.654 561.392 500.878 561.392 502.336C561.392 503.974 562.706 505.09 564.848 505.09C566.414 505.09 567.53 504.496 568.106 503.524V505H569.33V499.132C569.33 496.684 567.944 495.46 565.496 495.46ZM565.046 504.082C563.534 504.082 562.652 503.398 562.652 502.3C562.652 501.328 563.246 500.608 565.082 500.608H568.052V502.156C567.548 503.398 566.486 504.082 565.046 504.082ZM585.509 495.46C583.799 495.46 582.449 496.234 581.765 497.458C581.189 496.126 579.965 495.46 578.399 495.46C576.815 495.46 575.591 496.126 574.925 497.26V495.532H573.701V505H574.979V500.032C574.979 497.872 576.221 496.612 578.147 496.612C579.875 496.612 580.883 497.638 580.883 499.636V505H582.161V500.032C582.161 497.872 583.385 496.612 585.329 496.612C587.039 496.612 588.047 497.638 588.047 499.636V505H589.325V499.51C589.325 496.792 587.813 495.46 585.509 495.46ZM598.569 495.46C597.003 495.46 595.689 496.144 594.915 497.404V495.532H593.691V508.492H594.969V503.218C595.761 504.442 597.057 505.09 598.569 505.09C601.269 505.09 603.285 503.146 603.285 500.266C603.285 497.404 601.269 495.46 598.569 495.46ZM598.479 503.956C596.463 503.956 594.951 502.48 594.951 500.266C594.951 498.07 596.463 496.576 598.479 496.576C600.477 496.576 602.007 498.07 602.007 500.266C602.007 502.48 600.477 503.956 598.479 503.956ZM606.79 505H608.068V491.644H606.79V505ZM620.786 500.266C620.786 497.422 618.86 495.46 616.196 495.46C613.532 495.46 611.57 497.458 611.57 500.266C611.57 503.074 613.586 505.09 616.538 505.09C618.032 505.09 619.346 504.55 620.192 503.542L619.472 502.714C618.752 503.542 617.726 503.956 616.574 503.956C614.504 503.956 612.992 502.642 612.848 500.662H620.768C620.768 500.518 620.786 500.374 620.786 500.266ZM616.196 496.558C618.05 496.558 619.4 497.854 619.562 499.708H612.848C613.01 497.854 614.36 496.558 616.196 496.558ZM624.413 505.09C624.935 505.09 625.385 504.658 625.385 504.1C625.385 503.542 624.935 503.128 624.413 503.128C623.891 503.128 623.459 503.542 623.459 504.1C623.459 504.658 623.891 505.09 624.413 505.09ZM632.662 505.09C634.264 505.09 635.614 504.442 636.37 503.218L635.416 502.57C634.768 503.524 633.76 503.956 632.662 503.956C630.592 503.956 629.08 502.498 629.08 500.266C629.08 498.052 630.592 496.576 632.662 496.576C633.76 496.576 634.768 497.026 635.416 497.98L636.37 497.332C635.614 496.09 634.264 495.46 632.662 495.46C629.836 495.46 627.784 497.44 627.784 500.266C627.784 503.092 629.836 505.09 632.662 505.09ZM643.492 505.09C646.264 505.09 648.298 503.074 648.298 500.266C648.298 497.458 646.264 495.46 643.492 495.46C640.72 495.46 638.668 497.458 638.668 500.266C638.668 503.074 640.72 505.09 643.492 505.09ZM643.492 503.956C641.476 503.956 639.964 502.48 639.964 500.266C639.964 498.052 641.476 496.576 643.492 496.576C645.508 496.576 647.002 498.052 647.002 500.266C647.002 502.48 645.508 503.956 643.492 503.956ZM663.615 495.46C661.905 495.46 660.555 496.234 659.871 497.458C659.295 496.126 658.071 495.46 656.505 495.46C654.921 495.46 653.697 496.126 653.031 497.26V495.532H651.807V505H653.085V500.032C653.085 497.872 654.327 496.612 656.253 496.612C657.981 496.612 658.989 497.638 658.989 499.636V505H660.267V500.032C660.267 497.872 661.491 496.612 663.435 496.612C665.145 496.612 666.153 497.638 666.153 499.636V505H667.431V499.51C667.431 496.792 665.919 495.46 663.615 495.46Z" fill="#878484"/>
<path d="M420.024 552.2C422.168 552.2 423.848 552.712 425.064 553.736C426.28 554.76 426.888 556.168 426.888 557.96C426.888 559.752 426.28 561.16 425.064 562.184C423.848 563.192 422.168 563.696 420.024 563.696H415.512V569H413.736V552.2H420.024ZM419.976 562.136C421.64 562.136 422.912 561.776 423.792 561.056C424.672 560.32 425.112 559.288 425.112 557.96C425.112 556.6 424.672 555.56 423.792 554.84C422.912 554.104 421.64 553.736 419.976 553.736H415.512V562.136H419.976ZM435.867 556.28C437.515 556.28 438.779 556.696 439.659 557.528C440.539 558.344 440.979 559.56 440.979 561.176V569H439.347V567.032C438.963 567.688 438.395 568.2 437.643 568.568C436.907 568.936 436.027 569.12 435.003 569.12C433.595 569.12 432.475 568.784 431.643 568.112C430.811 567.44 430.395 566.552 430.395 565.448C430.395 564.376 430.779 563.512 431.547 562.856C432.331 562.2 433.571 561.872 435.267 561.872H439.275V561.104C439.275 560.016 438.971 559.192 438.363 558.632C437.755 558.056 436.867 557.768 435.699 557.768C434.899 557.768 434.131 557.904 433.395 558.176C432.659 558.432 432.027 558.792 431.499 559.256L430.731 557.984C431.371 557.44 432.139 557.024 433.035 556.736C433.931 556.432 434.875 556.28 435.867 556.28ZM435.267 567.776C436.227 567.776 437.051 567.56 437.739 567.128C438.427 566.68 438.939 566.04 439.275 565.208V563.144H435.315C433.155 563.144 432.075 563.896 432.075 565.4C432.075 566.136 432.355 566.72 432.915 567.152C433.475 567.568 434.259 567.776 435.267 567.776ZM450.191 569.12C449.167 569.12 448.183 568.976 447.239 568.688C446.311 568.384 445.583 568.008 445.055 567.56L445.823 566.216C446.351 566.632 447.015 566.976 447.815 567.248C448.615 567.504 449.447 567.632 450.311 567.632C451.463 567.632 452.311 567.456 452.855 567.104C453.415 566.736 453.695 566.224 453.695 565.568C453.695 565.104 453.543 564.744 453.239 564.488C452.935 564.216 452.551 564.016 452.087 563.888C451.623 563.744 451.007 563.608 450.239 563.48C449.215 563.288 448.391 563.096 447.767 562.904C447.143 562.696 446.607 562.352 446.159 561.872C445.727 561.392 445.511 560.728 445.511 559.88C445.511 558.824 445.951 557.96 446.831 557.288C447.711 556.616 448.935 556.28 450.503 556.28C451.319 556.28 452.135 556.392 452.951 556.616C453.767 556.824 454.439 557.104 454.967 557.456L454.223 558.824C453.183 558.104 451.943 557.744 450.503 557.744C449.415 557.744 448.591 557.936 448.031 558.32C447.487 558.704 447.215 559.208 447.215 559.832C447.215 560.312 447.367 560.696 447.671 560.984C447.991 561.272 448.383 561.488 448.847 561.632C449.311 561.76 449.951 561.896 450.767 562.04C451.775 562.232 452.583 562.424 453.191 562.616C453.799 562.808 454.319 563.136 454.751 563.6C455.183 564.064 455.399 564.704 455.399 565.52C455.399 566.624 454.935 567.504 454.007 568.16C453.095 568.8 451.823 569.12 450.191 569.12ZM463.133 569.12C462.109 569.12 461.125 568.976 460.181 568.688C459.253 568.384 458.525 568.008 457.997 567.56L458.765 566.216C459.293 566.632 459.957 566.976 460.757 567.248C461.557 567.504 462.389 567.632 463.253 567.632C464.405 567.632 465.253 567.456 465.797 567.104C466.357 566.736 466.637 566.224 466.637 565.568C466.637 565.104 466.485 564.744 466.181 564.488C465.877 564.216 465.493 564.016 465.029 563.888C464.565 563.744 463.949 563.608 463.181 563.48C462.157 563.288 461.333 563.096 460.709 562.904C460.085 562.696 459.549 562.352 459.101 561.872C458.669 561.392 458.453 560.728 458.453 559.88C458.453 558.824 458.893 557.96 459.773 557.288C460.653 556.616 461.877 556.28 463.445 556.28C464.261 556.28 465.077 556.392 465.893 556.616C466.709 556.824 467.381 557.104 467.909 557.456L467.165 558.824C466.125 558.104 464.885 557.744 463.445 557.744C462.357 557.744 461.533 557.936 460.973 558.32C460.429 558.704 460.157 559.208 460.157 559.832C460.157 560.312 460.309 560.696 460.613 560.984C460.933 561.272 461.325 561.488 461.789 561.632C462.253 561.76 462.893 561.896 463.709 562.04C464.717 562.232 465.525 562.424 466.133 562.616C466.741 562.808 467.261 563.136 467.693 563.6C468.125 564.064 468.341 564.704 468.341 565.52C468.341 566.624 467.877 567.504 466.949 568.16C466.037 568.8 464.765 569.12 463.133 569.12ZM490.985 556.376L486.209 569H484.601L480.617 558.656L476.633 569H475.025L470.273 556.376H471.905L475.865 567.104L479.921 556.376H481.385L485.417 567.104L489.425 556.376H490.985ZM499.559 569.12C498.343 569.12 497.247 568.848 496.271 568.304C495.295 567.744 494.527 566.976 493.967 566C493.407 565.024 493.127 563.92 493.127 562.688C493.127 561.456 493.407 560.352 493.967 559.376C494.527 558.4 495.295 557.64 496.271 557.096C497.247 556.552 498.343 556.28 499.559 556.28C500.775 556.28 501.871 556.552 502.847 557.096C503.823 557.64 504.583 558.4 505.127 559.376C505.687 560.352 505.967 561.456 505.967 562.688C505.967 563.92 505.687 565.024 505.127 566C504.583 566.976 503.823 567.744 502.847 568.304C501.871 568.848 500.775 569.12 499.559 569.12ZM499.559 567.608C500.455 567.608 501.255 567.408 501.959 567.008C502.679 566.592 503.239 566.008 503.639 565.256C504.039 564.504 504.239 563.648 504.239 562.688C504.239 561.728 504.039 560.872 503.639 560.12C503.239 559.368 502.679 558.792 501.959 558.392C501.255 557.976 500.455 557.768 499.559 557.768C498.663 557.768 497.855 557.976 497.135 558.392C496.431 558.792 495.871 559.368 495.455 560.12C495.055 560.872 494.855 561.728 494.855 562.688C494.855 563.648 495.055 564.504 495.455 565.256C495.871 566.008 496.431 566.592 497.135 567.008C497.855 567.408 498.663 567.608 499.559 567.608ZM512.278 558.848C512.678 558 513.27 557.36 514.054 556.928C514.854 556.496 515.838 556.28 517.006 556.28V557.936L516.598 557.912C515.27 557.912 514.23 558.32 513.478 559.136C512.726 559.952 512.35 561.096 512.35 562.568V569H510.646V556.376H512.278V558.848ZM532.694 551.192V569H531.062V566.504C530.55 567.352 529.87 568 529.022 568.448C528.19 568.896 527.246 569.12 526.19 569.12C525.006 569.12 523.934 568.848 522.974 568.304C522.014 567.76 521.262 567 520.718 566.024C520.174 565.048 519.902 563.936 519.902 562.688C519.902 561.44 520.174 560.328 520.718 559.352C521.262 558.376 522.014 557.624 522.974 557.096C523.934 556.552 525.006 556.28 526.19 556.28C527.214 556.28 528.134 556.496 528.95 556.928C529.782 557.344 530.462 557.96 530.99 558.776V551.192H532.694ZM526.334 567.608C527.214 567.608 528.006 567.408 528.71 567.008C529.43 566.592 529.99 566.008 530.39 565.256C530.806 564.504 531.014 563.648 531.014 562.688C531.014 561.728 530.806 560.872 530.39 560.12C529.99 559.368 529.43 558.792 528.71 558.392C528.006 557.976 527.214 557.768 526.334 557.768C525.438 557.768 524.63 557.976 523.91 558.392C523.206 558.792 522.646 559.368 522.23 560.12C521.83 560.872 521.63 561.728 521.63 562.688C521.63 563.648 521.83 564.504 522.23 565.256C522.646 566.008 523.206 566.592 523.91 567.008C524.63 567.408 525.438 567.608 526.334 567.608Z" fill="#363232"/>
<path d="M491.768 601.4C493.376 601.4 494.636 601.784 495.548 602.552C496.46 603.32 496.916 604.376 496.916 605.72C496.916 607.064 496.46 608.12 495.548 608.888C494.636 609.644 493.376 610.022 491.768 610.022H488.384V614H487.052V601.4H491.768ZM491.732 608.852C492.98 608.852 493.934 608.582 494.594 608.042C495.254 607.49 495.584 606.716 495.584 605.72C495.584 604.7 495.254 603.92 494.594 603.38C493.934 602.828 492.98 602.552 491.732 602.552H488.384V608.852H491.732ZM503.65 604.46C504.886 604.46 505.834 604.772 506.494 605.396C507.154 606.008 507.484 606.92 507.484 608.132V614H506.26V612.524C505.972 613.016 505.546 613.4 504.982 613.676C504.43 613.952 503.77 614.09 503.002 614.09C501.946 614.09 501.106 613.838 500.482 613.334C499.858 612.83 499.546 612.164 499.546 611.336C499.546 610.532 499.834 609.884 500.41 609.392C500.998 608.9 501.928 608.654 503.2 608.654H506.206V608.078C506.206 607.262 505.978 606.644 505.522 606.224C505.066 605.792 504.4 605.576 503.524 605.576C502.924 605.576 502.348 605.678 501.796 605.882C501.244 606.074 500.77 606.344 500.374 606.692L499.798 605.738C500.278 605.33 500.854 605.018 501.526 604.802C502.198 604.574 502.906 604.46 503.65 604.46ZM503.2 613.082C503.92 613.082 504.538 612.92 505.054 612.596C505.57 612.26 505.954 611.78 506.206 611.156V609.608H503.236C501.616 609.608 500.806 610.172 500.806 611.3C500.806 611.852 501.016 612.29 501.436 612.614C501.856 612.926 502.444 613.082 503.2 613.082ZM514.393 614.09C513.625 614.09 512.887 613.982 512.179 613.766C511.483 613.538 510.937 613.256 510.541 612.92L511.117 611.912C511.513 612.224 512.011 612.482 512.611 612.686C513.211 612.878 513.835 612.974 514.483 612.974C515.347 612.974 515.983 612.842 516.391 612.578C516.811 612.302 517.021 611.918 517.021 611.426C517.021 611.078 516.907 610.808 516.679 610.616C516.451 610.412 516.163 610.262 515.815 610.166C515.467 610.058 515.005 609.956 514.429 609.86C513.661 609.716 513.043 609.572 512.575 609.428C512.107 609.272 511.705 609.014 511.369 608.654C511.045 608.294 510.883 607.796 510.883 607.16C510.883 606.368 511.213 605.72 511.873 605.216C512.533 604.712 513.451 604.46 514.627 604.46C515.239 604.46 515.851 604.544 516.463 604.712C517.075 604.868 517.579 605.078 517.975 605.342L517.417 606.368C516.637 605.828 515.707 605.558 514.627 605.558C513.811 605.558 513.193 605.702 512.773 605.99C512.365 606.278 512.161 606.656 512.161 607.124C512.161 607.484 512.275 607.772 512.503 607.988C512.743 608.204 513.037 608.366 513.385 608.474C513.733 608.57 514.213 608.672 514.825 608.78C515.581 608.924 516.187 609.068 516.643 609.212C517.099 609.356 517.489 609.602 517.813 609.95C518.137 610.298 518.299 610.778 518.299 611.39C518.299 612.218 517.951 612.878 517.255 613.37C516.571 613.85 515.617 614.09 514.393 614.09ZM524.1 614.09C523.332 614.09 522.594 613.982 521.886 613.766C521.19 613.538 520.644 613.256 520.248 612.92L520.824 611.912C521.22 612.224 521.718 612.482 522.318 612.686C522.918 612.878 523.542 612.974 524.19 612.974C525.054 612.974 525.69 612.842 526.098 612.578C526.518 612.302 526.728 611.918 526.728 611.426C526.728 611.078 526.614 610.808 526.386 610.616C526.158 610.412 525.87 610.262 525.522 610.166C525.174 610.058 524.712 609.956 524.136 609.86C523.368 609.716 522.75 609.572 522.282 609.428C521.814 609.272 521.412 609.014 521.076 608.654C520.752 608.294 520.59 607.796 520.59 607.16C520.59 606.368 520.92 605.72 521.58 605.216C522.24 604.712 523.158 604.46 524.334 604.46C524.946 604.46 525.558 604.544 526.17 604.712C526.782 604.868 527.286 605.078 527.682 605.342L527.124 606.368C526.344 605.828 525.414 605.558 524.334 605.558C523.518 605.558 522.9 605.702 522.48 605.99C522.072 606.278 521.868 606.656 521.868 607.124C521.868 607.484 521.982 607.772 522.21 607.988C522.45 608.204 522.744 608.366 523.092 608.474C523.44 608.57 523.92 608.672 524.532 608.78C525.288 608.924 525.894 609.068 526.35 609.212C526.806 609.356 527.196 609.602 527.52 609.95C527.844 610.298 528.006 610.778 528.006 611.39C528.006 612.218 527.658 612.878 526.962 613.37C526.278 613.85 525.324 614.09 524.1 614.09ZM544.989 604.532L541.407 614H540.201L537.213 606.242L534.225 614H533.019L529.455 604.532H530.679L533.649 612.578L536.691 604.532H537.789L540.813 612.578L543.819 604.532H544.989ZM551.42 614.09C550.508 614.09 549.686 613.886 548.954 613.478C548.222 613.058 547.646 612.482 547.226 611.75C546.806 611.018 546.596 610.19 546.596 609.266C546.596 608.342 546.806 607.514 547.226 606.782C547.646 606.05 548.222 605.48 548.954 605.072C549.686 604.664 550.508 604.46 551.42 604.46C552.332 604.46 553.154 604.664 553.886 605.072C554.618 605.48 555.188 606.05 555.596 606.782C556.016 607.514 556.226 608.342 556.226 609.266C556.226 610.19 556.016 611.018 555.596 611.75C555.188 612.482 554.618 613.058 553.886 613.478C553.154 613.886 552.332 614.09 551.42 614.09ZM551.42 612.956C552.092 612.956 552.692 612.806 553.22 612.506C553.76 612.194 554.18 611.756 554.48 611.192C554.78 610.628 554.93 609.986 554.93 609.266C554.93 608.546 554.78 607.904 554.48 607.34C554.18 606.776 553.76 606.344 553.22 606.044C552.692 605.732 552.092 605.576 551.42 605.576C550.748 605.576 550.142 605.732 549.602 606.044C549.074 606.344 548.654 606.776 548.342 607.34C548.042 607.904 547.892 608.546 547.892 609.266C547.892 609.986 548.042 610.628 548.342 611.192C548.654 611.756 549.074 612.194 549.602 612.506C550.142 612.806 550.748 612.956 551.42 612.956ZM560.959 606.386C561.259 605.75 561.703 605.27 562.291 604.946C562.891 604.622 563.629 604.46 564.505 604.46V605.702L564.199 605.684C563.203 605.684 562.423 605.99 561.859 606.602C561.295 607.214 561.013 608.072 561.013 609.176V614H559.735V604.532H560.959V606.386ZM576.271 600.644V614H575.047V612.128C574.663 612.764 574.153 613.25 573.517 613.586C572.893 613.922 572.185 614.09 571.393 614.09C570.505 614.09 569.701 613.886 568.981 613.478C568.261 613.07 567.697 612.5 567.289 611.768C566.881 611.036 566.677 610.202 566.677 609.266C566.677 608.33 566.881 607.496 567.289 606.764C567.697 606.032 568.261 605.468 568.981 605.072C569.701 604.664 570.505 604.46 571.393 604.46C572.161 604.46 572.851 604.622 573.463 604.946C574.087 605.258 574.597 605.72 574.993 606.332V600.644H576.271ZM571.501 612.956C572.161 612.956 572.755 612.806 573.283 612.506C573.823 612.194 574.243 611.756 574.543 611.192C574.855 610.628 575.011 609.986 575.011 609.266C575.011 608.546 574.855 607.904 574.543 607.34C574.243 606.776 573.823 606.344 573.283 606.044C572.755 605.732 572.161 605.576 571.501 605.576C570.829 605.576 570.223 605.732 569.683 606.044C569.155 606.344 568.735 606.776 568.423 607.34C568.123 607.904 567.973 608.546 567.973 609.266C567.973 609.986 568.123 610.628 568.423 611.192C568.735 611.756 569.155 612.194 569.683 612.506C570.223 612.806 570.829 612.956 571.501 612.956Z" fill="#878484"/>
<path d="M486.512 352.4H492.752V380.72H510.32V386H486.512V352.4ZM528.356 386.336C525.764 386.336 523.428 385.776 521.348 384.656C519.268 383.536 517.636 381.984 516.452 380C515.3 377.984 514.724 375.712 514.724 373.184C514.724 370.656 515.3 368.4 516.452 366.416C517.636 364.432 519.268 362.88 521.348 361.76C523.428 360.64 525.764 360.08 528.356 360.08C530.98 360.08 533.332 360.64 535.412 361.76C537.492 362.88 539.108 364.432 540.26 366.416C541.444 368.4 542.036 370.656 542.036 373.184C542.036 375.712 541.444 377.984 540.26 380C539.108 381.984 537.492 383.536 535.412 384.656C533.332 385.776 530.98 386.336 528.356 386.336ZM528.356 381.2C530.564 381.2 532.388 380.464 533.828 378.992C535.268 377.52 535.988 375.584 535.988 373.184C535.988 370.784 535.268 368.848 533.828 367.376C532.388 365.904 530.564 365.168 528.356 365.168C526.148 365.168 524.324 365.904 522.884 367.376C521.476 368.848 520.772 370.784 520.772 373.184C520.772 375.584 521.476 377.52 522.884 378.992C524.324 380.464 526.148 381.2 528.356 381.2ZM575.614 360.368V382.112C575.614 391.136 571.006 395.648 561.79 395.648C559.326 395.648 556.99 395.328 554.782 394.688C552.574 394.08 550.75 393.184 549.31 392L551.998 387.488C553.118 388.416 554.526 389.152 556.222 389.696C557.95 390.272 559.694 390.56 561.454 390.56C564.27 390.56 566.334 389.92 567.646 388.64C568.958 387.36 569.614 385.408 569.614 382.784V381.44C568.59 382.56 567.342 383.408 565.87 383.984C564.398 384.56 562.782 384.848 561.022 384.848C558.59 384.848 556.382 384.336 554.398 383.312C552.446 382.256 550.894 380.784 549.742 378.896C548.622 377.008 548.062 374.848 548.062 372.416C548.062 369.984 548.622 367.84 549.742 365.984C550.894 364.096 552.446 362.64 554.398 361.616C556.382 360.592 558.59 360.08 561.022 360.08C562.878 360.08 564.558 360.384 566.062 360.992C567.598 361.6 568.878 362.528 569.902 363.776V360.368H575.614ZM561.934 379.76C564.206 379.76 566.062 379.088 567.502 377.744C568.974 376.368 569.71 374.592 569.71 372.416C569.71 370.272 568.974 368.528 567.502 367.184C566.062 365.84 564.206 365.168 561.934 365.168C559.63 365.168 557.742 365.84 556.27 367.184C554.83 368.528 554.11 370.272 554.11 372.416C554.11 374.592 554.83 376.368 556.27 377.744C557.742 379.088 559.63 379.76 561.934 379.76ZM585.902 360.368H591.902V386H585.902V360.368ZM588.926 356.144C587.838 356.144 586.926 355.808 586.19 355.136C585.454 354.432 585.086 353.568 585.086 352.544C585.086 351.52 585.454 350.672 586.19 350C586.926 349.296 587.838 348.944 588.926 348.944C590.014 348.944 590.926 349.28 591.662 349.952C592.398 350.592 592.766 351.408 592.766 352.4C592.766 353.456 592.398 354.352 591.662 355.088C590.958 355.792 590.046 356.144 588.926 356.144ZM616.721 360.08C619.953 360.08 622.545 361.024 624.497 362.912C626.449 364.8 627.425 367.6 627.425 371.312V386H621.425V372.08C621.425 369.84 620.897 368.16 619.841 367.04C618.785 365.888 617.281 365.312 615.329 365.312C613.121 365.312 611.377 365.984 610.097 367.328C608.817 368.64 608.177 370.544 608.177 373.04V386H602.177V360.368H607.889V363.68C608.881 362.496 610.129 361.6 611.633 360.992C613.137 360.384 614.833 360.08 616.721 360.08Z" fill="#150101"/>
<path d="M427.616 461.464V463H415.736V446.2H427.256V447.736H417.512V453.712H426.2V455.224H417.512V461.464H427.616ZM448.375 450.28C449.959 450.28 451.199 450.736 452.095 451.648C453.007 452.56 453.463 453.904 453.463 455.68V463H451.759V455.848C451.759 454.536 451.439 453.536 450.799 452.848C450.175 452.16 449.287 451.816 448.135 451.816C446.823 451.816 445.791 452.224 445.039 453.04C444.287 453.84 443.911 454.952 443.911 456.376V463H442.207V455.848C442.207 454.536 441.887 453.536 441.247 452.848C440.623 452.16 439.727 451.816 438.559 451.816C437.263 451.816 436.231 452.224 435.463 453.04C434.711 453.84 434.335 454.952 434.335 456.376V463H432.631V450.376H434.263V452.68C434.711 451.912 435.335 451.32 436.135 450.904C436.935 450.488 437.855 450.28 438.895 450.28C439.951 450.28 440.863 450.504 441.631 450.952C442.415 451.4 442.999 452.064 443.383 452.944C443.847 452.112 444.511 451.464 445.375 451C446.255 450.52 447.255 450.28 448.375 450.28ZM463.7 450.28C465.348 450.28 466.612 450.696 467.492 451.528C468.372 452.344 468.812 453.56 468.812 455.176V463H467.18V461.032C466.796 461.688 466.228 462.2 465.476 462.568C464.74 462.936 463.86 463.12 462.836 463.12C461.428 463.12 460.308 462.784 459.476 462.112C458.644 461.44 458.228 460.552 458.228 459.448C458.228 458.376 458.612 457.512 459.38 456.856C460.164 456.2 461.404 455.872 463.1 455.872H467.108V455.104C467.108 454.016 466.804 453.192 466.196 452.632C465.588 452.056 464.7 451.768 463.532 451.768C462.732 451.768 461.964 451.904 461.228 452.176C460.492 452.432 459.86 452.792 459.332 453.256L458.564 451.984C459.204 451.44 459.972 451.024 460.868 450.736C461.764 450.432 462.708 450.28 463.7 450.28ZM463.1 461.776C464.06 461.776 464.884 461.56 465.572 461.128C466.26 460.68 466.772 460.04 467.108 459.208V457.144H463.148C460.988 457.144 459.908 457.896 459.908 459.4C459.908 460.136 460.188 460.72 460.748 461.152C461.308 461.568 462.092 461.776 463.1 461.776ZM474.64 450.376H476.344V463H474.64V450.376ZM475.504 447.616C475.152 447.616 474.856 447.496 474.616 447.256C474.376 447.016 474.256 446.728 474.256 446.392C474.256 446.072 474.376 445.792 474.616 445.552C474.856 445.312 475.152 445.192 475.504 445.192C475.856 445.192 476.152 445.312 476.392 445.552C476.632 445.776 476.752 446.048 476.752 446.368C476.752 446.72 476.632 447.016 476.392 447.256C476.152 447.496 475.856 447.616 475.504 447.616ZM482.285 445.192H483.989V463H482.285V445.192Z" fill="#363232"/>
<path d="M524.692 710.4H527.032V721.02H533.62V723H524.692V710.4ZM540.384 723.126C539.411 723.126 538.535 722.916 537.755 722.496C536.975 722.076 536.363 721.494 535.919 720.75C535.487 719.994 535.271 719.142 535.271 718.194C535.271 717.246 535.487 716.4 535.919 715.656C536.363 714.912 536.975 714.33 537.755 713.91C538.535 713.49 539.411 713.28 540.384 713.28C541.367 713.28 542.249 713.49 543.029 713.91C543.81 714.33 544.416 714.912 544.848 715.656C545.292 716.4 545.514 717.246 545.514 718.194C545.514 719.142 545.292 719.994 544.848 720.75C544.416 721.494 543.81 722.076 543.029 722.496C542.249 722.916 541.367 723.126 540.384 723.126ZM540.384 721.2C541.212 721.2 541.896 720.924 542.435 720.372C542.976 719.82 543.246 719.094 543.246 718.194C543.246 717.294 542.976 716.568 542.435 716.016C541.896 715.464 541.212 715.188 540.384 715.188C539.556 715.188 538.871 715.464 538.331 716.016C537.803 716.568 537.539 717.294 537.539 718.194C537.539 719.094 537.803 719.82 538.331 720.372C538.871 720.924 539.556 721.2 540.384 721.2ZM558.105 713.388V721.542C558.105 724.926 556.377 726.618 552.921 726.618C551.997 726.618 551.121 726.498 550.293 726.258C549.465 726.03 548.781 725.694 548.241 725.25L549.249 723.558C549.669 723.906 550.197 724.182 550.833 724.386C551.481 724.602 552.135 724.71 552.795 724.71C553.851 724.71 554.625 724.47 555.117 723.99C555.609 723.51 555.855 722.778 555.855 721.794V721.29C555.471 721.71 555.003 722.028 554.451 722.244C553.899 722.46 553.293 722.568 552.633 722.568C551.721 722.568 550.893 722.376 550.149 721.992C549.417 721.596 548.835 721.044 548.403 720.336C547.983 719.628 547.773 718.818 547.773 717.906C547.773 716.994 547.983 716.19 548.403 715.494C548.835 714.786 549.417 714.24 550.149 713.856C550.893 713.472 551.721 713.28 552.633 713.28C553.329 713.28 553.959 713.394 554.523 713.622C555.099 713.85 555.579 714.198 555.963 714.666V713.388H558.105ZM552.975 720.66C553.827 720.66 554.523 720.408 555.063 719.904C555.615 719.388 555.891 718.722 555.891 717.906C555.891 717.102 555.615 716.448 555.063 715.944C554.523 715.44 553.827 715.188 552.975 715.188C552.111 715.188 551.403 715.44 550.851 715.944C550.311 716.448 550.041 717.102 550.041 717.906C550.041 718.722 550.311 719.388 550.851 719.904C551.403 720.408 552.111 720.66 552.975 720.66ZM561.963 713.388H564.213V723H561.963V713.388ZM563.097 711.804C562.689 711.804 562.347 711.678 562.071 711.426C561.795 711.162 561.657 710.838 561.657 710.454C561.657 710.07 561.795 709.752 562.071 709.5C562.347 709.236 562.689 709.104 563.097 709.104C563.505 709.104 563.847 709.23 564.123 709.482C564.399 709.722 564.537 710.028 564.537 710.4C564.537 710.796 564.399 711.132 564.123 711.408C563.859 711.672 563.517 711.804 563.097 711.804ZM573.52 713.28C574.732 713.28 575.704 713.634 576.436 714.342C577.168 715.05 577.534 716.1 577.534 717.492V723H575.284V717.78C575.284 716.94 575.086 716.31 574.69 715.89C574.294 715.458 573.73 715.242 572.998 715.242C572.17 715.242 571.516 715.494 571.036 715.998C570.556 716.49 570.316 717.204 570.316 718.14V723H568.066V713.388H570.208V714.63C570.58 714.186 571.048 713.85 571.612 713.622C572.176 713.394 572.812 713.28 573.52 713.28Z" fill="white"/>
<path d="M540.136 647.726V650.708H544.868V652.248H540.136V656H538.316V646.2H545.47V647.726H540.136ZM550.917 656.098C550.161 656.098 549.48 655.935 548.873 655.608C548.266 655.281 547.79 654.829 547.445 654.25C547.109 653.662 546.941 652.999 546.941 652.262C546.941 651.525 547.109 650.867 547.445 650.288C547.79 649.709 548.266 649.257 548.873 648.93C549.48 648.603 550.161 648.44 550.917 648.44C551.682 648.44 552.368 648.603 552.975 648.93C553.582 649.257 554.053 649.709 554.389 650.288C554.734 650.867 554.907 651.525 554.907 652.262C554.907 652.999 554.734 653.662 554.389 654.25C554.053 654.829 553.582 655.281 552.975 655.608C552.368 655.935 551.682 656.098 550.917 656.098ZM550.917 654.6C551.561 654.6 552.093 654.385 552.513 653.956C552.933 653.527 553.143 652.962 553.143 652.262C553.143 651.562 552.933 650.997 552.513 650.568C552.093 650.139 551.561 649.924 550.917 649.924C550.273 649.924 549.741 650.139 549.321 650.568C548.91 650.997 548.705 651.562 548.705 652.262C548.705 652.962 548.91 653.527 549.321 653.956C549.741 654.385 550.273 654.6 550.917 654.6ZM558.946 649.616C559.45 648.832 560.337 648.44 561.606 648.44V650.106C561.457 650.078 561.322 650.064 561.2 650.064C560.519 650.064 559.987 650.265 559.604 650.666C559.222 651.058 559.03 651.627 559.03 652.374V656H557.28V648.524H558.946V649.616ZM571.143 648.524V654.866C571.143 657.498 569.799 658.814 567.111 658.814C566.392 658.814 565.711 658.721 565.067 658.534C564.423 658.357 563.891 658.095 563.471 657.75L564.255 656.434C564.581 656.705 564.992 656.919 565.487 657.078C565.991 657.246 566.499 657.33 567.013 657.33C567.834 657.33 568.436 657.143 568.819 656.77C569.201 656.397 569.393 655.827 569.393 655.062V654.67C569.094 654.997 568.73 655.244 568.301 655.412C567.871 655.58 567.4 655.664 566.887 655.664C566.177 655.664 565.533 655.515 564.955 655.216C564.385 654.908 563.933 654.479 563.597 653.928C563.27 653.377 563.107 652.747 563.107 652.038C563.107 651.329 563.27 650.703 563.597 650.162C563.933 649.611 564.385 649.187 564.955 648.888C565.533 648.589 566.177 648.44 566.887 648.44C567.428 648.44 567.918 648.529 568.357 648.706C568.805 648.883 569.178 649.154 569.477 649.518V648.524H571.143ZM567.153 654.18C567.815 654.18 568.357 653.984 568.777 653.592C569.206 653.191 569.421 652.673 569.421 652.038C569.421 651.413 569.206 650.904 568.777 650.512C568.357 650.12 567.815 649.924 567.153 649.924C566.481 649.924 565.93 650.12 565.501 650.512C565.081 650.904 564.871 651.413 564.871 652.038C564.871 652.673 565.081 653.191 565.501 653.592C565.93 653.984 566.481 654.18 567.153 654.18ZM577.503 656.098C576.747 656.098 576.066 655.935 575.459 655.608C574.853 655.281 574.377 654.829 574.031 654.25C573.695 653.662 573.527 652.999 573.527 652.262C573.527 651.525 573.695 650.867 574.031 650.288C574.377 649.709 574.853 649.257 575.459 648.93C576.066 648.603 576.747 648.44 577.503 648.44C578.269 648.44 578.955 648.603 579.561 648.93C580.168 649.257 580.639 649.709 580.975 650.288C581.321 650.867 581.493 651.525 581.493 652.262C581.493 652.999 581.321 653.662 580.975 654.25C580.639 654.829 580.168 655.281 579.561 655.608C578.955 655.935 578.269 656.098 577.503 656.098ZM577.503 654.6C578.147 654.6 578.679 654.385 579.099 653.956C579.519 653.527 579.729 652.962 579.729 652.262C579.729 651.562 579.519 650.997 579.099 650.568C578.679 650.139 578.147 649.924 577.503 649.924C576.859 649.924 576.327 650.139 575.907 650.568C575.497 650.997 575.291 651.562 575.291 652.262C575.291 652.962 575.497 653.527 575.907 653.956C576.327 654.385 576.859 654.6 577.503 654.6ZM588.361 655.594C588.155 655.762 587.903 655.888 587.605 655.972C587.315 656.056 587.007 656.098 586.681 656.098C585.859 656.098 585.225 655.883 584.777 655.454C584.329 655.025 584.105 654.399 584.105 653.578V649.98H582.873V648.58H584.105V646.872H585.855V648.58H587.857V649.98H585.855V653.536C585.855 653.9 585.943 654.18 586.121 654.376C586.298 654.563 586.555 654.656 586.891 654.656C587.283 654.656 587.609 654.553 587.871 654.348L588.361 655.594ZM599.269 646.2C600.119 646.2 600.856 646.34 601.481 646.62C602.116 646.9 602.601 647.301 602.937 647.824C603.273 648.347 603.441 648.967 603.441 649.686C603.441 650.395 603.273 651.016 602.937 651.548C602.601 652.071 602.116 652.472 601.481 652.752C600.856 653.032 600.119 653.172 599.269 653.172H597.057V656H595.237V646.2H599.269ZM599.185 651.632C599.979 651.632 600.581 651.464 600.991 651.128C601.402 650.792 601.607 650.311 601.607 649.686C601.607 649.061 601.402 648.58 600.991 648.244C600.581 647.908 599.979 647.74 599.185 647.74H597.057V651.632H599.185ZM608.579 648.44C609.68 648.44 610.52 648.706 611.099 649.238C611.687 649.761 611.981 650.554 611.981 651.618V656H610.329V655.09C610.114 655.417 609.806 655.669 609.405 655.846C609.013 656.014 608.537 656.098 607.977 656.098C607.417 656.098 606.927 656.005 606.507 655.818C606.087 655.622 605.76 655.356 605.527 655.02C605.303 654.675 605.191 654.287 605.191 653.858C605.191 653.186 605.438 652.649 605.933 652.248C606.437 651.837 607.225 651.632 608.299 651.632H610.231V651.52C610.231 650.997 610.072 650.596 609.755 650.316C609.447 650.036 608.985 649.896 608.369 649.896C607.949 649.896 607.533 649.961 607.123 650.092C606.721 650.223 606.381 650.405 606.101 650.638L605.415 649.364C605.807 649.065 606.278 648.837 606.829 648.678C607.379 648.519 607.963 648.44 608.579 648.44ZM608.341 654.824C608.779 654.824 609.167 654.726 609.503 654.53C609.848 654.325 610.091 654.035 610.231 653.662V652.794H608.425C607.417 652.794 606.913 653.125 606.913 653.788C606.913 654.105 607.039 654.357 607.291 654.544C607.543 654.731 607.893 654.824 608.341 654.824ZM617.237 656.098C616.63 656.098 616.037 656.019 615.459 655.86C614.88 655.701 614.418 655.501 614.073 655.258L614.745 653.928C615.081 654.152 615.482 654.334 615.949 654.474C616.425 654.605 616.891 654.67 617.349 654.67C618.394 654.67 618.917 654.395 618.917 653.844C618.917 653.583 618.781 653.401 618.511 653.298C618.249 653.195 617.825 653.097 617.237 653.004C616.621 652.911 616.117 652.803 615.725 652.682C615.342 652.561 615.006 652.351 614.717 652.052C614.437 651.744 614.297 651.319 614.297 650.778C614.297 650.069 614.591 649.504 615.179 649.084C615.776 648.655 616.579 648.44 617.587 648.44C618.1 648.44 618.613 648.501 619.127 648.622C619.64 648.734 620.06 648.888 620.387 649.084L619.715 650.414C619.08 650.041 618.366 649.854 617.573 649.854C617.059 649.854 616.667 649.933 616.397 650.092C616.135 650.241 616.005 650.442 616.005 650.694C616.005 650.974 616.145 651.175 616.425 651.296C616.714 651.408 617.157 651.515 617.755 651.618C618.352 651.711 618.842 651.819 619.225 651.94C619.607 652.061 619.934 652.267 620.205 652.556C620.485 652.845 620.625 653.256 620.625 653.788C620.625 654.488 620.321 655.048 619.715 655.468C619.108 655.888 618.282 656.098 617.237 656.098ZM625.142 656.098C624.535 656.098 623.942 656.019 623.364 655.86C622.785 655.701 622.323 655.501 621.978 655.258L622.65 653.928C622.986 654.152 623.387 654.334 623.854 654.474C624.33 654.605 624.796 654.67 625.254 654.67C626.299 654.67 626.822 654.395 626.822 653.844C626.822 653.583 626.686 653.401 626.416 653.298C626.154 653.195 625.73 653.097 625.142 653.004C624.526 652.911 624.022 652.803 623.63 652.682C623.247 652.561 622.911 652.351 622.622 652.052C622.342 651.744 622.202 651.319 622.202 650.778C622.202 650.069 622.496 649.504 623.084 649.084C623.681 648.655 624.484 648.44 625.492 648.44C626.005 648.44 626.518 648.501 627.032 648.622C627.545 648.734 627.965 648.888 628.292 649.084L627.62 650.414C626.985 650.041 626.271 649.854 625.478 649.854C624.964 649.854 624.572 649.933 624.302 650.092C624.04 650.241 623.91 650.442 623.91 650.694C623.91 650.974 624.05 651.175 624.33 651.296C624.619 651.408 625.062 651.515 625.66 651.618C626.257 651.711 626.747 651.819 627.13 651.94C627.512 652.061 627.839 652.267 628.11 652.556C628.39 652.845 628.53 653.256 628.53 653.788C628.53 654.488 628.226 655.048 627.62 655.468C627.013 655.888 626.187 656.098 625.142 656.098ZM642.262 648.524L639.504 656H637.824L635.892 650.848L633.932 656H632.252L629.508 648.524H631.16L633.134 654.04L635.192 648.524H636.662L638.678 654.068L640.708 648.524H642.262ZM647.32 656.098C646.564 656.098 645.883 655.935 645.276 655.608C644.669 655.281 644.193 654.829 643.848 654.25C643.512 653.662 643.344 652.999 643.344 652.262C643.344 651.525 643.512 650.867 643.848 650.288C644.193 649.709 644.669 649.257 645.276 648.93C645.883 648.603 646.564 648.44 647.32 648.44C648.085 648.44 648.771 648.603 649.378 648.93C649.985 649.257 650.456 649.709 650.792 650.288C651.137 650.867 651.31 651.525 651.31 652.262C651.31 652.999 651.137 653.662 650.792 654.25C650.456 654.829 649.985 655.281 649.378 655.608C648.771 655.935 648.085 656.098 647.32 656.098ZM647.32 654.6C647.964 654.6 648.496 654.385 648.916 653.956C649.336 653.527 649.546 652.962 649.546 652.262C649.546 651.562 649.336 650.997 648.916 650.568C648.496 650.139 647.964 649.924 647.32 649.924C646.676 649.924 646.144 650.139 645.724 650.568C645.313 650.997 645.108 651.562 645.108 652.262C645.108 652.962 645.313 653.527 645.724 653.956C646.144 654.385 646.676 654.6 647.32 654.6ZM655.35 649.616C655.854 648.832 656.74 648.44 658.01 648.44V650.106C657.86 650.078 657.725 650.064 657.604 650.064C656.922 650.064 656.39 650.265 656.008 650.666C655.625 651.058 655.434 651.627 655.434 652.374V656H653.684V648.524H655.35V649.616ZM667.448 645.612V656H665.768V655.034C665.478 655.389 665.119 655.655 664.69 655.832C664.27 656.009 663.803 656.098 663.29 656.098C662.571 656.098 661.922 655.939 661.344 655.622C660.774 655.305 660.326 654.857 660 654.278C659.673 653.69 659.51 653.018 659.51 652.262C659.51 651.506 659.673 650.839 660 650.26C660.326 649.681 660.774 649.233 661.344 648.916C661.922 648.599 662.571 648.44 663.29 648.44C663.784 648.44 664.237 648.524 664.648 648.692C665.058 648.86 665.408 649.112 665.698 649.448V645.612H667.448ZM663.5 654.6C663.92 654.6 664.298 654.507 664.634 654.32C664.97 654.124 665.236 653.849 665.432 653.494C665.628 653.139 665.726 652.729 665.726 652.262C665.726 651.795 665.628 651.385 665.432 651.03C665.236 650.675 664.97 650.405 664.634 650.218C664.298 650.022 663.92 649.924 663.5 649.924C663.08 649.924 662.702 650.022 662.366 650.218C662.03 650.405 661.764 650.675 661.568 651.03C661.372 651.385 661.274 651.795 661.274 652.262C661.274 652.729 661.372 653.139 661.568 653.494C661.764 653.849 662.03 654.124 662.366 654.32C662.702 654.507 663.08 654.6 663.5 654.6ZM676.966 652.752C676.966 652.248 677.078 651.833 677.302 651.506C677.536 651.17 677.872 650.806 678.31 650.414C678.646 650.115 678.894 649.859 679.052 649.644C679.22 649.42 679.304 649.168 679.304 648.888C679.304 648.496 679.146 648.179 678.828 647.936C678.511 647.693 678.086 647.572 677.554 647.572C676.546 647.572 675.786 647.931 675.272 648.65L673.914 647.768C674.316 647.217 674.834 646.797 675.468 646.508C676.103 646.209 676.85 646.06 677.708 646.06C678.754 646.06 679.584 646.289 680.2 646.746C680.826 647.194 681.138 647.815 681.138 648.608C681.138 648.991 681.073 649.327 680.942 649.616C680.821 649.905 680.672 650.153 680.494 650.358C680.317 650.554 680.084 650.783 679.794 651.044C679.44 651.361 679.174 651.641 678.996 651.884C678.828 652.127 678.744 652.416 678.744 652.752H676.966ZM677.862 656.098C677.536 656.098 677.265 655.995 677.05 655.79C676.845 655.575 676.742 655.314 676.742 655.006C676.742 654.698 676.845 654.441 677.05 654.236C677.265 654.031 677.536 653.928 677.862 653.928C678.18 653.928 678.441 654.031 678.646 654.236C678.861 654.441 678.968 654.698 678.968 655.006C678.968 655.314 678.861 655.575 678.646 655.79C678.441 655.995 678.18 656.098 677.862 656.098Z" fill="#FF003D"/>
<path d="M424.596 799.2H428.586C429.622 799.2 430.537 799.41 431.33 799.83C432.123 800.241 432.739 800.819 433.178 801.566C433.617 802.303 433.836 803.148 433.836 804.1C433.836 805.052 433.617 805.901 433.178 806.648C432.739 807.385 432.123 807.964 431.33 808.384C430.537 808.795 429.622 809 428.586 809H424.596V799.2ZM428.53 808.104C429.389 808.104 430.14 807.936 430.784 807.6C431.428 807.255 431.927 806.783 432.282 806.186C432.637 805.579 432.814 804.884 432.814 804.1C432.814 803.316 432.637 802.625 432.282 802.028C431.927 801.421 431.428 800.95 430.784 800.614C430.14 800.269 429.389 800.096 428.53 800.096H425.632V808.104H428.53ZM439.662 809.07C438.953 809.07 438.314 808.911 437.744 808.594C437.175 808.267 436.727 807.819 436.4 807.25C436.074 806.681 435.91 806.037 435.91 805.318C435.91 804.599 436.074 803.955 436.4 803.386C436.727 802.817 437.175 802.373 437.744 802.056C438.314 801.739 438.953 801.58 439.662 801.58C440.372 801.58 441.011 801.739 441.58 802.056C442.15 802.373 442.593 802.817 442.91 803.386C443.237 803.955 443.4 804.599 443.4 805.318C443.4 806.037 443.237 806.681 442.91 807.25C442.593 807.819 442.15 808.267 441.58 808.594C441.011 808.911 440.372 809.07 439.662 809.07ZM439.662 808.188C440.185 808.188 440.652 808.071 441.062 807.838C441.482 807.595 441.809 807.255 442.042 806.816C442.276 806.377 442.392 805.878 442.392 805.318C442.392 804.758 442.276 804.259 442.042 803.82C441.809 803.381 441.482 803.045 441.062 802.812C440.652 802.569 440.185 802.448 439.662 802.448C439.14 802.448 438.668 802.569 438.248 802.812C437.838 803.045 437.511 803.381 437.268 803.82C437.035 804.259 436.918 804.758 436.918 805.318C436.918 805.878 437.035 806.377 437.268 806.816C437.511 807.255 437.838 807.595 438.248 807.838C438.668 808.071 439.14 808.188 439.662 808.188ZM449.882 801.58C450.806 801.58 451.538 801.851 452.08 802.392C452.63 802.924 452.906 803.703 452.906 804.73V809H451.912V804.828C451.912 804.063 451.72 803.479 451.338 803.078C450.955 802.677 450.409 802.476 449.7 802.476C448.906 802.476 448.276 802.714 447.81 803.19C447.352 803.657 447.124 804.305 447.124 805.136V809H446.13V801.636H447.082V802.994C447.352 802.546 447.726 802.201 448.202 801.958C448.687 801.706 449.247 801.58 449.882 801.58ZM460.182 808.552C459.996 808.72 459.762 808.851 459.482 808.944C459.212 809.028 458.927 809.07 458.628 809.07C457.938 809.07 457.406 808.883 457.032 808.51C456.659 808.137 456.472 807.609 456.472 806.928V802.476H455.156V801.636H456.472V800.026H457.466V801.636H459.706V802.476H457.466V806.872C457.466 807.311 457.574 807.647 457.788 807.88C458.012 808.104 458.33 808.216 458.74 808.216C458.946 808.216 459.142 808.183 459.328 808.118C459.524 808.053 459.692 807.959 459.832 807.838L460.182 808.552ZM470.808 801.58C471.732 801.58 472.465 801.851 473.006 802.392C473.557 802.924 473.832 803.703 473.832 804.73V809H472.838V804.828C472.838 804.063 472.647 803.479 472.264 803.078C471.881 802.677 471.335 802.476 470.626 802.476C469.833 802.476 469.203 802.714 468.736 803.19C468.279 803.657 468.05 804.305 468.05 805.136V809H467.056V798.612H468.05V802.924C468.321 802.495 468.694 802.163 469.17 801.93C469.646 801.697 470.192 801.58 470.808 801.58ZM479.807 801.58C480.768 801.58 481.505 801.823 482.019 802.308C482.532 802.784 482.789 803.493 482.789 804.436V809H481.837V807.852C481.613 808.235 481.281 808.533 480.843 808.748C480.413 808.963 479.9 809.07 479.303 809.07C478.481 809.07 477.828 808.874 477.343 808.482C476.857 808.09 476.615 807.572 476.615 806.928C476.615 806.303 476.839 805.799 477.287 805.416C477.744 805.033 478.467 804.842 479.457 804.842H481.795V804.394C481.795 803.759 481.617 803.279 481.263 802.952C480.908 802.616 480.39 802.448 479.709 802.448C479.242 802.448 478.794 802.527 478.365 802.686C477.935 802.835 477.567 803.045 477.259 803.316L476.811 802.574C477.184 802.257 477.632 802.014 478.155 801.846C478.677 801.669 479.228 801.58 479.807 801.58ZM479.457 808.286C480.017 808.286 480.497 808.16 480.899 807.908C481.3 807.647 481.599 807.273 481.795 806.788V805.584H479.485C478.225 805.584 477.595 806.023 477.595 806.9C477.595 807.329 477.758 807.67 478.085 807.922C478.411 808.165 478.869 808.286 479.457 808.286ZM492.24 801.636L488.964 809H487.942L484.68 801.636H485.716L488.474 807.908L491.26 801.636H492.24ZM500.546 805.626H494.386C494.442 806.391 494.736 807.012 495.268 807.488C495.8 807.955 496.472 808.188 497.284 808.188C497.742 808.188 498.162 808.109 498.544 807.95C498.927 807.782 499.258 807.539 499.538 807.222L500.098 807.866C499.772 808.258 499.361 808.557 498.866 808.762C498.381 808.967 497.844 809.07 497.256 809.07C496.5 809.07 495.828 808.911 495.24 808.594C494.662 808.267 494.209 807.819 493.882 807.25C493.556 806.681 493.392 806.037 493.392 805.318C493.392 804.599 493.546 803.955 493.854 803.386C494.172 802.817 494.601 802.373 495.142 802.056C495.693 801.739 496.309 801.58 496.99 801.58C497.672 801.58 498.283 801.739 498.824 802.056C499.366 802.373 499.79 802.817 500.098 803.386C500.406 803.946 500.56 804.59 500.56 805.318L500.546 805.626ZM496.99 802.434C496.281 802.434 495.684 802.663 495.198 803.12C494.722 803.568 494.452 804.156 494.386 804.884H499.608C499.543 804.156 499.268 803.568 498.782 803.12C498.306 802.663 497.709 802.434 496.99 802.434ZM510.224 801.58C511.185 801.58 511.922 801.823 512.436 802.308C512.949 802.784 513.206 803.493 513.206 804.436V809H512.254V807.852C512.03 808.235 511.698 808.533 511.26 808.748C510.83 808.963 510.317 809.07 509.72 809.07C508.898 809.07 508.245 808.874 507.76 808.482C507.274 808.09 507.032 807.572 507.032 806.928C507.032 806.303 507.256 805.799 507.704 805.416C508.161 805.033 508.884 804.842 509.874 804.842H512.212V804.394C512.212 803.759 512.034 803.279 511.68 802.952C511.325 802.616 510.807 802.448 510.126 802.448C509.659 802.448 509.211 802.527 508.782 802.686C508.352 802.835 507.984 803.045 507.676 803.316L507.228 802.574C507.601 802.257 508.049 802.014 508.572 801.846C509.094 801.669 509.645 801.58 510.224 801.58ZM509.874 808.286C510.434 808.286 510.914 808.16 511.316 807.908C511.717 807.647 512.016 807.273 512.212 806.788V805.584H509.902C508.642 805.584 508.012 806.023 508.012 806.9C508.012 807.329 508.175 807.67 508.502 807.922C508.828 808.165 509.286 808.286 509.874 808.286ZM519.685 809.07C518.957 809.07 518.304 808.911 517.725 808.594C517.156 808.277 516.708 807.833 516.381 807.264C516.054 806.685 515.891 806.037 515.891 805.318C515.891 804.599 516.054 803.955 516.381 803.386C516.708 802.817 517.156 802.373 517.725 802.056C518.304 801.739 518.957 801.58 519.685 801.58C520.32 801.58 520.884 801.706 521.379 801.958C521.883 802.201 522.28 802.56 522.569 803.036L521.827 803.54C521.584 803.176 521.276 802.905 520.903 802.728C520.53 802.541 520.124 802.448 519.685 802.448C519.153 802.448 518.672 802.569 518.243 802.812C517.823 803.045 517.492 803.381 517.249 803.82C517.016 804.259 516.899 804.758 516.899 805.318C516.899 805.887 517.016 806.391 517.249 806.83C517.492 807.259 517.823 807.595 518.243 807.838C518.672 808.071 519.153 808.188 519.685 808.188C520.124 808.188 520.53 808.099 520.903 807.922C521.276 807.745 521.584 807.474 521.827 807.11L522.569 807.614C522.28 808.09 521.883 808.454 521.379 808.706C520.875 808.949 520.31 809.07 519.685 809.07ZM528.151 809.07C527.423 809.07 526.769 808.911 526.191 808.594C525.621 808.277 525.173 807.833 524.847 807.264C524.52 806.685 524.357 806.037 524.357 805.318C524.357 804.599 524.52 803.955 524.847 803.386C525.173 802.817 525.621 802.373 526.191 802.056C526.769 801.739 527.423 801.58 528.151 801.58C528.785 801.58 529.35 801.706 529.845 801.958C530.349 802.201 530.745 802.56 531.035 803.036L530.293 803.54C530.05 803.176 529.742 802.905 529.369 802.728C528.995 802.541 528.589 802.448 528.151 802.448C527.619 802.448 527.138 802.569 526.709 802.812C526.289 803.045 525.957 803.381 525.715 803.82C525.481 804.259 525.365 804.758 525.365 805.318C525.365 805.887 525.481 806.391 525.715 806.83C525.957 807.259 526.289 807.595 526.709 807.838C527.138 808.071 527.619 808.188 528.151 808.188C528.589 808.188 528.995 808.099 529.369 807.922C529.742 807.745 530.05 807.474 530.293 807.11L531.035 807.614C530.745 808.09 530.349 808.454 529.845 808.706C529.341 808.949 528.776 809.07 528.151 809.07ZM536.574 809.07C535.865 809.07 535.225 808.911 534.656 808.594C534.087 808.267 533.639 807.819 533.312 807.25C532.985 806.681 532.822 806.037 532.822 805.318C532.822 804.599 532.985 803.955 533.312 803.386C533.639 802.817 534.087 802.373 534.656 802.056C535.225 801.739 535.865 801.58 536.574 801.58C537.283 801.58 537.923 801.739 538.492 802.056C539.061 802.373 539.505 802.817 539.822 803.386C540.149 803.955 540.312 804.599 540.312 805.318C540.312 806.037 540.149 806.681 539.822 807.25C539.505 807.819 539.061 808.267 538.492 808.594C537.923 808.911 537.283 809.07 536.574 809.07ZM536.574 808.188C537.097 808.188 537.563 808.071 537.974 807.838C538.394 807.595 538.721 807.255 538.954 806.816C539.187 806.377 539.304 805.878 539.304 805.318C539.304 804.758 539.187 804.259 538.954 803.82C538.721 803.381 538.394 803.045 537.974 802.812C537.563 802.569 537.097 802.448 536.574 802.448C536.051 802.448 535.58 802.569 535.16 802.812C534.749 803.045 534.423 803.381 534.18 803.82C533.947 804.259 533.83 804.758 533.83 805.318C533.83 805.878 533.947 806.377 534.18 806.816C534.423 807.255 534.749 807.595 535.16 807.838C535.58 808.071 536.051 808.188 536.574 808.188ZM549.677 801.636V809H548.725V807.656C548.464 808.104 548.105 808.454 547.647 808.706C547.19 808.949 546.667 809.07 546.079 809.07C545.118 809.07 544.357 808.804 543.797 808.272C543.247 807.731 542.971 806.942 542.971 805.906V801.636H543.965V805.808C543.965 806.583 544.157 807.171 544.539 807.572C544.922 807.973 545.468 808.174 546.177 808.174C546.952 808.174 547.563 807.941 548.011 807.474C548.459 806.998 548.683 806.34 548.683 805.5V801.636H549.677ZM556.913 801.58C557.837 801.58 558.57 801.851 559.111 802.392C559.662 802.924 559.937 803.703 559.937 804.73V809H558.943V804.828C558.943 804.063 558.752 803.479 558.369 803.078C557.987 802.677 557.441 802.476 556.731 802.476C555.938 802.476 555.308 802.714 554.841 803.19C554.384 803.657 554.155 804.305 554.155 805.136V809H553.161V801.636H554.113V802.994C554.384 802.546 554.757 802.201 555.233 801.958C555.719 801.706 556.279 801.58 556.913 801.58ZM567.214 808.552C567.027 808.72 566.794 808.851 566.514 808.944C566.243 809.028 565.959 809.07 565.66 809.07C564.969 809.07 564.437 808.883 564.064 808.51C563.691 808.137 563.504 807.609 563.504 806.928V802.476H562.188V801.636H563.504V800.026H564.498V801.636H566.738V802.476H564.498V806.872C564.498 807.311 564.605 807.647 564.82 807.88C565.044 808.104 565.361 808.216 565.772 808.216C565.977 808.216 566.173 808.183 566.36 808.118C566.556 808.053 566.724 807.959 566.864 807.838L567.214 808.552ZM575.992 806.06C575.992 805.677 576.052 805.341 576.174 805.052C576.304 804.763 576.463 804.515 576.65 804.31C576.836 804.105 577.079 803.871 577.378 803.61C577.779 803.255 578.073 802.947 578.26 802.686C578.456 802.415 578.554 802.089 578.554 801.706C578.554 801.193 578.353 800.782 577.952 800.474C577.55 800.157 577 799.998 576.3 799.998C575.142 799.998 574.251 800.376 573.626 801.132L572.884 800.572C573.677 799.601 574.839 799.116 576.37 799.116C577.35 799.116 578.129 799.335 578.708 799.774C579.296 800.213 579.59 800.805 579.59 801.552C579.59 801.935 579.524 802.275 579.394 802.574C579.272 802.863 579.118 803.111 578.932 803.316C578.754 803.521 578.516 803.759 578.218 804.03C577.816 804.394 577.518 804.721 577.322 805.01C577.126 805.29 577.028 805.64 577.028 806.06H575.992ZM576.51 809.07C576.304 809.07 576.132 809 575.992 808.86C575.852 808.711 575.782 808.538 575.782 808.342C575.782 808.137 575.852 807.969 575.992 807.838C576.132 807.698 576.304 807.628 576.51 807.628C576.724 807.628 576.902 807.698 577.042 807.838C577.182 807.969 577.252 808.137 577.252 808.342C577.252 808.538 577.177 808.711 577.028 808.86C576.888 809 576.715 809.07 576.51 809.07ZM656.781 801.58C657.705 801.58 658.438 801.851 658.979 802.392C659.53 802.924 659.805 803.703 659.805 804.73V809H658.811V804.828C658.811 804.063 658.62 803.479 658.237 803.078C657.854 802.677 657.308 802.476 656.599 802.476C655.806 802.476 655.176 802.714 654.709 803.19C654.252 803.657 654.023 804.305 654.023 805.136V809H653.029V798.612H654.023V802.924C654.294 802.495 654.667 802.163 655.143 801.93C655.619 801.697 656.165 801.58 656.781 801.58ZM669.643 805.626H663.483C663.539 806.391 663.833 807.012 664.365 807.488C664.897 807.955 665.569 808.188 666.381 808.188C666.838 808.188 667.258 808.109 667.641 807.95C668.024 807.782 668.355 807.539 668.635 807.222L669.195 807.866C668.868 808.258 668.458 808.557 667.963 808.762C667.478 808.967 666.941 809.07 666.353 809.07C665.597 809.07 664.925 808.911 664.337 808.594C663.758 808.267 663.306 807.819 662.979 807.25C662.652 806.681 662.489 806.037 662.489 805.318C662.489 804.599 662.643 803.955 662.951 803.386C663.268 802.817 663.698 802.373 664.239 802.056C664.79 801.739 665.406 801.58 666.087 801.58C666.768 801.58 667.38 801.739 667.921 802.056C668.462 802.373 668.887 802.817 669.195 803.386C669.503 803.946 669.657 804.59 669.657 805.318L669.643 805.626ZM666.087 802.434C665.378 802.434 664.78 802.663 664.295 803.12C663.819 803.568 663.548 804.156 663.483 804.884H668.705C668.64 804.156 668.364 803.568 667.879 803.12C667.403 802.663 666.806 802.434 666.087 802.434ZM673.332 803.078C673.565 802.583 673.911 802.21 674.368 801.958C674.835 801.706 675.409 801.58 676.09 801.58V802.546L675.852 802.532C675.077 802.532 674.471 802.77 674.032 803.246C673.593 803.722 673.374 804.389 673.374 805.248V809H672.38V801.636H673.332V803.078ZM684.934 805.626H678.774C678.83 806.391 679.124 807.012 679.656 807.488C680.188 807.955 680.86 808.188 681.672 808.188C682.129 808.188 682.549 808.109 682.932 807.95C683.314 807.782 683.646 807.539 683.926 807.222L684.486 807.866C684.159 808.258 683.748 808.557 683.254 808.762C682.768 808.967 682.232 809.07 681.644 809.07C680.888 809.07 680.216 808.911 679.628 808.594C679.049 808.267 678.596 807.819 678.27 807.25C677.943 806.681 677.78 806.037 677.78 805.318C677.78 804.599 677.934 803.955 678.242 803.386C678.559 802.817 678.988 802.373 679.53 802.056C680.08 801.739 680.696 801.58 681.378 801.58C682.059 801.58 682.67 801.739 683.212 802.056C683.753 802.373 684.178 802.817 684.486 803.386C684.794 803.946 684.948 804.59 684.948 805.318L684.934 805.626ZM681.378 802.434C680.668 802.434 680.071 802.663 679.586 803.12C679.11 803.568 678.839 804.156 678.774 804.884H683.996C683.93 804.156 683.655 803.568 683.17 803.12C682.694 802.663 682.096 802.434 681.378 802.434Z" fill="#363232"/>
<path d="M590.063 809.14C589.307 809.14 588.574 809.033 587.865 808.818C587.165 808.603 586.61 808.319 586.199 807.964L586.829 806.55C587.23 806.867 587.72 807.129 588.299 807.334C588.887 807.53 589.475 807.628 590.063 807.628C590.791 807.628 591.332 807.511 591.687 807.278C592.051 807.045 592.233 806.737 592.233 806.354C592.233 806.074 592.13 805.845 591.925 805.668C591.729 805.481 591.477 805.337 591.169 805.234C590.861 805.131 590.441 805.015 589.909 804.884C589.162 804.707 588.556 804.529 588.089 804.352C587.632 804.175 587.235 803.899 586.899 803.526C586.572 803.143 586.409 802.63 586.409 801.986C586.409 801.445 586.554 800.955 586.843 800.516C587.142 800.068 587.585 799.713 588.173 799.452C588.77 799.191 589.498 799.06 590.357 799.06C590.954 799.06 591.542 799.135 592.121 799.284C592.7 799.433 593.199 799.648 593.619 799.928L593.045 801.342C592.616 801.09 592.168 800.899 591.701 800.768C591.234 800.637 590.782 800.572 590.343 800.572C589.624 800.572 589.088 800.693 588.733 800.936C588.388 801.179 588.215 801.501 588.215 801.902C588.215 802.182 588.313 802.411 588.509 802.588C588.714 802.765 588.971 802.905 589.279 803.008C589.587 803.111 590.007 803.227 590.539 803.358C591.267 803.526 591.864 803.703 592.331 803.89C592.798 804.067 593.194 804.343 593.521 804.716C593.857 805.089 594.025 805.593 594.025 806.228C594.025 806.769 593.876 807.259 593.577 807.698C593.288 808.137 592.844 808.487 592.247 808.748C591.65 809.009 590.922 809.14 590.063 809.14ZM596.362 801.524H598.112V809H596.362V801.524ZM597.244 800.292C596.926 800.292 596.66 800.194 596.446 799.998C596.231 799.793 596.124 799.541 596.124 799.242C596.124 798.943 596.231 798.696 596.446 798.5C596.66 798.295 596.926 798.192 597.244 798.192C597.561 798.192 597.827 798.29 598.042 798.486C598.256 798.673 598.364 798.911 598.364 799.2C598.364 799.508 598.256 799.769 598.042 799.984C597.836 800.189 597.57 800.292 597.244 800.292ZM608.529 801.524V807.866C608.529 810.498 607.185 811.814 604.497 811.814C603.778 811.814 603.097 811.721 602.453 811.534C601.809 811.357 601.277 811.095 600.857 810.75L601.641 809.434C601.967 809.705 602.378 809.919 602.873 810.078C603.377 810.246 603.885 810.33 604.399 810.33C605.22 810.33 605.822 810.143 606.205 809.77C606.587 809.397 606.779 808.827 606.779 808.062V807.67C606.48 807.997 606.116 808.244 605.687 808.412C605.257 808.58 604.786 808.664 604.273 808.664C603.563 808.664 602.919 808.515 602.341 808.216C601.771 807.908 601.319 807.479 600.983 806.928C600.656 806.377 600.493 805.747 600.493 805.038C600.493 804.329 600.656 803.703 600.983 803.162C601.319 802.611 601.771 802.187 602.341 801.888C602.919 801.589 603.563 801.44 604.273 801.44C604.814 801.44 605.304 801.529 605.743 801.706C606.191 801.883 606.564 802.154 606.863 802.518V801.524H608.529ZM604.539 807.18C605.201 807.18 605.743 806.984 606.163 806.592C606.592 806.191 606.807 805.673 606.807 805.038C606.807 804.413 606.592 803.904 606.163 803.512C605.743 803.12 605.201 802.924 604.539 802.924C603.867 802.924 603.316 803.12 602.887 803.512C602.467 803.904 602.257 804.413 602.257 805.038C602.257 805.673 602.467 806.191 602.887 806.592C603.316 806.984 603.867 807.18 604.539 807.18ZM615.771 801.44C616.714 801.44 617.47 801.715 618.039 802.266C618.609 802.817 618.893 803.633 618.893 804.716V809H617.143V804.94C617.143 804.287 616.989 803.797 616.681 803.47C616.373 803.134 615.935 802.966 615.365 802.966C614.721 802.966 614.213 803.162 613.839 803.554C613.466 803.937 613.279 804.492 613.279 805.22V809H611.529V801.524H613.195V802.49C613.485 802.145 613.849 801.883 614.287 801.706C614.726 801.529 615.221 801.44 615.771 801.44ZM630.764 809.14C629.411 809.14 628.356 808.762 627.6 808.006C626.844 807.241 626.466 806.149 626.466 804.73V799.2H628.286V804.66C628.286 806.583 629.117 807.544 630.778 807.544C632.43 807.544 633.256 806.583 633.256 804.66V799.2H635.048V804.73C635.048 806.149 634.67 807.241 633.914 808.006C633.168 808.762 632.118 809.14 630.764 809.14ZM642.273 801.44C643.001 801.44 643.65 801.599 644.219 801.916C644.798 802.233 645.251 802.681 645.577 803.26C645.904 803.839 646.067 804.506 646.067 805.262C646.067 806.018 645.904 806.69 645.577 807.278C645.251 807.857 644.798 808.305 644.219 808.622C643.65 808.939 643.001 809.098 642.273 809.098C641.265 809.098 640.467 808.762 639.879 808.09V811.716H638.129V801.524H639.795V802.504C640.085 802.149 640.439 801.883 640.859 801.706C641.289 801.529 641.76 801.44 642.273 801.44ZM642.077 807.6C642.721 807.6 643.249 807.385 643.659 806.956C644.079 806.527 644.289 805.962 644.289 805.262C644.289 804.562 644.079 803.997 643.659 803.568C643.249 803.139 642.721 802.924 642.077 802.924C641.657 802.924 641.279 803.022 640.943 803.218C640.607 803.405 640.341 803.675 640.145 804.03C639.949 804.385 639.851 804.795 639.851 805.262C639.851 805.729 639.949 806.139 640.145 806.494C640.341 806.849 640.607 807.124 640.943 807.32C641.279 807.507 641.657 807.6 642.077 807.6Z" fill="#05BBFC"/>
<path d="M145.22 289.36C141.74 289.36 139.028 288.388 137.084 286.444C135.14 284.476 134.168 281.668 134.168 278.02V263.8H138.848V277.84C138.848 282.784 140.984 285.256 145.256 285.256C149.504 285.256 151.628 282.784 151.628 277.84V263.8H156.236V278.02C156.236 281.668 155.264 284.476 153.32 286.444C151.4 288.388 148.7 289.36 145.22 289.36ZM161.53 263.8H166.21V289H161.53V263.8Z" fill="#F02D76"/>
<path d="M181.168 265.2C182.624 265.2 183.888 265.44 184.96 265.92C186.048 266.4 186.88 267.088 187.456 267.984C188.032 268.88 188.32 269.944 188.32 271.176C188.32 272.392 188.032 273.456 187.456 274.368C186.88 275.264 186.048 275.952 184.96 276.432C183.888 276.912 182.624 277.152 181.168 277.152H177.376V282H174.256V265.2H181.168ZM181.024 274.512C182.384 274.512 183.416 274.224 184.12 273.648C184.824 273.072 185.176 272.248 185.176 271.176C185.176 270.104 184.824 269.28 184.12 268.704C183.416 268.128 182.384 267.84 181.024 267.84H177.376V274.512H181.024ZM192.582 264.192H195.582V282H192.582V264.192ZM205.616 269.04C207.504 269.04 208.944 269.496 209.936 270.408C210.944 271.304 211.448 272.664 211.448 274.488V282H208.616V280.44C208.248 281 207.72 281.432 207.032 281.736C206.36 282.024 205.544 282.168 204.584 282.168C203.624 282.168 202.784 282.008 202.064 281.688C201.344 281.352 200.784 280.896 200.384 280.32C200 279.728 199.808 279.064 199.808 278.328C199.808 277.176 200.232 276.256 201.08 275.568C201.944 274.864 203.296 274.512 205.136 274.512H208.448V274.32C208.448 273.424 208.176 272.736 207.632 272.256C207.104 271.776 206.312 271.536 205.256 271.536C204.536 271.536 203.824 271.648 203.12 271.872C202.432 272.096 201.848 272.408 201.368 272.808L200.192 270.624C200.864 270.112 201.672 269.72 202.616 269.448C203.56 269.176 204.56 269.04 205.616 269.04ZM205.208 279.984C205.96 279.984 206.624 279.816 207.2 279.48C207.792 279.128 208.208 278.632 208.448 277.992V276.504H205.352C203.624 276.504 202.76 277.072 202.76 278.208C202.76 278.752 202.976 279.184 203.408 279.504C203.84 279.824 204.44 279.984 205.208 279.984ZM223.77 269.04C225.386 269.04 226.682 269.512 227.658 270.456C228.634 271.4 229.122 272.8 229.122 274.656V282H226.122V275.04C226.122 273.92 225.858 273.08 225.33 272.52C224.802 271.944 224.05 271.656 223.074 271.656C221.97 271.656 221.098 271.992 220.458 272.664C219.818 273.32 219.498 274.272 219.498 275.52V282H216.498V269.184H219.354V270.84C219.85 270.248 220.474 269.8 221.226 269.496C221.978 269.192 222.826 269.04 223.77 269.04ZM246.293 275.664C246.293 275.872 246.277 276.168 246.245 276.552H236.189C236.365 277.496 236.821 278.248 237.557 278.808C238.309 279.352 239.237 279.624 240.341 279.624C241.749 279.624 242.909 279.16 243.821 278.232L245.429 280.08C244.853 280.768 244.125 281.288 243.245 281.64C242.365 281.992 241.373 282.168 240.269 282.168C238.861 282.168 237.621 281.888 236.549 281.328C235.477 280.768 234.645 279.992 234.053 279C233.477 277.992 233.189 276.856 233.189 275.592C233.189 274.344 233.469 273.224 234.029 272.232C234.605 271.224 235.397 270.44 236.405 269.88C237.413 269.32 238.549 269.04 239.813 269.04C241.061 269.04 242.173 269.32 243.149 269.88C244.141 270.424 244.909 271.2 245.453 272.208C246.013 273.2 246.293 274.352 246.293 275.664ZM239.813 271.44C238.853 271.44 238.037 271.728 237.365 272.304C236.709 272.864 236.309 273.616 236.165 274.56H243.437C243.309 273.632 242.917 272.88 242.261 272.304C241.605 271.728 240.789 271.44 239.813 271.44ZM258.078 281.304C257.726 281.592 257.294 281.808 256.782 281.952C256.286 282.096 255.758 282.168 255.198 282.168C253.79 282.168 252.702 281.8 251.934 281.064C251.166 280.328 250.782 279.256 250.782 277.848V271.68H248.67V269.28H250.782V266.352H253.782V269.28H257.214V271.68H253.782V277.776C253.782 278.4 253.934 278.88 254.238 279.216C254.542 279.536 254.982 279.696 255.558 279.696C256.23 279.696 256.79 279.52 257.238 279.168L258.078 281.304Z" fill="#DA46B1"/>
<line x1="174" y1="287.5" x2="258" y2="287.5" stroke="#F02D76" stroke-width="3"/>
</g>
</g>
<defs>
<filter id="filter0_b" x="-250" y="-250" width="1600" height="1600" filterUnits="userSpaceOnUse" color-interpolation-filters="sRGB">
<feFlood flood-opacity="0" result="BackgroundImageFix"/>
<feGaussianBlur in="BackgroundImage" stdDeviation="125"/>
<feComposite in2="SourceAlpha" operator="in" result="effect1_backgroundBlur"/>
<feBlend mode="normal" in="SourceGraphic" in2="effect1_backgroundBlur" result="shape"/>
</filter>
<filter id="filter1_dd" x="48" y="179" width="1008" height="728" filterUnits="userSpaceOnUse" color-interpolation-filters="sRGB">
<feFlood flood-opacity="0" result="BackgroundImageFix"/>
<feColorMatrix in="SourceAlpha" type="matrix" values="0 0 0 0 0 0 0 0 0 0 0 0 0 0 0 0 0 0 127 0"/>
<feOffset dx="4" dy="4"/>
<feGaussianBlur stdDeviation="25"/>
<feColorMatrix type="matrix" values="0 0 0 0 0 0 0 0 0 0 0 0 0 0 0 0 0 0 0.5 0"/>
<feBlend mode="normal" in2="BackgroundImageFix" result="effect1_dropShadow"/>
<feColorMatrix in="SourceAlpha" type="matrix" values="0 0 0 0 0 0 0 0 0 0 0 0 0 0 0 0 0 0 127 0"/>
<feOffset dx="-4" dy="-4"/>
<feGaussianBlur stdDeviation="25"/>
<feColorMatrix type="matrix" values="0 0 0 0 1 0 0 0 0 1 0 0 0 0 1 0 0 0 1 0"/>
<feBlend mode="normal" in2="effect1_dropShadow" result="effect2_dropShadow"/>
<feBlend mode="normal" in="SourceGraphic" in2="effect2_dropShadow" result="shape"/>
</filter>
<linearGradient id="paint0_linear" x1="102" y1="888" x2="1171.83" y2="283.968" gradientUnits="userSpaceOnUse">
<stop stop-color="#D34DC2"/>
<stop offset="0.166641" stop-color="#F82460"/>
<stop offset="0.65989" stop-color="#DF40A2"/>
<stop offset="0.973958" stop-color="#F82461"/>
</linearGradient>
<linearGradient id="paint1_linear" x1="486.424" y1="750.25" x2="614.873" y2="641.965" gradientUnits="userSpaceOnUse">
<stop stop-color="#FD1F54"/>
<stop offset="0.953125" stop-color="#E13E9E"/>
</linearGradient>
<linearGradient id="paint2_linear" x1="817.587" y1="419.071" x2="406.677" y2="600.117" gradientUnits="userSpaceOnUse">
<stop stop-color="#BC67FF"/>
<stop offset="0.979167" stop-color="#FD1F54"/>
</linearGradient>
<clipPath id="clip0">
<rect width="900" height="620" fill="white" transform="translate(102 233)"/>
</clipPath>
</defs>
</svg>
