<svg width="1600" height="1600" fill="none" xmlns="http://www.w3.org/2000/svg"><path fill="#fff" d="M0 0h1600v1600H0z"/><path fill="#FFE0E6" d="M0 0h1600v1600H0z"/><g filter="url(#filter0_dii)"><rect x="242" y="289" width="470" height="926" rx="50" fill="#FFF6FA"/></g><g filter="url(#filter1_ii)"><rect x="249" y="302" width="456" height="900" rx="50" fill="#FBF3F8"/></g><rect x="249.25" y="302.25" width="455.5" height="899.5" rx="49.75" stroke="url(#paint0_linear)" stroke-opacity=".5" stroke-width=".5"/><g filter="url(#filter2_dd)"><rect x="580" y="617" width="103" height="415" rx="24" fill="#FBF3F8"/></g><g filter="url(#filter3_dd)"><rect x="580" y="1043" width="103" height="87" rx="24" fill="#FF5976"/></g><path d="M414.833 682.609h16.334" stroke="#2F1A35" stroke-width="3" stroke-linecap="round" stroke-linejoin="round"/><path d="M536.636 1083.36L529 1091m0-7.64l7.636 7.64m3.819-14h-16.546L515 1087.18l8.909 10.18h16.546c.675 0 1.322-.26 1.799-.74.478-.48.746-1.13.746-1.8v-15.27c0-.68-.268-1.33-.746-1.8a2.536 2.536 0 00-1.799-.75z" stroke="#2F1A35" stroke-width="2" stroke-linecap="round" stroke-linejoin="round"/><path d="M533.65 773.27c0 10.054-3.89 15.082-11.671 15.082-1.36 0-2.438-.118-3.235-.352v-2.514c.938.305 2.004.457 3.199.457 2.813 0 4.934-.867 6.364-2.601 1.441-1.746 2.226-4.418 2.355-8.016h-.211a6.32 6.32 0 01-2.566 2.233c-1.067.503-2.268.755-3.604.755-2.273 0-4.078-.679-5.414-2.039-1.336-1.359-2.004-3.257-2.004-5.695 0-2.672.744-4.781 2.233-6.328 1.5-1.547 3.468-2.32 5.906-2.32 1.746 0 3.269.451 4.57 1.353 1.313.891 2.321 2.197 3.024 3.92.703 1.711 1.054 3.733 1.054 6.065zm-8.648-8.842c-1.676 0-2.971.539-3.885 1.617-.914 1.078-1.371 2.578-1.371 4.5 0 1.687.422 3.017 1.266 3.99.843.961 2.127 1.442 3.849 1.442 1.067 0 2.045-.217 2.936-.651.902-.433 1.611-1.025 2.127-1.775.515-.75.773-1.535.773-2.356 0-1.23-.24-2.367-.72-3.41-.481-1.043-1.155-1.863-2.022-2.461-.855-.597-1.84-.896-2.953-.896z" fill="#2F1A35"/><g filter="url(#filter4_ii)"><rect x="262" y="584" width="241" height="421" rx="24" transform="rotate(-90 262 584)" fill="#FBF3F8"/></g><path d="M315.568 992h-2.847v-18.316c0-1.524.047-2.965.14-4.325-.246.246-.521.504-.826.774-.305.269-1.699 1.412-4.183 3.428l-1.547-2.004 6.802-5.256h2.461V992zM532.684 973.348c0 1.64-.463 2.982-1.389 4.025-.914 1.043-2.215 1.74-3.902 2.092v.14c2.062.258 3.591.915 4.587 1.969.997 1.055 1.495 2.438 1.495 4.149 0 2.449-.85 4.336-2.549 5.66-1.699 1.312-4.114 1.969-7.242 1.969-1.36 0-2.608-.106-3.745-.317a12.535 12.535 0 01-3.287-1.072v-2.777c1.114.55 2.297.972 3.551 1.265 1.266.281 2.461.422 3.586.422 4.441 0 6.662-1.74 6.662-5.221 0-3.117-2.449-4.675-7.347-4.675h-2.532v-2.514h2.567c2.004 0 3.591-.44 4.763-1.318 1.172-.891 1.758-2.122 1.758-3.692 0-1.254-.433-2.238-1.301-2.953-.855-.715-2.021-1.072-3.498-1.072-1.125 0-2.185.152-3.181.457-.996.304-2.133.867-3.41 1.687l-1.477-1.968c1.055-.833 2.268-1.483 3.639-1.952 1.382-.48 2.836-.72 4.359-.72 2.496 0 4.436.574 5.818 1.722 1.383 1.137 2.075 2.701 2.075 4.694zM320.863 885.094h-3.814V891h-2.795v-5.906h-12.498v-2.549l12.199-17.385h3.094v17.279h3.814v2.655zm-6.609-2.655v-8.543c0-1.675.058-3.568.176-5.677h-.141c-.562 1.125-1.09 2.056-1.582 2.795l-8.033 11.425h9.58zM417.791 875.303c2.707 0 4.834.674 6.381 2.021 1.558 1.336 2.338 3.17 2.338 5.502 0 2.66-.85 4.746-2.549 6.258-1.688 1.512-4.02 2.268-6.996 2.268-2.895 0-5.104-.463-6.627-1.389v-2.813c.82.528 1.84.944 3.058 1.248 1.219.293 2.42.44 3.604.44 2.062 0 3.662-.486 4.799-1.459 1.148-.973 1.722-2.379 1.722-4.219 0-3.586-2.197-5.379-6.591-5.379-1.114 0-2.602.17-4.465.51l-1.512-.967.967-12.023h12.779v2.689h-10.283l-.65 7.717a20.512 20.512 0 014.025-.404zM517.057 880.014c0-5.051.978-8.825 2.935-11.321 1.969-2.507 4.875-3.761 8.719-3.761 1.324 0 2.367.111 3.129.334v2.513c-.902-.293-1.934-.439-3.094-.439-2.754 0-4.857.861-6.31 2.584-1.454 1.711-2.25 4.406-2.391 8.086h.211c1.289-2.016 3.328-3.024 6.117-3.024 2.309 0 4.125.698 5.449 2.092 1.336 1.395 2.004 3.287 2.004 5.678 0 2.672-.732 4.775-2.197 6.31-1.453 1.524-3.422 2.286-5.906 2.286-2.661 0-4.77-.997-6.328-2.989-1.559-2.004-2.338-4.787-2.338-8.349zm8.631 8.859c1.664 0 2.953-.521 3.867-1.564.925-1.055 1.388-2.573 1.388-4.553 0-1.699-.427-3.035-1.283-4.008-.855-.973-2.133-1.459-3.832-1.459-1.055 0-2.021.217-2.9.65a5.452 5.452 0 00-2.11 1.793c-.515.762-.773 1.553-.773 2.373a8.13 8.13 0 00.703 3.375c.469 1.043 1.131 1.87 1.986 2.479.868.609 1.852.914 2.954.914zM306.01 788l10.652-23.01h-14.01v-2.689h17.104v2.338L309.244 788h-3.234zM428.791 1086.12c0 4.44-.703 7.75-2.109 9.94-1.395 2.2-3.534 3.29-6.416 3.29-2.766 0-4.87-1.12-6.311-3.36-1.441-2.25-2.162-5.54-2.162-9.87 0-4.48.697-7.8 2.092-9.97 1.394-2.17 3.521-3.25 6.381-3.25 2.789 0 4.904 1.13 6.345 3.39 1.453 2.26 2.18 5.54 2.18 9.83zm-14.045 0c0 3.73.44 6.46 1.318 8.17.879 1.7 2.28 2.55 4.202 2.55 1.945 0 3.351-.86 4.218-2.59.879-1.73 1.319-4.44 1.319-8.13 0-3.7-.44-6.4-1.319-8.11-.867-1.72-2.273-2.58-4.218-2.58-1.922 0-3.323.85-4.202 2.55-.878 1.68-1.318 4.4-1.318 8.14zM312.672 1088.14c0-.79.176-1.38.527-1.78.363-.41.879-.61 1.547-.61.68 0 1.207.2 1.582.61.387.4.58.99.58 1.78 0 .76-.193 1.34-.58 1.75-.387.41-.914.62-1.582.62-.598 0-1.096-.18-1.494-.55-.387-.37-.58-.98-.58-1.82z" fill="#2F1A35"/><path d="M426.65 998h-16.892v-2.514l6.767-6.802c2.063-2.086 3.422-3.575 4.079-4.465.656-.891 1.148-1.758 1.476-2.602a7.454 7.454 0 00.492-2.724c0-1.372-.416-2.455-1.248-3.252-.832-.809-1.986-1.213-3.463-1.213-1.066 0-2.08.176-3.041.527-.949.352-2.009.99-3.181 1.916l-1.547-1.986c2.367-1.969 4.945-2.953 7.734-2.953 2.414 0 4.307.621 5.678 1.863 1.371 1.23 2.057 2.889 2.057 4.975 0 1.628-.457 3.24-1.372 4.834-.914 1.593-2.625 3.609-5.132 6.046l-5.625 5.502v.141h13.218V998z" fill="#000"/><path d="M418.266 761.932c2.343 0 4.201.545 5.572 1.634 1.371 1.09 2.057 2.596 2.057 4.518 0 1.266-.393 2.42-1.178 3.463-.785 1.043-2.039 1.992-3.762 2.848 2.086.996 3.568 2.044 4.447 3.146.879 1.09 1.319 2.355 1.319 3.797 0 2.133-.744 3.838-2.233 5.115-1.488 1.266-3.527 1.899-6.117 1.899-2.742 0-4.851-.598-6.328-1.793-1.477-1.207-2.215-2.913-2.215-5.116 0-2.941 1.793-5.232 5.379-6.873-1.617-.914-2.777-1.898-3.48-2.953-.704-1.066-1.055-2.256-1.055-3.568 0-1.863.685-3.346 2.057-4.447 1.382-1.114 3.228-1.67 5.537-1.67zm-5.555 19.582c0 1.406.486 2.502 1.459 3.287.984.785 2.361 1.178 4.131 1.178 1.746 0 3.105-.411 4.078-1.231.973-.82 1.459-1.945 1.459-3.375 0-1.137-.457-2.144-1.371-3.023-.914-.891-2.508-1.752-4.781-2.584-1.747.75-3.012 1.582-3.797 2.496-.785.902-1.178 1.986-1.178 3.252zm5.519-17.209c-1.464 0-2.613.351-3.445 1.054-.832.703-1.248 1.641-1.248 2.813 0 1.078.346 2.004 1.037 2.777.692.774 1.969 1.547 3.832 2.321 1.676-.704 2.86-1.459 3.551-2.268a4.18 4.18 0 001.055-2.83c0-1.184-.428-2.121-1.283-2.813-.844-.703-2.01-1.054-3.499-1.054z" fill="#2F1A35"/><path d="M623 1083h18M623 1091h18" stroke="#FBF3F8" stroke-width="3" stroke-linecap="round" stroke-linejoin="round"/><path d="M308.594 684l-3.022-7.72h-9.728l-2.989 7.72H290l9.596-24.371h2.374L311.516 684h-2.922zm-3.902-10.26l-2.822-7.52c-.365-.952-.741-2.12-1.129-3.503a31.352 31.352 0 01-1.046 3.503l-2.855 7.52h7.852zm22.253-11.837c-2.667 0-4.776.891-6.325 2.673-1.538 1.771-2.308 4.2-2.308 7.288 0 3.177.742 5.634 2.225 7.371 1.494 1.727 3.619 2.59 6.375 2.59 1.693 0 3.625-.304 5.794-.913v2.474c-1.682.631-3.758.946-6.226.946-3.575 0-6.336-1.085-8.284-3.254-1.937-2.169-2.905-5.252-2.905-9.247 0-2.501.465-4.693 1.394-6.574.941-1.882 2.291-3.332 4.051-4.35 1.771-1.018 3.852-1.527 6.242-1.527 2.546 0 4.771.465 6.674 1.394l-1.195 2.424c-1.837-.863-3.675-1.295-5.512-1.295z" fill="#2F1A35"/><path d="M423 659.67v15.877M414.833 667.609h16.334" stroke="#2F1A35" stroke-width="3" stroke-linecap="round" stroke-linejoin="round"/><path d="M626.833 877.609h16.333M636 971.67v15.877M627.833 979.609h16.333M642 767.804l-14 13.609M628 767.804l14 13.609M623 675h28" stroke="#FF5976" stroke-width="3" stroke-linecap="round" stroke-linejoin="round"/><ellipse cx="637" cy="664.818" rx="3.5" ry="3.818" fill="#FF5976"/><ellipse cx="637" cy="685.182" rx="3.5" ry="3.818" fill="#FF5976"/><path d="M518.2 673.372c-1.8 0-3.252-.636-4.356-1.908-1.104-1.272-1.656-2.94-1.656-5.004 0-2.064.552-3.732 1.656-5.004 1.104-1.272 2.556-1.908 4.356-1.908 1.8 0 3.252.636 4.356 1.908 1.128 1.248 1.692 2.916 1.692 5.004 0 2.088-.564 3.768-1.692 5.04-1.104 1.248-2.556 1.872-4.356 1.872zm15.12-13.572h3.528L519.64 685h-3.528l17.208-25.2zm-15.12 11.052c.984 0 1.74-.384 2.268-1.152.552-.768.828-1.848.828-3.24 0-1.392-.276-2.472-.828-3.24-.528-.768-1.284-1.152-2.268-1.152-.936 0-1.692.396-2.268 1.188-.552.768-.828 1.836-.828 3.204s.276 2.448.828 3.24c.576.768 1.332 1.152 2.268 1.152zm16.524 14.4c-1.8 0-3.252-.636-4.356-1.908-1.104-1.272-1.656-2.94-1.656-5.004 0-2.064.552-3.732 1.656-5.004 1.104-1.272 2.556-1.908 4.356-1.908 1.8 0 3.252.636 4.356 1.908 1.128 1.272 1.692 2.94 1.692 5.004 0 2.064-.564 3.732-1.692 5.004-1.104 1.272-2.556 1.908-4.356 1.908zm0-2.52c.96 0 1.716-.384 2.268-1.152.552-.792.828-1.872.828-3.24s-.276-2.436-.828-3.204c-.552-.792-1.308-1.188-2.268-1.188-.96 0-1.716.384-2.268 1.152-.552.768-.828 1.848-.828 3.24 0 1.392.276 2.472.828 3.24.552.768 1.308 1.152 2.268 1.152z" fill="#2F1A35"/><g filter="url(#filter5_dii)"><rect x="856" y="432" width="470" height="926" rx="50" fill="#FFF6FA"/></g><g filter="url(#filter6_ii)"><rect x="863" y="445" width="456" height="900" rx="50" fill="#FBF3F8"/></g><rect x="863.25" y="445.25" width="455.5" height="899.5" rx="49.75" stroke="url(#paint1_linear)" stroke-opacity=".5" stroke-width=".5"/><g filter="url(#filter7_dd)"><rect x="1194" y="760" width="103" height="415" rx="24" fill="#FBF3F8"/></g><g filter="url(#filter8_ii)"><rect x="988" y="980" width="90" height="82" rx="24" fill="#FBF3F8"/></g><g filter="url(#filter9_dd)"><rect x="1194" y="1186" width="103" height="87" rx="24" fill="#FF5976"/></g><path d="M1028.83 825.609h16.34" stroke="#2F1A35" stroke-width="3" stroke-linecap="round" stroke-linejoin="round"/><path d="M1150.64 1226.36L1143 1234m0-7.64l7.64 7.64m3.81-14h-16.54l-8.91 10.18 8.91 10.18h16.54c.68 0 1.33-.26 1.8-.74.48-.48.75-1.13.75-1.8v-15.27c0-.68-.27-1.33-.75-1.8-.47-.48-1.12-.75-1.8-.75z" stroke="#2F1A35" stroke-width="2" stroke-linecap="round" stroke-linejoin="round"/><path d="M1147.65 916.27c0 10.054-3.89 15.082-11.67 15.082-1.36 0-2.44-.118-3.24-.352v-2.514c.94.305 2.01.457 3.2.457 2.82 0 4.94-.867 6.37-2.601 1.44-1.746 2.22-4.418 2.35-8.016h-.21a6.28 6.28 0 01-2.57 2.233c-1.06.503-2.26.755-3.6.755-2.27 0-4.08-.679-5.41-2.039-1.34-1.359-2.01-3.257-2.01-5.695 0-2.672.75-4.781 2.24-6.328 1.5-1.547 3.46-2.32 5.9-2.32 1.75 0 3.27.451 4.57 1.353 1.31.891 2.32 2.197 3.03 3.92.7 1.711 1.05 3.733 1.05 6.065zm-8.65-8.842c-1.67 0-2.97.539-3.88 1.617-.92 1.078-1.37 2.578-1.37 4.5 0 1.687.42 3.017 1.26 3.99.85.961 2.13 1.442 3.85 1.442 1.07 0 2.05-.217 2.94-.651.9-.433 1.61-1.025 2.12-1.775.52-.75.78-1.535.78-2.356 0-1.23-.24-2.367-.72-3.41-.48-1.043-1.16-1.863-2.02-2.461-.86-.597-1.84-.896-2.96-.896z" fill="#2F1A35"/><g filter="url(#filter10_ii)"><rect x="876" y="727" width="241" height="421" rx="24" transform="rotate(-90 876 727)" fill="#FBF3F8"/></g><path d="M929.568 1135h-2.847v-18.32c0-1.52.047-2.96.14-4.32-.246.25-.521.5-.826.77-.305.27-1.699 1.41-4.183 3.43l-1.547-2 6.802-5.26h2.461v25.7zM1146.68 1116.35c0 1.64-.46 2.98-1.39 4.02-.91 1.05-2.21 1.74-3.9 2.09v.15c2.07.25 3.59.91 4.59 1.96 1 1.06 1.49 2.44 1.49 4.15 0 2.45-.85 4.34-2.54 5.66-1.7 1.32-4.12 1.97-7.25 1.97-1.36 0-2.6-.1-3.74-.31-1.13-.2-2.22-.56-3.29-1.08v-2.77c1.12.55 2.3.97 3.55 1.26 1.27.28 2.46.42 3.59.42 4.44 0 6.66-1.74 6.66-5.22 0-3.11-2.45-4.67-7.35-4.67h-2.53v-2.52h2.57c2 0 3.59-.44 4.76-1.32 1.17-.89 1.76-2.12 1.76-3.69 0-1.25-.43-2.24-1.3-2.95-.86-.71-2.02-1.07-3.5-1.07-1.12 0-2.18.15-3.18.45-1 .31-2.13.87-3.41 1.69l-1.48-1.97a12.34 12.34 0 013.64-1.95c1.38-.48 2.84-.72 4.36-.72 2.5 0 4.44.58 5.82 1.72 1.38 1.14 2.07 2.71 2.07 4.7zM934.863 1028.09h-3.814v5.91h-2.795v-5.91h-12.498v-2.55l12.199-17.38h3.094v17.28h3.814v2.65zm-6.609-2.65v-8.54c0-1.68.058-3.57.176-5.68h-.141c-.562 1.12-1.09 2.06-1.582 2.79l-8.033 11.43h9.58zM1031.79 1018.3c2.71 0 4.83.68 6.38 2.02 1.56 1.34 2.34 3.17 2.34 5.51 0 2.66-.85 4.74-2.55 6.25-1.69 1.52-4.02 2.27-7 2.27-2.89 0-5.1-.46-6.62-1.39v-2.81c.82.53 1.84.94 3.06 1.25 1.22.29 2.42.44 3.6.44 2.06 0 3.66-.49 4.8-1.46 1.15-.97 1.72-2.38 1.72-4.22 0-3.59-2.2-5.38-6.59-5.38-1.11 0-2.6.17-4.47.51l-1.51-.97.97-12.02h12.78v2.69h-10.28l-.65 7.72c1.34-.27 2.69-.41 4.02-.41zM1131.06 1023.01c0-5.05.98-8.82 2.93-11.32 1.97-2.5 4.88-3.76 8.72-3.76 1.33 0 2.37.11 3.13.34v2.51c-.9-.29-1.93-.44-3.09-.44-2.76 0-4.86.86-6.31 2.58-1.46 1.71-2.25 4.41-2.4 8.09h.22c1.28-2.02 3.32-3.02 6.11-3.02 2.31 0 4.13.69 5.45 2.09 1.34 1.39 2.01 3.29 2.01 5.68 0 2.67-.74 4.77-2.2 6.31-1.45 1.52-3.42 2.28-5.91 2.28-2.66 0-4.77-.99-6.33-2.99-1.55-2-2.33-4.78-2.33-8.35zm8.63 8.86c1.66 0 2.95-.52 3.86-1.56.93-1.06 1.39-2.57 1.39-4.55 0-1.7-.42-3.04-1.28-4.01-.86-.97-2.13-1.46-3.83-1.46-1.06 0-2.02.22-2.9.65-.88.43-1.58 1.03-2.11 1.79-.52.76-.78 1.56-.78 2.38 0 1.2.24 2.33.71 3.37s1.13 1.87 1.98 2.48c.87.61 1.86.91 2.96.91zM920.01 931l10.652-23.01h-14.01v-2.689h17.104v2.338L923.244 931h-3.234zM1042.79 1229.12c0 4.44-.7 7.75-2.11 9.94-1.39 2.2-3.53 3.29-6.41 3.29-2.77 0-4.87-1.12-6.31-3.36-1.45-2.25-2.17-5.54-2.17-9.87 0-4.48.7-7.8 2.09-9.97 1.4-2.17 3.53-3.25 6.39-3.25 2.78 0 4.9 1.13 6.34 3.39 1.45 2.26 2.18 5.54 2.18 9.83zm-14.04 0c0 3.73.44 6.46 1.31 8.17.88 1.7 2.28 2.55 4.21 2.55 1.94 0 3.35-.86 4.21-2.59.88-1.73 1.32-4.44 1.32-8.13 0-3.7-.44-6.4-1.32-8.11-.86-1.72-2.27-2.58-4.21-2.58-1.93 0-3.33.85-4.21 2.55-.87 1.68-1.31 4.4-1.31 8.14zM926.672 1231.14c0-.79.176-1.38.527-1.78.363-.41.879-.61 1.547-.61.68 0 1.207.2 1.582.61.387.4.58.99.58 1.78 0 .76-.193 1.34-.58 1.75-.387.41-.914.62-1.582.62-.598 0-1.096-.18-1.494-.55-.387-.37-.58-.98-.58-1.82z" fill="#2F1A35"/><path d="M1040.65 1141h-16.89v-2.51l6.77-6.81c2.06-2.08 3.42-3.57 4.07-4.46.66-.89 1.15-1.76 1.48-2.6.33-.85.49-1.75.49-2.73 0-1.37-.41-2.45-1.25-3.25-.83-.81-1.98-1.21-3.46-1.21-1.07 0-2.08.17-3.04.53-.95.35-2.01.99-3.18 1.91l-1.55-1.99c2.37-1.96 4.95-2.95 7.74-2.95 2.41 0 4.3.62 5.67 1.86 1.38 1.24 2.06 2.89 2.06 4.98 0 1.63-.46 3.24-1.37 4.83-.91 1.6-2.63 3.61-5.13 6.05l-5.63 5.5v.14h13.22v2.71z" fill="#000"/><path d="M1032.27 904.932c2.34 0 4.2.545 5.57 1.634 1.37 1.09 2.05 2.596 2.05 4.518 0 1.266-.39 2.42-1.17 3.463-.79 1.043-2.04 1.992-3.76 2.848 2.08.996 3.56 2.044 4.44 3.146.88 1.09 1.32 2.355 1.32 3.797 0 2.133-.74 3.838-2.23 5.115-1.49 1.266-3.53 1.899-6.12 1.899-2.74 0-4.85-.598-6.33-1.793-1.47-1.207-2.21-2.913-2.21-5.116 0-2.941 1.79-5.232 5.38-6.873-1.62-.914-2.78-1.898-3.48-2.953-.71-1.066-1.06-2.256-1.06-3.568 0-1.863.69-3.346 2.06-4.447 1.38-1.114 3.23-1.67 5.54-1.67zm-5.56 19.582c0 1.406.49 2.502 1.46 3.287.98.785 2.36 1.178 4.13 1.178 1.75 0 3.11-.411 4.08-1.231.97-.82 1.46-1.945 1.46-3.375 0-1.137-.46-2.144-1.37-3.023-.92-.891-2.51-1.752-4.78-2.584-1.75.75-3.02 1.582-3.8 2.496-.79.902-1.18 1.986-1.18 3.252zm5.52-17.209c-1.46 0-2.61.351-3.44 1.054-.84.703-1.25 1.641-1.25 2.813 0 1.078.34 2.004 1.03 2.777.7.774 1.97 1.547 3.84 2.321 1.67-.704 2.86-1.459 3.55-2.268a4.19 4.19 0 001.05-2.83c0-1.184-.43-2.121-1.28-2.813-.85-.703-2.01-1.054-3.5-1.054z" fill="#2F1A35"/><path d="M1237 1226h18M1237 1234h18" stroke="#FBF3F8" stroke-width="3" stroke-linecap="round" stroke-linejoin="round"/><path d="M922.594 827l-3.022-7.72h-9.728l-2.989 7.72H904l9.596-24.371h2.374L925.516 827h-2.922zm-3.902-10.26l-2.822-7.52c-.365-.952-.741-2.12-1.129-3.503a31.352 31.352 0 01-1.046 3.503l-2.855 7.52h7.852zm22.253-11.837c-2.667 0-4.776.891-6.325 2.673-1.538 1.771-2.308 4.2-2.308 7.288 0 3.177.742 5.634 2.225 7.371 1.494 1.727 3.619 2.59 6.375 2.59 1.693 0 3.625-.304 5.794-.913v2.474c-1.682.631-3.758.946-6.226.946-3.575 0-6.336-1.085-8.284-3.254-1.937-2.169-2.905-5.252-2.905-9.247 0-2.501.465-4.693 1.394-6.574.941-1.882 2.291-3.332 4.051-4.35 1.771-1.018 3.852-1.527 6.242-1.527 2.546 0 4.771.465 6.674 1.394l-1.195 2.424c-1.837-.863-3.675-1.295-5.512-1.295z" fill="#2F1A35"/><path d="M1037 802.67v15.877M1028.83 810.609h16.34" stroke="#2F1A35" stroke-width="3" stroke-linecap="round" stroke-linejoin="round"/><path d="M1237.83 1020.61h16.34M1246 1114.67v15.88M1237.83 1122.61h16.34M1253 910.804l-14 13.609M1239 910.804l14 13.609M1232 818h28" stroke="#FF5976" stroke-width="3" stroke-linecap="round" stroke-linejoin="round"/><ellipse cx="1246" cy="807.818" rx="3.5" ry="3.818" fill="#FF5976"/><ellipse cx="1246" cy="828.182" rx="3.5" ry="3.818" fill="#FF5976"/><path d="M1132.2 816.372c-1.8 0-3.25-.636-4.36-1.908-1.1-1.272-1.65-2.94-1.65-5.004 0-2.064.55-3.732 1.65-5.004 1.11-1.272 2.56-1.908 4.36-1.908 1.8 0 3.25.636 4.36 1.908 1.12 1.248 1.69 2.916 1.69 5.004 0 2.088-.57 3.768-1.69 5.04-1.11 1.248-2.56 1.872-4.36 1.872zm15.12-13.572h3.53l-17.21 25.2h-3.53l17.21-25.2zm-15.12 11.052c.98 0 1.74-.384 2.27-1.152.55-.768.83-1.848.83-3.24 0-1.392-.28-2.472-.83-3.24-.53-.768-1.29-1.152-2.27-1.152-.94 0-1.69.396-2.27 1.188-.55.768-.83 1.836-.83 3.204s.28 2.448.83 3.24c.58.768 1.33 1.152 2.27 1.152zm16.52 14.4c-1.8 0-3.25-.636-4.35-1.908-1.11-1.272-1.66-2.94-1.66-5.004 0-2.064.55-3.732 1.66-5.004 1.1-1.272 2.55-1.908 4.35-1.908 1.8 0 3.26.636 4.36 1.908 1.13 1.272 1.69 2.94 1.69 5.004 0 2.064-.56 3.732-1.69 5.004-1.1 1.272-2.56 1.908-4.36 1.908zm0-2.52c.96 0 1.72-.384 2.27-1.152.55-.792.83-1.872.83-3.24s-.28-2.436-.83-3.204c-.55-.792-1.31-1.188-2.27-1.188s-1.71.384-2.26 1.152c-.56.768-.83 1.848-.83 3.24 0 1.392.27 2.472.83 3.24.55.768 1.3 1.152 2.26 1.152z" fill="#2F1A35"/><path d="M1199.27 569.932c2.34 0 4.2.545 5.57 1.634 1.37 1.09 2.05 2.596 2.05 4.518 0 1.266-.39 2.42-1.17 3.463-.79 1.043-2.04 1.992-3.76 2.848 2.08.996 3.56 2.044 4.44 3.146.88 1.09 1.32 2.355 1.32 3.797 0 2.133-.74 3.838-2.23 5.115-1.49 1.266-3.53 1.899-6.12 1.899-2.74 0-4.85-.598-6.33-1.793-1.47-1.207-2.21-2.913-2.21-5.116 0-2.941 1.79-5.232 5.38-6.873-1.62-.914-2.78-1.898-3.48-2.953-.71-1.066-1.06-2.256-1.06-3.568 0-1.863.69-3.346 2.06-4.447 1.38-1.114 3.23-1.67 5.54-1.67zm-5.56 19.582c0 1.406.49 2.502 1.46 3.287.98.785 2.36 1.178 4.13 1.178 1.75 0 3.11-.411 4.08-1.231.97-.82 1.46-1.945 1.46-3.375 0-1.137-.46-2.144-1.37-3.023-.92-.891-2.51-1.752-4.78-2.584-1.75.75-3.02 1.582-3.8 2.496-.79.902-1.18 1.986-1.18 3.252zm5.52-17.209c-1.46 0-2.61.351-3.44 1.054-.84.703-1.25 1.641-1.25 2.813 0 1.078.34 2.004 1.03 2.777.7.774 1.97 1.547 3.84 2.321 1.67-.704 2.86-1.459 3.55-2.268a4.19 4.19 0 001.05-2.83c0-1.184-.43-2.121-1.28-2.813-.85-.703-2.01-1.054-3.5-1.054zm55.42 7.998c2.7 0 4.83.674 6.38 2.021 1.56 1.336 2.34 3.17 2.34 5.502 0 2.66-.85 4.746-2.55 6.258-1.69 1.512-4.02 2.268-7 2.268-2.89 0-5.1-.463-6.63-1.389v-2.813c.82.528 1.84.944 3.06 1.248a15.4 15.4 0 003.61.44c2.06 0 3.66-.486 4.8-1.459 1.14-.973 1.72-2.379 1.72-4.219 0-3.586-2.2-5.379-6.59-5.379-1.12 0-2.61.17-4.47.51l-1.51-.967.97-12.023h12.78v2.689h-10.29l-.65 7.717c1.35-.269 2.69-.404 4.03-.404zM1233.48 651.125h-5.08V659h-3.73v-7.875h-16.66v-3.398l16.26-23.18h4.13v23.039h5.08v3.539zm-8.81-3.539v-11.391c0-2.234.08-4.757.24-7.57h-.19c-.75 1.5-1.45 2.742-2.11 3.727l-10.71 15.234h12.77zm37.25-5.766c0 5.922-.93 10.344-2.81 13.266-1.86 2.922-4.71 4.383-8.55 4.383-3.69 0-6.5-1.492-8.42-4.477-1.92-3-2.88-7.39-2.88-13.172 0-5.968.93-10.398 2.79-13.289 1.86-2.89 4.69-4.336 8.51-4.336 3.71 0 6.54 1.508 8.46 4.524 1.93 3.015 2.9 7.383 2.9 13.101zm-18.72 0c0 4.985.58 8.618 1.75 10.899 1.18 2.265 3.04 3.398 5.61 3.398 2.59 0 4.46-1.148 5.62-3.445 1.17-2.313 1.76-5.93 1.76-10.852 0-4.922-.59-8.523-1.76-10.804-1.16-2.297-3.03-3.446-5.62-3.446-2.57 0-4.43 1.133-5.61 3.399-1.17 2.25-1.75 5.867-1.75 10.851z" fill="#000"/><path d="M1235 575.804l-14 13.609M1221 575.804l14 13.609" stroke="#000" stroke-width="3" stroke-linecap="round" stroke-linejoin="round"/><mask id="a" maskUnits="userSpaceOnUse" x="249" y="301" width="455" height="100"><rect x="249" y="301" width="455" height="100" rx="50" fill="#C4C4C4"/></mask><g mask="url(#a)"><path opacity=".95" fill-rule="evenodd" clip-rule="evenodd" d="M249 302v25h452.026v-25H249z" fill="#FF5976"/><mask id="b" maskUnits="userSpaceOnUse" x="559" y="309" width="17" height="12"><path fill-rule="evenodd" clip-rule="evenodd" d="M559.272 309l7.931 12 7.93-12h-15.861z" fill="#fff"/></mask><g mask="url(#b)" fill-rule="evenodd" clip-rule="evenodd" fill="#fff"><path d="M567.203 309c-6.542 0-11.895 5.4-11.895 12s5.353 12 11.895 12c6.543 0 11.895-5.4 11.895-12s-5.352-12-11.895-12zm0 21c-4.957 0-8.922-4-8.922-9s3.965-9 8.922-9c4.956 0 8.921 4 8.921 9s-3.965 9-8.921 9z" fill-opacity=".3"/><path d="M567.203 312c-4.957 0-8.922 4-8.922 9s3.965 9 8.922 9c4.956 0 8.921-4 8.921-9s-3.965-9-8.921-9zm0 15c-3.271 0-5.948-2.7-5.948-6s2.677-6 5.948-6c3.271 0 5.948 2.7 5.948 6s-2.677 6-5.948 6z" fill-opacity=".9"/><path d="M567.203 315c-3.272 0-5.948 2.7-5.948 6s2.676 6 5.948 6c3.271 0 5.947-2.7 5.947-6s-2.676-6-5.947-6zm0 9c-1.685 0-2.974-1.3-2.974-3s1.289-3 2.974-3c1.685 0 2.974 1.3 2.974 3s-1.289 3-2.974 3z" fill-opacity=".9"/><path d="M567.202 324c1.643 0 2.974-1.343 2.974-3s-1.331-3-2.974-3c-1.642 0-2.973 1.343-2.973 3s1.331 3 2.973 3z" fill-opacity=".9"/></g><mask id="c" maskUnits="userSpaceOnUse" x="585" y="309" width="12" height="12"><path fill-rule="evenodd" clip-rule="evenodd" d="M596.941 321v-12l-11.895 12h11.895z" fill="#fff"/></mask><g mask="url(#c)" fill-rule="evenodd" clip-rule="evenodd" fill="#fff"><path d="M593.968 309v12h2.974v-12h-2.974zM590.993 309v12h2.974v-12h-2.974z" fill-opacity=".3"/><path d="M588.02 309v12h2.973v-12h-2.973z" fill-opacity=".9"/><path d="M585.046 309v12h2.974v-12h-2.974z" fill-opacity=".9"/></g><mask id="d" maskUnits="userSpaceOnUse" x="610" y="308" width="9" height="13"><path fill-rule="evenodd" clip-rule="evenodd" d="M617.757 309h-.991v-1h-3.965v1h-.991c-.595 0-.992.4-.992 1v10c0 .6.397 1 .992 1h5.947c.595 0 .992-.4.992-1v-10c0-.6-.397-1-.992-1z" fill="#fff"/></mask><g mask="url(#d)" fill-rule="evenodd" clip-rule="evenodd" fill="#fff"><path d="M610.818 318v3h7.931v-3h-7.931zM610.818 315v3h7.931v-3h-7.931z" fill-opacity=".9"/><path d="M610.818 312v3h7.931v-3h-7.931zM610.818 309v3h7.931v-3h-7.931zM612.802 308v1h3.965v-1h-3.965z" fill-opacity=".3"/></g><path d="M633.365 321h-1.453v-9.633l-2.914 1.071v-1.313l4.141-1.555h.226V321zm11.688 0H637.6v-1.039l3.937-4.375c.583-.662.984-1.198 1.203-1.609.224-.417.336-.847.336-1.289 0-.594-.18-1.081-.539-1.461-.359-.381-.838-.571-1.437-.571-.719 0-1.279.206-1.68.617-.396.407-.594.974-.594 1.704h-1.445c0-1.047.336-1.894 1.008-2.539.677-.646 1.58-.969 2.711-.969 1.057 0 1.893.278 2.507.836.615.552.922 1.289.922 2.211 0 1.119-.713 2.453-2.14 4l-3.047 3.304h5.711V321zm1.633-.758c0-.25.072-.458.218-.625.151-.166.375-.25.672-.25.297 0 .521.084.672.25a.88.88 0 01.234.625c0 .24-.078.44-.234.602-.151.161-.375.242-.672.242-.297 0-.521-.081-.672-.242a.864.864 0 01-.218-.602zm.007-6.898c0-.25.073-.459.219-.625.151-.167.375-.25.672-.25.297 0 .521.083.672.25a.878.878 0 01.234.625.83.83 0 01-.234.601c-.151.162-.375.243-.672.243-.297 0-.521-.081-.672-.243a.862.862 0 01-.219-.601zm5.868 1.265h1.085c.683-.01 1.219-.19 1.61-.539.39-.349.586-.82.586-1.414 0-1.333-.664-2-1.992-2-.625 0-1.125.18-1.5.539-.37.354-.555.826-.555 1.414h-1.445c0-.901.328-1.648.984-2.242.661-.599 1.5-.898 2.516-.898 1.073 0 1.914.284 2.523.851.609.568.914 1.357.914 2.368 0 .494-.161.973-.484 1.437-.318.464-.753.81-1.305 1.039.625.198 1.107.526 1.445.984.344.459.516 1.019.516 1.68 0 1.021-.333 1.831-1 2.43-.667.599-1.534.898-2.602.898-1.067 0-1.937-.289-2.609-.867-.667-.578-1-1.341-1-2.289h1.453c0 .599.195 1.078.586 1.438.391.359.914.539 1.57.539.698 0 1.232-.183 1.602-.547.37-.365.555-.888.555-1.571 0-.661-.203-1.169-.61-1.523-.406-.354-.992-.537-1.758-.547h-1.085v-1.18zm14.015 1.539c0 1.693-.289 2.951-.867 3.774-.578.823-1.482 1.234-2.711 1.234-1.213 0-2.112-.401-2.695-1.203-.584-.807-.886-2.01-.907-3.609v-1.93c0-1.672.29-2.914.868-3.726.578-.813 1.484-1.219 2.718-1.219 1.224 0 2.125.393 2.704 1.179.578.782.875 1.99.89 3.625v1.875zm-1.445-1.976c0-1.224-.172-2.115-.516-2.672-.344-.562-.888-.844-1.633-.844-.739 0-1.278.279-1.617.836-.338.557-.513 1.414-.523 2.57v2.313c0 1.229.177 2.138.531 2.727.359.583.901.875 1.625.875.714 0 1.242-.276 1.586-.829.349-.552.531-1.421.547-2.609v-2.367z" fill="#fff" opacity=".9"/></g><mask id="e" maskUnits="userSpaceOnUse" x="863" y="444" width="455" height="100"><rect x="863" y="444" width="455" height="100" rx="50" fill="#C4C4C4"/></mask><g mask="url(#e)"><path opacity=".95" fill-rule="evenodd" clip-rule="evenodd" d="M863 445v25h452.03v-25H863z" fill="#FF5976"/><mask id="f" maskUnits="userSpaceOnUse" x="1173" y="452" width="17" height="12"><path fill-rule="evenodd" clip-rule="evenodd" d="M1173.27 452l7.93 12 7.93-12h-15.86z" fill="#fff"/></mask><g mask="url(#f)" fill-rule="evenodd" clip-rule="evenodd" fill="#fff"><path d="M1181.2 452c-6.54 0-11.89 5.4-11.89 12s5.35 12 11.89 12c6.55 0 11.9-5.4 11.9-12s-5.35-12-11.9-12zm0 21c-4.95 0-8.92-4-8.92-9s3.97-9 8.92-9c4.96 0 8.92 4 8.92 9s-3.96 9-8.92 9z" fill-opacity=".3"/><path d="M1181.2 455c-4.95 0-8.92 4-8.92 9s3.97 9 8.92 9c4.96 0 8.92-4 8.92-9s-3.96-9-8.92-9zm0 15c-3.27 0-5.94-2.7-5.94-6s2.67-6 5.94-6c3.27 0 5.95 2.7 5.95 6s-2.68 6-5.95 6z" fill-opacity=".9"/><path d="M1181.2 458c-3.27 0-5.95 2.7-5.95 6s2.68 6 5.95 6 5.95-2.7 5.95-6-2.68-6-5.95-6zm0 9c-1.68 0-2.97-1.3-2.97-3s1.29-3 2.97-3c1.69 0 2.98 1.3 2.98 3s-1.29 3-2.98 3z" fill-opacity=".9"/><path d="M1181.2 467c1.64 0 2.98-1.343 2.98-3s-1.34-3-2.98-3-2.97 1.343-2.97 3 1.33 3 2.97 3z" fill-opacity=".9"/></g><mask id="g" maskUnits="userSpaceOnUse" x="1199" y="452" width="12" height="12"><path fill-rule="evenodd" clip-rule="evenodd" d="M1210.94 464v-12l-11.89 12h11.89z" fill="#fff"/></mask><g mask="url(#g)" fill-rule="evenodd" clip-rule="evenodd" fill="#fff"><path d="M1207.97 452v12h2.97v-12h-2.97zM1204.99 452v12h2.98v-12h-2.98z" fill-opacity=".3"/><path d="M1202.02 452v12h2.97v-12h-2.97zM1199.05 452v12h2.97v-12h-2.97z" fill-opacity=".9"/></g><mask id="h" maskUnits="userSpaceOnUse" x="1224" y="451" width="9" height="13"><path fill-rule="evenodd" clip-rule="evenodd" d="M1231.76 452h-.99v-1h-3.97v1h-.99c-.6 0-.99.4-.99 1v10c0 .6.39 1 .99 1h5.95c.59 0 .99-.4.99-1v-10c0-.6-.4-1-.99-1z" fill="#fff"/></mask><g mask="url(#h)" fill-rule="evenodd" clip-rule="evenodd" fill="#fff"><path d="M1224.82 461v3h7.93v-3h-7.93zM1224.82 458v3h7.93v-3h-7.93z" fill-opacity=".9"/><path d="M1224.82 455v3h7.93v-3h-7.93zM1224.82 452v3h7.93v-3h-7.93zM1226.8 451v1h3.97v-1h-3.97z" fill-opacity=".3"/></g><path d="M1247.37 464h-1.46v-9.633l-2.91 1.071v-1.313l4.14-1.555h.23V464zm11.68 0h-7.45v-1.039l3.94-4.375c.58-.662.98-1.198 1.2-1.609.22-.417.34-.847.34-1.289 0-.594-.18-1.081-.54-1.461-.36-.381-.84-.571-1.44-.571-.72 0-1.28.206-1.68.617-.4.407-.59.974-.59 1.704h-1.45c0-1.047.34-1.894 1.01-2.539.68-.646 1.58-.969 2.71-.969 1.06 0 1.89.278 2.51.836.61.552.92 1.289.92 2.211 0 1.119-.71 2.453-2.14 4l-3.05 3.304h5.71V464zm1.64-.758c0-.25.07-.458.21-.625.16-.166.38-.25.68-.25.29 0 .52.084.67.25.15.167.23.375.23.625 0 .24-.08.44-.23.602-.15.161-.38.242-.67.242-.3 0-.52-.081-.68-.242a.887.887 0 01-.21-.602zm0-6.898c0-.25.08-.459.22-.625.15-.167.38-.25.67-.25.3 0 .52.083.68.25.15.166.23.375.23.625 0 .239-.08.44-.23.601-.16.162-.38.243-.68.243-.29 0-.52-.081-.67-.243a.892.892 0 01-.22-.601zm5.87 1.265h1.09c.68-.01 1.22-.19 1.61-.539.39-.349.58-.82.58-1.414 0-1.333-.66-2-1.99-2-.63 0-1.13.18-1.5.539-.37.354-.56.826-.56 1.414h-1.44c0-.901.33-1.648.98-2.242.67-.599 1.5-.898 2.52-.898 1.07 0 1.91.284 2.52.851.61.568.92 1.357.92 2.368 0 .494-.16.973-.49 1.437-.31.464-.75.81-1.3 1.039.62.198 1.1.526 1.44.984.35.459.52 1.019.52 1.68 0 1.021-.33 1.831-1 2.43-.67.599-1.53.898-2.6.898s-1.94-.289-2.61-.867c-.67-.578-1-1.341-1-2.289h1.45c0 .599.2 1.078.59 1.438.39.359.91.539 1.57.539.7 0 1.23-.183 1.6-.547.37-.365.55-.888.55-1.571 0-.661-.2-1.169-.61-1.523-.4-.354-.99-.537-1.75-.547h-1.09v-1.18zm14.02 1.539c0 1.693-.29 2.951-.87 3.774-.58.823-1.48 1.234-2.71 1.234-1.22 0-2.11-.401-2.7-1.203-.58-.807-.88-2.01-.9-3.609v-1.93c0-1.672.29-2.914.86-3.726.58-.813 1.49-1.219 2.72-1.219 1.23 0 2.13.393 2.71 1.179.57.782.87 1.99.89 3.625v1.875zm-1.45-1.976c0-1.224-.17-2.115-.51-2.672-.35-.562-.89-.844-1.64-.844-.74 0-1.28.279-1.61.836-.34.557-.52 1.414-.53 2.57v2.313c0 1.229.18 2.138.53 2.727.36.583.9.875 1.63.875.71 0 1.24-.276 1.58-.829.35-.552.54-1.421.55-2.609v-2.367z" fill="#fff" opacity=".9"/></g><defs><filter id="filter0_dii" x="212" y="269" width="620" height="1046" filterUnits="userSpaceOnUse" color-interpolation-filters="sRGB"><feFlood flood-opacity="0" result="BackgroundImageFix"/><feColorMatrix in="SourceAlpha" values="0 0 0 0 0 0 0 0 0 0 0 0 0 0 0 0 0 0 127 0"/><feOffset dx="60" dy="40"/><feGaussianBlur stdDeviation="30"/><feColorMatrix values="0 0 0 0 0.419608 0 0 0 0 0.498039 0 0 0 0 0.6 0 0 0 0.2 0"/><feBlend in2="BackgroundImageFix" result="effect1_dropShadow"/><feBlend in="SourceGraphic" in2="effect1_dropShadow" result="shape"/><feColorMatrix in="SourceAlpha" values="0 0 0 0 0 0 0 0 0 0 0 0 0 0 0 0 0 0 127 0" result="hardAlpha"/><feOffset dx="-30" dy="-2"/><feGaussianBlur stdDeviation="15"/><feComposite in2="hardAlpha" operator="arithmetic" k2="-1" k3="1"/><feColorMatrix values="0 0 0 0 0.25098 0 0 0 0 0.321569 0 0 0 0 0.501961 0 0 0 0.12 0"/><feBlend in2="shape" result="effect2_innerShadow"/><feColorMatrix in="SourceAlpha" values="0 0 0 0 0 0 0 0 0 0 0 0 0 0 0 0 0 0 127 0" result="hardAlpha"/><feOffset dx="30" dy="2"/><feGaussianBlur stdDeviation="15"/><feComposite in2="hardAlpha" operator="arithmetic" k2="-1" k3="1"/><feColorMatrix values="0 0 0 0 0.996078 0 0 0 0 0.960784 0 0 0 0 0.976471 0 0 0 1 0"/><feBlend in2="effect2_innerShadow" result="effect3_innerShadow"/></filter><filter id="filter1_ii" x="219" y="300" width="516" height="904" filterUnits="userSpaceOnUse" color-interpolation-filters="sRGB"><feFlood flood-opacity="0" result="BackgroundImageFix"/><feBlend in="SourceGraphic" in2="BackgroundImageFix" result="shape"/><feColorMatrix in="SourceAlpha" values="0 0 0 0 0 0 0 0 0 0 0 0 0 0 0 0 0 0 127 0" result="hardAlpha"/><feOffset dx="-30" dy="-2"/><feGaussianBlur stdDeviation="15"/><feComposite in2="hardAlpha" operator="arithmetic" k2="-1" k3="1"/><feColorMatrix values="0 0 0 0 0.25098 0 0 0 0 0.321569 0 0 0 0 0.501961 0 0 0 0.08 0"/><feBlend in2="shape" result="effect1_innerShadow"/><feColorMatrix in="SourceAlpha" values="0 0 0 0 0 0 0 0 0 0 0 0 0 0 0 0 0 0 127 0" result="hardAlpha"/><feOffset dx="30" dy="2"/><feGaussianBlur stdDeviation="15"/><feComposite in2="hardAlpha" operator="arithmetic" k2="-1" k3="1"/><feColorMatrix values="0 0 0 0 1 0 0 0 0 0.977214 0 0 0 0 0.987341 0 0 0 0.3 0"/><feBlend in2="effect1_innerShadow" result="effect2_innerShadow"/></filter><filter id="filter2_dd" x="547" y="584" width="158" height="470" filterUnits="userSpaceOnUse" color-interpolation-filters="sRGB"><feFlood flood-opacity="0" result="BackgroundImageFix"/><feColorMatrix in="SourceAlpha" values="0 0 0 0 0 0 0 0 0 0 0 0 0 0 0 0 0 0 127 0"/><feMorphology radius="7" operator="dilate" in="SourceAlpha" result="effect1_dropShadow"/><feOffset dx="-6" dy="-6"/><feGaussianBlur stdDeviation="10"/><feColorMatrix values="0 0 0 0 1 0 0 0 0 1 0 0 0 0 1 0 0 0 1 0"/><feBlend in2="BackgroundImageFix" result="effect1_dropShadow"/><feColorMatrix in="SourceAlpha" values="0 0 0 0 0 0 0 0 0 0 0 0 0 0 0 0 0 0 127 0"/><feMorphology radius="1" operator="dilate" in="SourceAlpha" result="effect2_dropShadow"/><feOffset dx="6" dy="6"/><feGaussianBlur stdDeviation="7.5"/><feColorMatrix values="0 0 0 0 0 0 0 0 0 0 0 0 0 0 0 0 0 0 0.15 0"/><feBlend in2="effect1_dropShadow" result="effect2_dropShadow"/><feBlend in="SourceGraphic" in2="effect2_dropShadow" result="shape"/></filter><filter id="filter3_dd" x="547" y="1010" width="158" height="142" filterUnits="userSpaceOnUse" color-interpolation-filters="sRGB"><feFlood flood-opacity="0" result="BackgroundImageFix"/><feColorMatrix in="SourceAlpha" values="0 0 0 0 0 0 0 0 0 0 0 0 0 0 0 0 0 0 127 0"/><feMorphology radius="7" operator="dilate" in="SourceAlpha" result="effect1_dropShadow"/><feOffset dx="-6" dy="-6"/><feGaussianBlur stdDeviation="10"/><feColorMatrix values="0 0 0 0 1 0 0 0 0 1 0 0 0 0 1 0 0 0 1 0"/><feBlend in2="BackgroundImageFix" result="effect1_dropShadow"/><feColorMatrix in="SourceAlpha" values="0 0 0 0 0 0 0 0 0 0 0 0 0 0 0 0 0 0 127 0"/><feMorphology radius="1" operator="dilate" in="SourceAlpha" result="effect2_dropShadow"/><feOffset dx="6" dy="6"/><feGaussianBlur stdDeviation="7.5"/><feColorMatrix values="0 0 0 0 0 0 0 0 0 0 0 0 0 0 0 0 0 0 0.15 0"/><feBlend in2="effect1_dropShadow" result="effect2_dropShadow"/><feBlend in="SourceGraphic" in2="effect2_dropShadow" result="shape"/></filter><filter id="filter4_ii" x="254" y="335" width="437" height="257" filterUnits="userSpaceOnUse" color-interpolation-filters="sRGB"><feFlood flood-opacity="0" result="BackgroundImageFix"/><feBlend in="SourceGraphic" in2="BackgroundImageFix" result="shape"/><feColorMatrix in="SourceAlpha" values="0 0 0 0 0 0 0 0 0 0 0 0 0 0 0 0 0 0 127 0" result="hardAlpha"/><feOffset dx="8" dy="8"/><feGaussianBlur stdDeviation="6"/><feComposite in2="hardAlpha" operator="arithmetic" k2="-1" k3="1"/><feColorMatrix values="0 0 0 0 0.960784 0 0 0 0 0.960784 0 0 0 0 0.960784 0 0 0 1 0"/><feBlend in2="shape" result="effect1_innerShadow"/><feColorMatrix in="SourceAlpha" values="0 0 0 0 0 0 0 0 0 0 0 0 0 0 0 0 0 0 127 0" result="hardAlpha"/><feOffset dx="-8" dy="-8"/><feGaussianBlur stdDeviation="6"/><feComposite in2="hardAlpha" operator="arithmetic" k2="-1" k3="1"/><feColorMatrix values="0 0 0 0 0 0 0 0 0 0 0 0 0 0 0 0 0 0 0.15 0"/><feBlend in2="effect1_innerShadow" result="effect2_innerShadow"/></filter><filter id="filter5_dii" x="826" y="412" width="620" height="1046" filterUnits="userSpaceOnUse" color-interpolation-filters="sRGB"><feFlood flood-opacity="0" result="BackgroundImageFix"/><feColorMatrix in="SourceAlpha" values="0 0 0 0 0 0 0 0 0 0 0 0 0 0 0 0 0 0 127 0"/><feOffset dx="60" dy="40"/><feGaussianBlur stdDeviation="30"/><feColorMatrix values="0 0 0 0 0.419608 0 0 0 0 0.498039 0 0 0 0 0.6 0 0 0 0.2 0"/><feBlend in2="BackgroundImageFix" result="effect1_dropShadow"/><feBlend in="SourceGraphic" in2="effect1_dropShadow" result="shape"/><feColorMatrix in="SourceAlpha" values="0 0 0 0 0 0 0 0 0 0 0 0 0 0 0 0 0 0 127 0" result="hardAlpha"/><feOffset dx="-30" dy="-2"/><feGaussianBlur stdDeviation="15"/><feComposite in2="hardAlpha" operator="arithmetic" k2="-1" k3="1"/><feColorMatrix values="0 0 0 0 0.25098 0 0 0 0 0.321569 0 0 0 0 0.501961 0 0 0 0.12 0"/><feBlend in2="shape" result="effect2_innerShadow"/><feColorMatrix in="SourceAlpha" values="0 0 0 0 0 0 0 0 0 0 0 0 0 0 0 0 0 0 127 0" result="hardAlpha"/><feOffset dx="30" dy="2"/><feGaussianBlur stdDeviation="15"/><feComposite in2="hardAlpha" operator="arithmetic" k2="-1" k3="1"/><feColorMatrix values="0 0 0 0 0.996078 0 0 0 0 0.960784 0 0 0 0 0.976471 0 0 0 1 0"/><feBlend in2="effect2_innerShadow" result="effect3_innerShadow"/></filter><filter id="filter6_ii" x="833" y="443" width="516" height="904" filterUnits="userSpaceOnUse" color-interpolation-filters="sRGB"><feFlood flood-opacity="0" result="BackgroundImageFix"/><feBlend in="SourceGraphic" in2="BackgroundImageFix" result="shape"/><feColorMatrix in="SourceAlpha" values="0 0 0 0 0 0 0 0 0 0 0 0 0 0 0 0 0 0 127 0" result="hardAlpha"/><feOffset dx="-30" dy="-2"/><feGaussianBlur stdDeviation="15"/><feComposite in2="hardAlpha" operator="arithmetic" k2="-1" k3="1"/><feColorMatrix values="0 0 0 0 0.25098 0 0 0 0 0.321569 0 0 0 0 0.501961 0 0 0 0.08 0"/><feBlend in2="shape" result="effect1_innerShadow"/><feColorMatrix in="SourceAlpha" values="0 0 0 0 0 0 0 0 0 0 0 0 0 0 0 0 0 0 127 0" result="hardAlpha"/><feOffset dx="30" dy="2"/><feGaussianBlur stdDeviation="15"/><feComposite in2="hardAlpha" operator="arithmetic" k2="-1" k3="1"/><feColorMatrix values="0 0 0 0 1 0 0 0 0 0.977214 0 0 0 0 0.987341 0 0 0 0.3 0"/><feBlend in2="effect1_innerShadow" result="effect2_innerShadow"/></filter><filter id="filter7_dd" x="1161" y="727" width="158" height="470" filterUnits="userSpaceOnUse" color-interpolation-filters="sRGB"><feFlood flood-opacity="0" result="BackgroundImageFix"/><feColorMatrix in="SourceAlpha" values="0 0 0 0 0 0 0 0 0 0 0 0 0 0 0 0 0 0 127 0"/><feMorphology radius="7" operator="dilate" in="SourceAlpha" result="effect1_dropShadow"/><feOffset dx="-6" dy="-6"/><feGaussianBlur stdDeviation="10"/><feColorMatrix values="0 0 0 0 1 0 0 0 0 1 0 0 0 0 1 0 0 0 1 0"/><feBlend in2="BackgroundImageFix" result="effect1_dropShadow"/><feColorMatrix in="SourceAlpha" values="0 0 0 0 0 0 0 0 0 0 0 0 0 0 0 0 0 0 127 0"/><feMorphology radius="1" operator="dilate" in="SourceAlpha" result="effect2_dropShadow"/><feOffset dx="6" dy="6"/><feGaussianBlur stdDeviation="7.5"/><feColorMatrix values="0 0 0 0 0 0 0 0 0 0 0 0 0 0 0 0 0 0 0.15 0"/><feBlend in2="effect1_dropShadow" result="effect2_dropShadow"/><feBlend in="SourceGraphic" in2="effect2_dropShadow" result="shape"/></filter><filter id="filter8_ii" x="984" y="976" width="98" height="90" filterUnits="userSpaceOnUse" color-interpolation-filters="sRGB"><feFlood flood-opacity="0" result="BackgroundImageFix"/><feBlend in="SourceGraphic" in2="BackgroundImageFix" result="shape"/><feColorMatrix in="SourceAlpha" values="0 0 0 0 0 0 0 0 0 0 0 0 0 0 0 0 0 0 127 0" result="hardAlpha"/><feOffset dx="4" dy="4"/><feGaussianBlur stdDeviation="6"/><feComposite in2="hardAlpha" operator="arithmetic" k2="-1" k3="1"/><feColorMatrix values="0 0 0 0 1 0 0 0 0 1 0 0 0 0 1 0 0 0 1 0"/><feBlend in2="shape" result="effect1_innerShadow"/><feColorMatrix in="SourceAlpha" values="0 0 0 0 0 0 0 0 0 0 0 0 0 0 0 0 0 0 127 0" result="hardAlpha"/><feOffset dx="-4" dy="-4"/><feGaussianBlur stdDeviation="6"/><feComposite in2="hardAlpha" operator="arithmetic" k2="-1" k3="1"/><feColorMatrix values="0 0 0 0 0 0 0 0 0 0 0 0 0 0 0 0 0 0 0.15 0"/><feBlend in2="effect1_innerShadow" result="effect2_innerShadow"/></filter><filter id="filter9_dd" x="1161" y="1153" width="158" height="142" filterUnits="userSpaceOnUse" color-interpolation-filters="sRGB"><feFlood flood-opacity="0" result="BackgroundImageFix"/><feColorMatrix in="SourceAlpha" values="0 0 0 0 0 0 0 0 0 0 0 0 0 0 0 0 0 0 127 0"/><feMorphology radius="7" operator="dilate" in="SourceAlpha" result="effect1_dropShadow"/><feOffset dx="-6" dy="-6"/><feGaussianBlur stdDeviation="10"/><feColorMatrix values="0 0 0 0 1 0 0 0 0 1 0 0 0 0 1 0 0 0 1 0"/><feBlend in2="BackgroundImageFix" result="effect1_dropShadow"/><feColorMatrix in="SourceAlpha" values="0 0 0 0 0 0 0 0 0 0 0 0 0 0 0 0 0 0 127 0"/><feMorphology radius="1" operator="dilate" in="SourceAlpha" result="effect2_dropShadow"/><feOffset dx="6" dy="6"/><feGaussianBlur stdDeviation="7.5"/><feColorMatrix values="0 0 0 0 0 0 0 0 0 0 0 0 0 0 0 0 0 0 0.15 0"/><feBlend in2="effect1_dropShadow" result="effect2_dropShadow"/><feBlend in="SourceGraphic" in2="effect2_dropShadow" result="shape"/></filter><filter id="filter10_ii" x="868" y="478" width="437" height="257" filterUnits="userSpaceOnUse" color-interpolation-filters="sRGB"><feFlood flood-opacity="0" result="BackgroundImageFix"/><feBlend in="SourceGraphic" in2="BackgroundImageFix" result="shape"/><feColorMatrix in="SourceAlpha" values="0 0 0 0 0 0 0 0 0 0 0 0 0 0 0 0 0 0 127 0" result="hardAlpha"/><feOffset dx="8" dy="8"/><feGaussianBlur stdDeviation="6"/><feComposite in2="hardAlpha" operator="arithmetic" k2="-1" k3="1"/><feColorMatrix values="0 0 0 0 0.960784 0 0 0 0 0.960784 0 0 0 0 0.960784 0 0 0 1 0"/><feBlend in2="shape" result="effect1_innerShadow"/><feColorMatrix in="SourceAlpha" values="0 0 0 0 0 0 0 0 0 0 0 0 0 0 0 0 0 0 127 0" result="hardAlpha"/><feOffset dx="-8" dy="-8"/><feGaussianBlur stdDeviation="6"/><feComposite in2="hardAlpha" operator="arithmetic" k2="-1" k3="1"/><feColorMatrix values="0 0 0 0 0 0 0 0 0 0 0 0 0 0 0 0 0 0 0.15 0"/><feBlend in2="effect1_innerShadow" result="effect2_innerShadow"/></filter><linearGradient id="paint0_linear" x1="477" y1="302" x2="477" y2="1202" gradientUnits="userSpaceOnUse"><stop stop-color="#D3D7DB"/><stop offset="1" stop-color="#CED2D6"/></linearGradient><linearGradient id="paint1_linear" x1="1091" y1="445" x2="1091" y2="1345" gradientUnits="userSpaceOnUse"><stop stop-color="#D3D7DB"/><stop offset="1" stop-color="#CED2D6"/></linearGradient></defs></svg>