<svg width="1600" height="1600" viewBox="0 0 1600 1600" fill="none" xmlns="http://www.w3.org/2000/svg">
<rect width="1600" height="1600" fill="white"/>
<rect width="1600" height="1600" fill="#FFE0E6"/>
<g filter="url(#filter0_dii)">
<rect x="242" y="289" width="470" height="926" rx="50" fill="#FFF6FA"/>
</g>
<g filter="url(#filter1_ii)">
<rect x="249" y="302" width="456" height="900" rx="50" fill="#FBF3F8"/>
</g>
<rect x="249.25" y="302.25" width="455.5" height="899.5" rx="49.75" stroke="url(#paint0_linear)" stroke-opacity="0.5" stroke-width="0.5"/>
<g filter="url(#filter2_dd)">
<rect x="580" y="617" width="103" height="415" rx="24" fill="#FBF3F8"/>
</g>
<g filter="url(#filter3_dd)">
<rect x="580" y="1043" width="103" height="87" rx="24" fill="#FF5976"/>
</g>
<path d="M414.833 682.609H431.167" stroke="#2F1A35" stroke-width="3" stroke-linecap="round" stroke-linejoin="round"/>
<path d="M536.636 1083.36L529 1091M529 1083.36L536.636 1091M540.455 1077H523.909L515 1087.18L523.909 1097.36H540.455C541.13 1097.36 541.777 1097.1 542.254 1096.62C542.732 1096.14 543 1095.49 543 1094.82V1079.55C543 1078.87 542.732 1078.22 542.254 1077.75C541.777 1077.27 541.13 1077 540.455 1077Z" stroke="#2F1A35" stroke-width="2" stroke-linecap="round" stroke-linejoin="round"/>
<path d="M533.65 773.27C533.65 783.324 529.76 788.352 521.979 788.352C520.619 788.352 519.541 788.234 518.744 788V785.486C519.682 785.791 520.748 785.943 521.943 785.943C524.756 785.943 526.877 785.076 528.307 783.342C529.748 781.596 530.533 778.924 530.662 775.326H530.451C529.807 776.299 528.951 777.043 527.885 777.559C526.818 778.062 525.617 778.314 524.281 778.314C522.008 778.314 520.203 777.635 518.867 776.275C517.531 774.916 516.863 773.018 516.863 770.58C516.863 767.908 517.607 765.799 519.096 764.252C520.596 762.705 522.564 761.932 525.002 761.932C526.748 761.932 528.271 762.383 529.572 763.285C530.885 764.176 531.893 765.482 532.596 767.205C533.299 768.916 533.65 770.938 533.65 773.27ZM525.002 764.428C523.326 764.428 522.031 764.967 521.117 766.045C520.203 767.123 519.746 768.623 519.746 770.545C519.746 772.232 520.168 773.562 521.012 774.535C521.855 775.496 523.139 775.977 524.861 775.977C525.928 775.977 526.906 775.76 527.797 775.326C528.699 774.893 529.408 774.301 529.924 773.551C530.439 772.801 530.697 772.016 530.697 771.195C530.697 769.965 530.457 768.828 529.977 767.785C529.496 766.742 528.822 765.922 527.955 765.324C527.1 764.727 526.115 764.428 525.002 764.428Z" fill="#2F1A35"/>
<g filter="url(#filter4_ii)">
<rect x="262" y="584" width="241" height="421" rx="24" transform="rotate(-90 262 584)" fill="#FBF3F8"/>
</g>
<path d="M315.568 992H312.721V973.684C312.721 972.16 312.768 970.719 312.861 969.359C312.615 969.605 312.34 969.863 312.035 970.133C311.73 970.402 310.336 971.545 307.852 973.561L306.305 971.557L313.107 966.301H315.568V992Z" fill="#2F1A35"/>
<path d="M532.684 973.348C532.684 974.988 532.221 976.33 531.295 977.373C530.381 978.416 529.08 979.113 527.393 979.465V979.605C529.455 979.863 530.984 980.52 531.98 981.574C532.977 982.629 533.475 984.012 533.475 985.723C533.475 988.172 532.625 990.059 530.926 991.383C529.227 992.695 526.812 993.352 523.684 993.352C522.324 993.352 521.076 993.246 519.939 993.035C518.814 992.836 517.719 992.479 516.652 991.963V989.186C517.766 989.736 518.949 990.158 520.203 990.451C521.469 990.732 522.664 990.873 523.789 990.873C528.23 990.873 530.451 989.133 530.451 985.652C530.451 982.535 528.002 980.977 523.104 980.977H520.572V978.463H523.139C525.143 978.463 526.73 978.023 527.902 977.145C529.074 976.254 529.66 975.023 529.66 973.453C529.66 972.199 529.227 971.215 528.359 970.5C527.504 969.785 526.338 969.428 524.861 969.428C523.736 969.428 522.676 969.58 521.68 969.885C520.684 970.189 519.547 970.752 518.27 971.572L516.793 969.604C517.848 968.771 519.061 968.121 520.432 967.652C521.814 967.172 523.268 966.932 524.791 966.932C527.287 966.932 529.227 967.506 530.609 968.654C531.992 969.791 532.684 971.355 532.684 973.348Z" fill="#2F1A35"/>
<path d="M320.863 885.094H317.049V891H314.254V885.094H301.756V882.545L313.955 865.16H317.049V882.439H320.863V885.094ZM314.254 882.439V873.896C314.254 872.221 314.312 870.328 314.43 868.219H314.289C313.727 869.344 313.199 870.275 312.707 871.014L304.674 882.439H314.254Z" fill="#2F1A35"/>
<path d="M417.791 875.303C420.498 875.303 422.625 875.977 424.172 877.324C425.73 878.66 426.51 880.494 426.51 882.826C426.51 885.486 425.66 887.572 423.961 889.084C422.273 890.596 419.941 891.352 416.965 891.352C414.07 891.352 411.861 890.889 410.338 889.963V887.15C411.158 887.678 412.178 888.094 413.396 888.398C414.615 888.691 415.816 888.838 417 888.838C419.062 888.838 420.662 888.352 421.799 887.379C422.947 886.406 423.521 885 423.521 883.16C423.521 879.574 421.324 877.781 416.93 877.781C415.816 877.781 414.328 877.951 412.465 878.291L410.953 877.324L411.92 865.301H424.699V867.99H414.416L413.766 875.707C415.113 875.438 416.455 875.303 417.791 875.303Z" fill="#2F1A35"/>
<path d="M517.057 880.014C517.057 874.963 518.035 871.189 519.992 868.693C521.961 866.186 524.867 864.932 528.711 864.932C530.035 864.932 531.078 865.043 531.84 865.266V867.779C530.938 867.486 529.906 867.34 528.746 867.34C525.992 867.34 523.889 868.201 522.436 869.924C520.982 871.635 520.186 874.33 520.045 878.01H520.256C521.545 875.994 523.584 874.986 526.373 874.986C528.682 874.986 530.498 875.684 531.822 877.078C533.158 878.473 533.826 880.365 533.826 882.756C533.826 885.428 533.094 887.531 531.629 889.066C530.176 890.59 528.207 891.352 525.723 891.352C523.062 891.352 520.953 890.355 519.395 888.363C517.836 886.359 517.057 883.576 517.057 880.014ZM525.688 888.873C527.352 888.873 528.641 888.352 529.555 887.309C530.48 886.254 530.943 884.736 530.943 882.756C530.943 881.057 530.516 879.721 529.66 878.748C528.805 877.775 527.527 877.289 525.828 877.289C524.773 877.289 523.807 877.506 522.928 877.939C522.049 878.373 521.346 878.971 520.818 879.732C520.303 880.494 520.045 881.285 520.045 882.105C520.045 883.312 520.279 884.438 520.748 885.48C521.217 886.523 521.879 887.35 522.734 887.959C523.602 888.568 524.586 888.873 525.688 888.873Z" fill="#2F1A35"/>
<path d="M306.01 788L316.662 764.99H302.652V762.301H319.756V764.639L309.244 788H306.01Z" fill="#2F1A35"/>
<path d="M428.791 1086.12C428.791 1090.56 428.088 1093.87 426.682 1096.06C425.287 1098.26 423.148 1099.35 420.266 1099.35C417.5 1099.35 415.396 1098.23 413.955 1095.99C412.514 1093.74 411.793 1090.45 411.793 1086.12C411.793 1081.64 412.49 1078.32 413.885 1076.15C415.279 1073.98 417.406 1072.9 420.266 1072.9C423.055 1072.9 425.17 1074.03 426.611 1076.29C428.064 1078.55 428.791 1081.83 428.791 1086.12ZM414.746 1086.12C414.746 1089.85 415.186 1092.58 416.064 1094.29C416.943 1095.99 418.344 1096.84 420.266 1096.84C422.211 1096.84 423.617 1095.98 424.484 1094.25C425.363 1092.52 425.803 1089.81 425.803 1086.12C425.803 1082.42 425.363 1079.72 424.484 1078.01C423.617 1076.29 422.211 1075.43 420.266 1075.43C418.344 1075.43 416.943 1076.28 416.064 1077.98C415.186 1079.66 414.746 1082.38 414.746 1086.12Z" fill="#2F1A35"/>
<path d="M312.672 1088.14C312.672 1087.35 312.848 1086.76 313.199 1086.36C313.562 1085.95 314.078 1085.75 314.746 1085.75C315.426 1085.75 315.953 1085.95 316.328 1086.36C316.715 1086.76 316.908 1087.35 316.908 1088.14C316.908 1088.9 316.715 1089.48 316.328 1089.89C315.941 1090.3 315.414 1090.51 314.746 1090.51C314.148 1090.51 313.65 1090.33 313.252 1089.96C312.865 1089.59 312.672 1088.98 312.672 1088.14Z" fill="#2F1A35"/>
<path d="M426.65 998H409.758V995.486L416.525 988.684C418.588 986.598 419.947 985.109 420.604 984.219C421.26 983.328 421.752 982.461 422.08 981.617C422.408 980.773 422.572 979.865 422.572 978.893C422.572 977.521 422.156 976.438 421.324 975.641C420.492 974.832 419.338 974.428 417.861 974.428C416.795 974.428 415.781 974.604 414.82 974.955C413.871 975.307 412.811 975.945 411.639 976.871L410.092 974.885C412.459 972.916 415.037 971.932 417.826 971.932C420.24 971.932 422.133 972.553 423.504 973.795C424.875 975.025 425.561 976.684 425.561 978.77C425.561 980.398 425.104 982.01 424.189 983.604C423.275 985.197 421.564 987.213 419.057 989.65L413.432 995.152V995.293H426.65V998Z" fill="black"/>
<path d="M418.266 761.932C420.609 761.932 422.467 762.477 423.838 763.566C425.209 764.656 425.895 766.162 425.895 768.084C425.895 769.35 425.502 770.504 424.717 771.547C423.932 772.59 422.678 773.539 420.955 774.395C423.041 775.391 424.523 776.439 425.402 777.541C426.281 778.631 426.721 779.896 426.721 781.338C426.721 783.471 425.977 785.176 424.488 786.453C423 787.719 420.961 788.352 418.371 788.352C415.629 788.352 413.52 787.754 412.043 786.559C410.566 785.352 409.828 783.646 409.828 781.443C409.828 778.502 411.621 776.211 415.207 774.57C413.59 773.656 412.43 772.672 411.727 771.617C411.023 770.551 410.672 769.361 410.672 768.049C410.672 766.186 411.357 764.703 412.729 763.602C414.111 762.488 415.957 761.932 418.266 761.932ZM412.711 781.514C412.711 782.92 413.197 784.016 414.17 784.801C415.154 785.586 416.531 785.979 418.301 785.979C420.047 785.979 421.406 785.568 422.379 784.748C423.352 783.928 423.838 782.803 423.838 781.373C423.838 780.236 423.381 779.229 422.467 778.35C421.553 777.459 419.959 776.598 417.686 775.766C415.939 776.516 414.674 777.348 413.889 778.262C413.104 779.164 412.711 780.248 412.711 781.514ZM418.23 764.305C416.766 764.305 415.617 764.656 414.785 765.359C413.953 766.062 413.537 767 413.537 768.172C413.537 769.25 413.883 770.176 414.574 770.949C415.266 771.723 416.543 772.496 418.406 773.27C420.082 772.566 421.266 771.811 421.957 771.002C422.66 770.193 423.012 769.25 423.012 768.172C423.012 766.988 422.584 766.051 421.729 765.359C420.885 764.656 419.719 764.305 418.23 764.305Z" fill="#2F1A35"/>
<path d="M623 1083H641" stroke="#FBF3F8" stroke-width="3" stroke-linecap="round" stroke-linejoin="round"/>
<path d="M623 1091H641" stroke="#FBF3F8" stroke-width="3" stroke-linecap="round" stroke-linejoin="round"/>
<path d="M308.594 684L305.572 676.28H295.844L292.855 684H290L299.596 659.629H301.97L311.516 684H308.594ZM304.692 673.74L301.87 666.22C301.505 665.268 301.129 664.1 300.741 662.717C300.498 663.779 300.149 664.947 299.695 666.22L296.84 673.74H304.692ZM326.945 661.903C324.278 661.903 322.169 662.794 320.62 664.576C319.082 666.347 318.312 668.776 318.312 671.864C318.312 675.041 319.054 677.498 320.537 679.235C322.031 680.962 324.156 681.825 326.912 681.825C328.605 681.825 330.537 681.521 332.706 680.912V683.386C331.024 684.017 328.948 684.332 326.48 684.332C322.905 684.332 320.144 683.247 318.196 681.078C316.259 678.909 315.291 675.826 315.291 671.831C315.291 669.33 315.756 667.138 316.685 665.257C317.626 663.375 318.976 661.925 320.736 660.907C322.507 659.889 324.588 659.38 326.978 659.38C329.524 659.38 331.749 659.845 333.652 660.774L332.457 663.198C330.62 662.335 328.782 661.903 326.945 661.903Z" fill="#2F1A35"/>
<path d="M423 659.67V675.547" stroke="#2F1A35" stroke-width="3" stroke-linecap="round" stroke-linejoin="round"/>
<path d="M414.833 667.609H431.167" stroke="#2F1A35" stroke-width="3" stroke-linecap="round" stroke-linejoin="round"/>
<path d="M626.833 877.609H643.166" stroke="#FF5976" stroke-width="3" stroke-linecap="round" stroke-linejoin="round"/>
<path d="M636 971.67V987.547" stroke="#FF5976" stroke-width="3" stroke-linecap="round" stroke-linejoin="round"/>
<path d="M627.833 979.609H644.166" stroke="#FF5976" stroke-width="3" stroke-linecap="round" stroke-linejoin="round"/>
<path d="M642 767.804L628 781.413" stroke="#FF5976" stroke-width="3" stroke-linecap="round" stroke-linejoin="round"/>
<path d="M628 767.804L642 781.413" stroke="#FF5976" stroke-width="3" stroke-linecap="round" stroke-linejoin="round"/>
<path d="M623 675H651" stroke="#FF5976" stroke-width="3" stroke-linecap="round" stroke-linejoin="round"/>
<ellipse cx="637" cy="664.818" rx="3.5" ry="3.81818" fill="#FF5976"/>
<ellipse cx="637" cy="685.182" rx="3.5" ry="3.81818" fill="#FF5976"/>
<path d="M518.2 673.372C516.4 673.372 514.948 672.736 513.844 671.464C512.74 670.192 512.188 668.524 512.188 666.46C512.188 664.396 512.74 662.728 513.844 661.456C514.948 660.184 516.4 659.548 518.2 659.548C520 659.548 521.452 660.184 522.556 661.456C523.684 662.704 524.248 664.372 524.248 666.46C524.248 668.548 523.684 670.228 522.556 671.5C521.452 672.748 520 673.372 518.2 673.372ZM533.32 659.8H536.848L519.64 685H516.112L533.32 659.8ZM518.2 670.852C519.184 670.852 519.94 670.468 520.468 669.7C521.02 668.932 521.296 667.852 521.296 666.46C521.296 665.068 521.02 663.988 520.468 663.22C519.94 662.452 519.184 662.068 518.2 662.068C517.264 662.068 516.508 662.464 515.932 663.256C515.38 664.024 515.104 665.092 515.104 666.46C515.104 667.828 515.38 668.908 515.932 669.7C516.508 670.468 517.264 670.852 518.2 670.852ZM534.724 685.252C532.924 685.252 531.472 684.616 530.368 683.344C529.264 682.072 528.712 680.404 528.712 678.34C528.712 676.276 529.264 674.608 530.368 673.336C531.472 672.064 532.924 671.428 534.724 671.428C536.524 671.428 537.976 672.064 539.08 673.336C540.208 674.608 540.772 676.276 540.772 678.34C540.772 680.404 540.208 682.072 539.08 683.344C537.976 684.616 536.524 685.252 534.724 685.252ZM534.724 682.732C535.684 682.732 536.44 682.348 536.992 681.58C537.544 680.788 537.82 679.708 537.82 678.34C537.82 676.972 537.544 675.904 536.992 675.136C536.44 674.344 535.684 673.948 534.724 673.948C533.764 673.948 533.008 674.332 532.456 675.1C531.904 675.868 531.628 676.948 531.628 678.34C531.628 679.732 531.904 680.812 532.456 681.58C533.008 682.348 533.764 682.732 534.724 682.732Z" fill="#2F1A35"/>
<g filter="url(#filter5_dii)">
<rect x="856" y="432" width="470" height="926" rx="50" fill="#FFF6FA"/>
</g>
<g filter="url(#filter6_ii)">
<rect x="863" y="445" width="456" height="900" rx="50" fill="#FBF3F8"/>
</g>
<rect x="863.25" y="445.25" width="455.5" height="899.5" rx="49.75" stroke="url(#paint1_linear)" stroke-opacity="0.5" stroke-width="0.5"/>
<g filter="url(#filter7_dd)">
<rect x="1194" y="760" width="103" height="415" rx="24" fill="#FBF3F8"/>
</g>
<g filter="url(#filter8_ii)">
<rect x="988" y="980" width="90" height="82" rx="24" fill="#FBF3F8"/>
</g>
<g filter="url(#filter9_dd)">
<rect x="1194" y="1186" width="103" height="87" rx="24" fill="#FF5976"/>
</g>
<path d="M1028.83 825.609H1045.17" stroke="#2F1A35" stroke-width="3" stroke-linecap="round" stroke-linejoin="round"/>
<path d="M1150.64 1226.36L1143 1234M1143 1226.36L1150.64 1234M1154.45 1220H1137.91L1129 1230.18L1137.91 1240.36H1154.45C1155.13 1240.36 1155.78 1240.1 1156.25 1239.62C1156.73 1239.14 1157 1238.49 1157 1237.82V1222.55C1157 1221.87 1156.73 1221.22 1156.25 1220.75C1155.78 1220.27 1155.13 1220 1154.45 1220Z" stroke="#2F1A35" stroke-width="2" stroke-linecap="round" stroke-linejoin="round"/>
<path d="M1147.65 916.27C1147.65 926.324 1143.76 931.352 1135.98 931.352C1134.62 931.352 1133.54 931.234 1132.74 931V928.486C1133.68 928.791 1134.75 928.943 1135.94 928.943C1138.76 928.943 1140.88 928.076 1142.31 926.342C1143.75 924.596 1144.53 921.924 1144.66 918.326H1144.45C1143.81 919.299 1142.95 920.043 1141.88 920.559C1140.82 921.062 1139.62 921.314 1138.28 921.314C1136.01 921.314 1134.2 920.635 1132.87 919.275C1131.53 917.916 1130.86 916.018 1130.86 913.58C1130.86 910.908 1131.61 908.799 1133.1 907.252C1134.6 905.705 1136.56 904.932 1139 904.932C1140.75 904.932 1142.27 905.383 1143.57 906.285C1144.88 907.176 1145.89 908.482 1146.6 910.205C1147.3 911.916 1147.65 913.938 1147.65 916.27ZM1139 907.428C1137.33 907.428 1136.03 907.967 1135.12 909.045C1134.2 910.123 1133.75 911.623 1133.75 913.545C1133.75 915.232 1134.17 916.562 1135.01 917.535C1135.86 918.496 1137.14 918.977 1138.86 918.977C1139.93 918.977 1140.91 918.76 1141.8 918.326C1142.7 917.893 1143.41 917.301 1143.92 916.551C1144.44 915.801 1144.7 915.016 1144.7 914.195C1144.7 912.965 1144.46 911.828 1143.98 910.785C1143.5 909.742 1142.82 908.922 1141.96 908.324C1141.1 907.727 1140.12 907.428 1139 907.428Z" fill="#2F1A35"/>
<g filter="url(#filter10_ii)">
<rect x="876" y="727" width="241" height="421" rx="24" transform="rotate(-90 876 727)" fill="#FBF3F8"/>
</g>
<path d="M929.568 1135H926.721V1116.68C926.721 1115.16 926.768 1113.72 926.861 1112.36C926.615 1112.61 926.34 1112.86 926.035 1113.13C925.73 1113.4 924.336 1114.54 921.852 1116.56L920.305 1114.56L927.107 1109.3H929.568V1135Z" fill="#2F1A35"/>
<path d="M1146.68 1116.35C1146.68 1117.99 1146.22 1119.33 1145.29 1120.37C1144.38 1121.42 1143.08 1122.11 1141.39 1122.46V1122.61C1143.46 1122.86 1144.98 1123.52 1145.98 1124.57C1146.98 1125.63 1147.47 1127.01 1147.47 1128.72C1147.47 1131.17 1146.62 1133.06 1144.93 1134.38C1143.23 1135.7 1140.81 1136.35 1137.68 1136.35C1136.32 1136.35 1135.08 1136.25 1133.94 1136.04C1132.81 1135.84 1131.72 1135.48 1130.65 1134.96V1132.19C1131.77 1132.74 1132.95 1133.16 1134.2 1133.45C1135.47 1133.73 1136.66 1133.87 1137.79 1133.87C1142.23 1133.87 1144.45 1132.13 1144.45 1128.65C1144.45 1125.54 1142 1123.98 1137.1 1123.98H1134.57V1121.46H1137.14C1139.14 1121.46 1140.73 1121.02 1141.9 1120.14C1143.07 1119.25 1143.66 1118.02 1143.66 1116.45C1143.66 1115.2 1143.23 1114.21 1142.36 1113.5C1141.5 1112.79 1140.34 1112.43 1138.86 1112.43C1137.74 1112.43 1136.68 1112.58 1135.68 1112.88C1134.68 1113.19 1133.55 1113.75 1132.27 1114.57L1130.79 1112.6C1131.85 1111.77 1133.06 1111.12 1134.43 1110.65C1135.81 1110.17 1137.27 1109.93 1138.79 1109.93C1141.29 1109.93 1143.23 1110.51 1144.61 1111.65C1145.99 1112.79 1146.68 1114.36 1146.68 1116.35Z" fill="#2F1A35"/>
<path d="M934.863 1028.09H931.049V1034H928.254V1028.09H915.756V1025.54L927.955 1008.16H931.049V1025.44H934.863V1028.09ZM928.254 1025.44V1016.9C928.254 1015.22 928.312 1013.33 928.43 1011.22H928.289C927.727 1012.34 927.199 1013.28 926.707 1014.01L918.674 1025.44H928.254Z" fill="#2F1A35"/>
<path d="M1031.79 1018.3C1034.5 1018.3 1036.62 1018.98 1038.17 1020.32C1039.73 1021.66 1040.51 1023.49 1040.51 1025.83C1040.51 1028.49 1039.66 1030.57 1037.96 1032.08C1036.27 1033.6 1033.94 1034.35 1030.96 1034.35C1028.07 1034.35 1025.86 1033.89 1024.34 1032.96V1030.15C1025.16 1030.68 1026.18 1031.09 1027.4 1031.4C1028.62 1031.69 1029.82 1031.84 1031 1031.84C1033.06 1031.84 1034.66 1031.35 1035.8 1030.38C1036.95 1029.41 1037.52 1028 1037.52 1026.16C1037.52 1022.57 1035.32 1020.78 1030.93 1020.78C1029.82 1020.78 1028.33 1020.95 1026.46 1021.29L1024.95 1020.32L1025.92 1008.3H1038.7V1010.99H1028.42L1027.77 1018.71C1029.11 1018.44 1030.46 1018.3 1031.79 1018.3Z" fill="#2F1A35"/>
<path d="M1131.06 1023.01C1131.06 1017.96 1132.04 1014.19 1133.99 1011.69C1135.96 1009.19 1138.87 1007.93 1142.71 1007.93C1144.04 1007.93 1145.08 1008.04 1145.84 1008.27V1010.78C1144.94 1010.49 1143.91 1010.34 1142.75 1010.34C1139.99 1010.34 1137.89 1011.2 1136.44 1012.92C1134.98 1014.63 1134.19 1017.33 1134.04 1021.01H1134.26C1135.54 1018.99 1137.58 1017.99 1140.37 1017.99C1142.68 1017.99 1144.5 1018.68 1145.82 1020.08C1147.16 1021.47 1147.83 1023.37 1147.83 1025.76C1147.83 1028.43 1147.09 1030.53 1145.63 1032.07C1144.18 1033.59 1142.21 1034.35 1139.72 1034.35C1137.06 1034.35 1134.95 1033.36 1133.39 1031.36C1131.84 1029.36 1131.06 1026.58 1131.06 1023.01ZM1139.69 1031.87C1141.35 1031.87 1142.64 1031.35 1143.55 1030.31C1144.48 1029.25 1144.94 1027.74 1144.94 1025.76C1144.94 1024.06 1144.52 1022.72 1143.66 1021.75C1142.8 1020.78 1141.53 1020.29 1139.83 1020.29C1138.77 1020.29 1137.81 1020.51 1136.93 1020.94C1136.05 1021.37 1135.35 1021.97 1134.82 1022.73C1134.3 1023.49 1134.04 1024.29 1134.04 1025.11C1134.04 1026.31 1134.28 1027.44 1134.75 1028.48C1135.22 1029.52 1135.88 1030.35 1136.73 1030.96C1137.6 1031.57 1138.59 1031.87 1139.69 1031.87Z" fill="#2F1A35"/>
<path d="M920.01 931L930.662 907.99H916.652V905.301H933.756V907.639L923.244 931H920.01Z" fill="#2F1A35"/>
<path d="M1042.79 1229.12C1042.79 1233.56 1042.09 1236.87 1040.68 1239.06C1039.29 1241.26 1037.15 1242.35 1034.27 1242.35C1031.5 1242.35 1029.4 1241.23 1027.96 1238.99C1026.51 1236.74 1025.79 1233.45 1025.79 1229.12C1025.79 1224.64 1026.49 1221.32 1027.88 1219.15C1029.28 1216.98 1031.41 1215.9 1034.27 1215.9C1037.05 1215.9 1039.17 1217.03 1040.61 1219.29C1042.06 1221.55 1042.79 1224.83 1042.79 1229.12ZM1028.75 1229.12C1028.75 1232.85 1029.19 1235.58 1030.06 1237.29C1030.94 1238.99 1032.34 1239.84 1034.27 1239.84C1036.21 1239.84 1037.62 1238.98 1038.48 1237.25C1039.36 1235.52 1039.8 1232.81 1039.8 1229.12C1039.8 1225.42 1039.36 1222.72 1038.48 1221.01C1037.62 1219.29 1036.21 1218.43 1034.27 1218.43C1032.34 1218.43 1030.94 1219.28 1030.06 1220.98C1029.19 1222.66 1028.75 1225.38 1028.75 1229.12Z" fill="#2F1A35"/>
<path d="M926.672 1231.14C926.672 1230.35 926.848 1229.76 927.199 1229.36C927.562 1228.95 928.078 1228.75 928.746 1228.75C929.426 1228.75 929.953 1228.95 930.328 1229.36C930.715 1229.76 930.908 1230.35 930.908 1231.14C930.908 1231.9 930.715 1232.48 930.328 1232.89C929.941 1233.3 929.414 1233.51 928.746 1233.51C928.148 1233.51 927.65 1233.33 927.252 1232.96C926.865 1232.59 926.672 1231.98 926.672 1231.14Z" fill="#2F1A35"/>
<path d="M1040.65 1141H1023.76V1138.49L1030.53 1131.68C1032.59 1129.6 1033.95 1128.11 1034.6 1127.22C1035.26 1126.33 1035.75 1125.46 1036.08 1124.62C1036.41 1123.77 1036.57 1122.87 1036.57 1121.89C1036.57 1120.52 1036.16 1119.44 1035.32 1118.64C1034.49 1117.83 1033.34 1117.43 1031.86 1117.43C1030.79 1117.43 1029.78 1117.6 1028.82 1117.96C1027.87 1118.31 1026.81 1118.95 1025.64 1119.87L1024.09 1117.88C1026.46 1115.92 1029.04 1114.93 1031.83 1114.93C1034.24 1114.93 1036.13 1115.55 1037.5 1116.79C1038.88 1118.03 1039.56 1119.68 1039.56 1121.77C1039.56 1123.4 1039.1 1125.01 1038.19 1126.6C1037.28 1128.2 1035.56 1130.21 1033.06 1132.65L1027.43 1138.15V1138.29H1040.65V1141Z" fill="black"/>
<path d="M1032.27 904.932C1034.61 904.932 1036.47 905.477 1037.84 906.566C1039.21 907.656 1039.89 909.162 1039.89 911.084C1039.89 912.35 1039.5 913.504 1038.72 914.547C1037.93 915.59 1036.68 916.539 1034.96 917.395C1037.04 918.391 1038.52 919.439 1039.4 920.541C1040.28 921.631 1040.72 922.896 1040.72 924.338C1040.72 926.471 1039.98 928.176 1038.49 929.453C1037 930.719 1034.96 931.352 1032.37 931.352C1029.63 931.352 1027.52 930.754 1026.04 929.559C1024.57 928.352 1023.83 926.646 1023.83 924.443C1023.83 921.502 1025.62 919.211 1029.21 917.57C1027.59 916.656 1026.43 915.672 1025.73 914.617C1025.02 913.551 1024.67 912.361 1024.67 911.049C1024.67 909.186 1025.36 907.703 1026.73 906.602C1028.11 905.488 1029.96 904.932 1032.27 904.932ZM1026.71 924.514C1026.71 925.92 1027.2 927.016 1028.17 927.801C1029.15 928.586 1030.53 928.979 1032.3 928.979C1034.05 928.979 1035.41 928.568 1036.38 927.748C1037.35 926.928 1037.84 925.803 1037.84 924.373C1037.84 923.236 1037.38 922.229 1036.47 921.35C1035.55 920.459 1033.96 919.598 1031.69 918.766C1029.94 919.516 1028.67 920.348 1027.89 921.262C1027.1 922.164 1026.71 923.248 1026.71 924.514ZM1032.23 907.305C1030.77 907.305 1029.62 907.656 1028.79 908.359C1027.95 909.062 1027.54 910 1027.54 911.172C1027.54 912.25 1027.88 913.176 1028.57 913.949C1029.27 914.723 1030.54 915.496 1032.41 916.27C1034.08 915.566 1035.27 914.811 1035.96 914.002C1036.66 913.193 1037.01 912.25 1037.01 911.172C1037.01 909.988 1036.58 909.051 1035.73 908.359C1034.88 907.656 1033.72 907.305 1032.23 907.305Z" fill="#2F1A35"/>
<path d="M1237 1226H1255" stroke="#FBF3F8" stroke-width="3" stroke-linecap="round" stroke-linejoin="round"/>
<path d="M1237 1234H1255" stroke="#FBF3F8" stroke-width="3" stroke-linecap="round" stroke-linejoin="round"/>
<path d="M922.594 827L919.572 819.28H909.844L906.855 827H904L913.596 802.629H915.97L925.516 827H922.594ZM918.692 816.74L915.87 809.22C915.505 808.268 915.129 807.1 914.741 805.717C914.498 806.779 914.149 807.947 913.695 809.22L910.84 816.74H918.692ZM940.945 804.903C938.278 804.903 936.169 805.794 934.62 807.576C933.082 809.347 932.312 811.776 932.312 814.864C932.312 818.041 933.054 820.498 934.537 822.235C936.031 823.962 938.156 824.825 940.912 824.825C942.605 824.825 944.537 824.521 946.706 823.912V826.386C945.024 827.017 942.948 827.332 940.48 827.332C936.905 827.332 934.144 826.247 932.196 824.078C930.259 821.909 929.291 818.826 929.291 814.831C929.291 812.33 929.756 810.138 930.685 808.257C931.626 806.375 932.976 804.925 934.736 803.907C936.507 802.889 938.588 802.38 940.978 802.38C943.524 802.38 945.749 802.845 947.652 803.774L946.457 806.198C944.62 805.335 942.782 804.903 940.945 804.903Z" fill="#2F1A35"/>
<path d="M1037 802.67V818.547" stroke="#2F1A35" stroke-width="3" stroke-linecap="round" stroke-linejoin="round"/>
<path d="M1028.83 810.609H1045.17" stroke="#2F1A35" stroke-width="3" stroke-linecap="round" stroke-linejoin="round"/>
<path d="M1237.83 1020.61H1254.17" stroke="#FF5976" stroke-width="3" stroke-linecap="round" stroke-linejoin="round"/>
<path d="M1246 1114.67V1130.55" stroke="#FF5976" stroke-width="3" stroke-linecap="round" stroke-linejoin="round"/>
<path d="M1237.83 1122.61H1254.17" stroke="#FF5976" stroke-width="3" stroke-linecap="round" stroke-linejoin="round"/>
<path d="M1253 910.804L1239 924.413" stroke="#FF5976" stroke-width="3" stroke-linecap="round" stroke-linejoin="round"/>
<path d="M1239 910.804L1253 924.413" stroke="#FF5976" stroke-width="3" stroke-linecap="round" stroke-linejoin="round"/>
<path d="M1232 818H1260" stroke="#FF5976" stroke-width="3" stroke-linecap="round" stroke-linejoin="round"/>
<ellipse cx="1246" cy="807.818" rx="3.5" ry="3.81818" fill="#FF5976"/>
<ellipse cx="1246" cy="828.182" rx="3.5" ry="3.81818" fill="#FF5976"/>
<path d="M1132.2 816.372C1130.4 816.372 1128.95 815.736 1127.84 814.464C1126.74 813.192 1126.19 811.524 1126.19 809.46C1126.19 807.396 1126.74 805.728 1127.84 804.456C1128.95 803.184 1130.4 802.548 1132.2 802.548C1134 802.548 1135.45 803.184 1136.56 804.456C1137.68 805.704 1138.25 807.372 1138.25 809.46C1138.25 811.548 1137.68 813.228 1136.56 814.5C1135.45 815.748 1134 816.372 1132.2 816.372ZM1147.32 802.8H1150.85L1133.64 828H1130.11L1147.32 802.8ZM1132.2 813.852C1133.18 813.852 1133.94 813.468 1134.47 812.7C1135.02 811.932 1135.3 810.852 1135.3 809.46C1135.3 808.068 1135.02 806.988 1134.47 806.22C1133.94 805.452 1133.18 805.068 1132.2 805.068C1131.26 805.068 1130.51 805.464 1129.93 806.256C1129.38 807.024 1129.1 808.092 1129.1 809.46C1129.1 810.828 1129.38 811.908 1129.93 812.7C1130.51 813.468 1131.26 813.852 1132.2 813.852ZM1148.72 828.252C1146.92 828.252 1145.47 827.616 1144.37 826.344C1143.26 825.072 1142.71 823.404 1142.71 821.34C1142.71 819.276 1143.26 817.608 1144.37 816.336C1145.47 815.064 1146.92 814.428 1148.72 814.428C1150.52 814.428 1151.98 815.064 1153.08 816.336C1154.21 817.608 1154.77 819.276 1154.77 821.34C1154.77 823.404 1154.21 825.072 1153.08 826.344C1151.98 827.616 1150.52 828.252 1148.72 828.252ZM1148.72 825.732C1149.68 825.732 1150.44 825.348 1150.99 824.58C1151.54 823.788 1151.82 822.708 1151.82 821.34C1151.82 819.972 1151.54 818.904 1150.99 818.136C1150.44 817.344 1149.68 816.948 1148.72 816.948C1147.76 816.948 1147.01 817.332 1146.46 818.1C1145.9 818.868 1145.63 819.948 1145.63 821.34C1145.63 822.732 1145.9 823.812 1146.46 824.58C1147.01 825.348 1147.76 825.732 1148.72 825.732Z" fill="#2F1A35"/>
<path d="M1199.27 569.932C1201.61 569.932 1203.47 570.477 1204.84 571.566C1206.21 572.656 1206.89 574.162 1206.89 576.084C1206.89 577.35 1206.5 578.504 1205.72 579.547C1204.93 580.59 1203.68 581.539 1201.96 582.395C1204.04 583.391 1205.52 584.439 1206.4 585.541C1207.28 586.631 1207.72 587.896 1207.72 589.338C1207.72 591.471 1206.98 593.176 1205.49 594.453C1204 595.719 1201.96 596.352 1199.37 596.352C1196.63 596.352 1194.52 595.754 1193.04 594.559C1191.57 593.352 1190.83 591.646 1190.83 589.443C1190.83 586.502 1192.62 584.211 1196.21 582.57C1194.59 581.656 1193.43 580.672 1192.73 579.617C1192.02 578.551 1191.67 577.361 1191.67 576.049C1191.67 574.186 1192.36 572.703 1193.73 571.602C1195.11 570.488 1196.96 569.932 1199.27 569.932ZM1193.71 589.514C1193.71 590.92 1194.2 592.016 1195.17 592.801C1196.15 593.586 1197.53 593.979 1199.3 593.979C1201.05 593.979 1202.41 593.568 1203.38 592.748C1204.35 591.928 1204.84 590.803 1204.84 589.373C1204.84 588.236 1204.38 587.229 1203.47 586.35C1202.55 585.459 1200.96 584.598 1198.69 583.766C1196.94 584.516 1195.67 585.348 1194.89 586.262C1194.1 587.164 1193.71 588.248 1193.71 589.514ZM1199.23 572.305C1197.77 572.305 1196.62 572.656 1195.79 573.359C1194.95 574.062 1194.54 575 1194.54 576.172C1194.54 577.25 1194.88 578.176 1195.57 578.949C1196.27 579.723 1197.54 580.496 1199.41 581.27C1201.08 580.566 1202.27 579.811 1202.96 579.002C1203.66 578.193 1204.01 577.25 1204.01 576.172C1204.01 574.988 1203.58 574.051 1202.73 573.359C1201.88 572.656 1200.72 572.305 1199.23 572.305ZM1254.65 580.303C1257.35 580.303 1259.48 580.977 1261.03 582.324C1262.59 583.66 1263.37 585.494 1263.37 587.826C1263.37 590.486 1262.52 592.572 1260.82 594.084C1259.13 595.596 1256.8 596.352 1253.82 596.352C1250.93 596.352 1248.72 595.889 1247.19 594.963V592.15C1248.01 592.678 1249.03 593.094 1250.25 593.398C1251.47 593.691 1252.67 593.838 1253.86 593.838C1255.92 593.838 1257.52 593.352 1258.66 592.379C1259.8 591.406 1260.38 590 1260.38 588.16C1260.38 584.574 1258.18 582.781 1253.79 582.781C1252.67 582.781 1251.18 582.951 1249.32 583.291L1247.81 582.324L1248.78 570.301H1261.56V572.99H1251.27L1250.62 580.707C1251.97 580.438 1253.31 580.303 1254.65 580.303Z" fill="black"/>
<path d="M1233.48 651.125H1228.4V659H1224.67V651.125H1208.01V647.727L1224.27 624.547H1228.4V647.586H1233.48V651.125ZM1224.67 647.586V636.195C1224.67 633.961 1224.75 631.438 1224.91 628.625H1224.72C1223.97 630.125 1223.27 631.367 1222.61 632.352L1211.9 647.586H1224.67ZM1261.92 641.82C1261.92 647.742 1260.99 652.164 1259.11 655.086C1257.25 658.008 1254.4 659.469 1250.56 659.469C1246.87 659.469 1244.06 657.977 1242.14 654.992C1240.22 651.992 1239.26 647.602 1239.26 641.82C1239.26 635.852 1240.19 631.422 1242.05 628.531C1243.91 625.641 1246.74 624.195 1250.56 624.195C1254.27 624.195 1257.1 625.703 1259.02 628.719C1260.95 631.734 1261.92 636.102 1261.92 641.82ZM1243.2 641.82C1243.2 646.805 1243.78 650.438 1244.95 652.719C1246.13 654.984 1247.99 656.117 1250.56 656.117C1253.15 656.117 1255.02 654.969 1256.18 652.672C1257.35 650.359 1257.94 646.742 1257.94 641.82C1257.94 636.898 1257.35 633.297 1256.18 631.016C1255.02 628.719 1253.15 627.57 1250.56 627.57C1247.99 627.57 1246.13 628.703 1244.95 630.969C1243.78 633.219 1243.2 636.836 1243.2 641.82Z" fill="black"/>
<path d="M1235 575.804L1221 589.413" stroke="black" stroke-width="3" stroke-linecap="round" stroke-linejoin="round"/>
<path d="M1221 575.804L1235 589.413" stroke="black" stroke-width="3" stroke-linecap="round" stroke-linejoin="round"/>
<mask id="mask0" mask-type="alpha" maskUnits="userSpaceOnUse" x="249" y="301" width="455" height="100">
<rect x="249" y="301" width="455" height="100" rx="50" fill="#C4C4C4"/>
</mask>
<g mask="url(#mask0)">
<path opacity="0.95" fill-rule="evenodd" clip-rule="evenodd" d="M249 302V327H701.026V302H249Z" fill="#FF5976"/>
<mask id="mask1" mask-type="alpha" maskUnits="userSpaceOnUse" x="559" y="309" width="17" height="12">
<path fill-rule="evenodd" clip-rule="evenodd" d="M559.272 309L567.203 321L575.133 309H559.272Z" fill="white"/>
</mask>
<g mask="url(#mask1)">
<path fill-rule="evenodd" clip-rule="evenodd" d="M567.203 309C560.661 309 555.308 314.4 555.308 321C555.308 327.6 560.661 333 567.203 333C573.746 333 579.098 327.6 579.098 321C579.098 314.4 573.746 309 567.203 309V309ZM567.203 330C562.246 330 558.281 326 558.281 321C558.281 316 562.246 312 567.203 312C572.159 312 576.124 316 576.124 321C576.124 326 572.159 330 567.203 330V330Z" fill="white" fill-opacity="0.3"/>
<path fill-rule="evenodd" clip-rule="evenodd" d="M567.203 312C562.246 312 558.281 316 558.281 321C558.281 326 562.246 330 567.203 330C572.159 330 576.124 326 576.124 321C576.124 316 572.159 312 567.203 312V312ZM567.203 327C563.932 327 561.255 324.3 561.255 321C561.255 317.7 563.932 315 567.203 315C570.474 315 573.151 317.7 573.151 321C573.151 324.3 570.474 327 567.203 327V327Z" fill="white" fill-opacity="0.9"/>
<path fill-rule="evenodd" clip-rule="evenodd" d="M567.203 315C563.931 315 561.255 317.7 561.255 321C561.255 324.3 563.931 327 567.203 327C570.474 327 573.15 324.3 573.15 321C573.15 317.7 570.474 315 567.203 315V315ZM567.203 324C565.518 324 564.229 322.7 564.229 321C564.229 319.3 565.518 318 567.203 318C568.888 318 570.177 319.3 570.177 321C570.177 322.7 568.888 324 567.203 324V324Z" fill="white" fill-opacity="0.9"/>
<path fill-rule="evenodd" clip-rule="evenodd" d="M567.202 324C568.845 324 570.176 322.657 570.176 321C570.176 319.343 568.845 318 567.202 318C565.56 318 564.229 319.343 564.229 321C564.229 322.657 565.56 324 567.202 324Z" fill="white" fill-opacity="0.9"/>
</g>
<mask id="mask2" mask-type="alpha" maskUnits="userSpaceOnUse" x="585" y="309" width="12" height="12">
<path fill-rule="evenodd" clip-rule="evenodd" d="M596.941 321V309L585.046 321H596.941Z" fill="white"/>
</mask>
<g mask="url(#mask2)">
<path fill-rule="evenodd" clip-rule="evenodd" d="M593.968 309V321H596.942V309H593.968Z" fill="white" fill-opacity="0.3"/>
<path fill-rule="evenodd" clip-rule="evenodd" d="M590.993 309V321H593.967V309H590.993Z" fill="white" fill-opacity="0.3"/>
<path fill-rule="evenodd" clip-rule="evenodd" d="M588.02 309V321H590.993V309H588.02Z" fill="white" fill-opacity="0.9"/>
<path fill-rule="evenodd" clip-rule="evenodd" d="M585.046 309V321H588.02V309H585.046Z" fill="white" fill-opacity="0.9"/>
</g>
<mask id="mask3" mask-type="alpha" maskUnits="userSpaceOnUse" x="610" y="308" width="9" height="13">
<path fill-rule="evenodd" clip-rule="evenodd" d="M617.757 309H616.766V308H612.801V309H611.81C611.215 309 610.818 309.4 610.818 310V320C610.818 320.6 611.215 321 611.81 321H617.757C618.352 321 618.749 320.6 618.749 320V310C618.749 309.4 618.352 309 617.757 309V309Z" fill="white"/>
</mask>
<g mask="url(#mask3)">
<path fill-rule="evenodd" clip-rule="evenodd" d="M610.818 318V321H618.749V318H610.818Z" fill="white" fill-opacity="0.9"/>
<path fill-rule="evenodd" clip-rule="evenodd" d="M610.818 315V318H618.749V315H610.818Z" fill="white" fill-opacity="0.9"/>
<path fill-rule="evenodd" clip-rule="evenodd" d="M610.818 312V315H618.749V312H610.818Z" fill="white" fill-opacity="0.3"/>
<path fill-rule="evenodd" clip-rule="evenodd" d="M610.818 309V312H618.749V309H610.818Z" fill="white" fill-opacity="0.3"/>
<path fill-rule="evenodd" clip-rule="evenodd" d="M612.802 308V309H616.767V308H612.802Z" fill="white" fill-opacity="0.3"/>
</g>
<g opacity="0.9">
<path d="M633.365 321H631.912V311.367L628.998 312.438V311.125L633.139 309.57H633.365V321ZM645.053 321H637.6V319.961L641.537 315.586C642.12 314.924 642.521 314.388 642.74 313.977C642.964 313.56 643.076 313.13 643.076 312.688C643.076 312.094 642.896 311.607 642.537 311.227C642.178 310.846 641.699 310.656 641.1 310.656C640.381 310.656 639.821 310.862 639.42 311.273C639.024 311.68 638.826 312.247 638.826 312.977H637.381C637.381 311.93 637.717 311.083 638.389 310.438C639.066 309.792 639.969 309.469 641.1 309.469C642.157 309.469 642.993 309.747 643.607 310.305C644.222 310.857 644.529 311.594 644.529 312.516C644.529 313.635 643.816 314.969 642.389 316.516L639.342 319.82H645.053V321ZM646.686 320.242C646.686 319.992 646.758 319.784 646.904 319.617C647.055 319.451 647.279 319.367 647.576 319.367C647.873 319.367 648.097 319.451 648.248 319.617C648.404 319.784 648.482 319.992 648.482 320.242C648.482 320.482 648.404 320.682 648.248 320.844C648.097 321.005 647.873 321.086 647.576 321.086C647.279 321.086 647.055 321.005 646.904 320.844C646.758 320.682 646.686 320.482 646.686 320.242ZM646.693 313.344C646.693 313.094 646.766 312.885 646.912 312.719C647.063 312.552 647.287 312.469 647.584 312.469C647.881 312.469 648.105 312.552 648.256 312.719C648.412 312.885 648.49 313.094 648.49 313.344C648.49 313.583 648.412 313.784 648.256 313.945C648.105 314.107 647.881 314.188 647.584 314.188C647.287 314.188 647.063 314.107 646.912 313.945C646.766 313.784 646.693 313.583 646.693 313.344ZM652.561 314.609H653.646C654.329 314.599 654.865 314.419 655.256 314.07C655.646 313.721 655.842 313.25 655.842 312.656C655.842 311.323 655.178 310.656 653.85 310.656C653.225 310.656 652.725 310.836 652.35 311.195C651.98 311.549 651.795 312.021 651.795 312.609H650.35C650.35 311.708 650.678 310.961 651.334 310.367C651.995 309.768 652.834 309.469 653.85 309.469C654.923 309.469 655.764 309.753 656.373 310.32C656.982 310.888 657.287 311.677 657.287 312.688C657.287 313.182 657.126 313.661 656.803 314.125C656.485 314.589 656.05 314.935 655.498 315.164C656.123 315.362 656.605 315.69 656.943 316.148C657.287 316.607 657.459 317.167 657.459 317.828C657.459 318.849 657.126 319.659 656.459 320.258C655.792 320.857 654.925 321.156 653.857 321.156C652.79 321.156 651.92 320.867 651.248 320.289C650.581 319.711 650.248 318.948 650.248 318H651.701C651.701 318.599 651.896 319.078 652.287 319.438C652.678 319.797 653.201 319.977 653.857 319.977C654.555 319.977 655.089 319.794 655.459 319.43C655.829 319.065 656.014 318.542 656.014 317.859C656.014 317.198 655.811 316.69 655.404 316.336C654.998 315.982 654.412 315.799 653.646 315.789H652.561V314.609ZM666.576 316.148C666.576 317.841 666.287 319.099 665.709 319.922C665.131 320.745 664.227 321.156 662.998 321.156C661.785 321.156 660.886 320.755 660.303 319.953C659.719 319.146 659.417 317.943 659.396 316.344V314.414C659.396 312.742 659.686 311.5 660.264 310.688C660.842 309.875 661.748 309.469 662.982 309.469C664.206 309.469 665.107 309.862 665.686 310.648C666.264 311.43 666.561 312.638 666.576 314.273V316.148ZM665.131 314.172C665.131 312.948 664.959 312.057 664.615 311.5C664.271 310.938 663.727 310.656 662.982 310.656C662.243 310.656 661.704 310.935 661.365 311.492C661.027 312.049 660.852 312.906 660.842 314.062V316.375C660.842 317.604 661.019 318.513 661.373 319.102C661.732 319.685 662.274 319.977 662.998 319.977C663.712 319.977 664.24 319.701 664.584 319.148C664.933 318.596 665.115 317.727 665.131 316.539V314.172Z" fill="white"/>
</g>
</g>
<mask id="mask4" mask-type="alpha" maskUnits="userSpaceOnUse" x="863" y="444" width="455" height="100">
<rect x="863" y="444" width="455" height="100" rx="50" fill="#C4C4C4"/>
</mask>
<g mask="url(#mask4)">
<path opacity="0.95" fill-rule="evenodd" clip-rule="evenodd" d="M863 445V470H1315.03V445H863Z" fill="#FF5976"/>
<mask id="mask5" mask-type="alpha" maskUnits="userSpaceOnUse" x="1173" y="452" width="17" height="12">
<path fill-rule="evenodd" clip-rule="evenodd" d="M1173.27 452L1181.2 464L1189.13 452H1173.27Z" fill="white"/>
</mask>
<g mask="url(#mask5)">
<path fill-rule="evenodd" clip-rule="evenodd" d="M1181.2 452C1174.66 452 1169.31 457.4 1169.31 464C1169.31 470.6 1174.66 476 1181.2 476C1187.75 476 1193.1 470.6 1193.1 464C1193.1 457.4 1187.75 452 1181.2 452V452ZM1181.2 473C1176.25 473 1172.28 469 1172.28 464C1172.28 459 1176.25 455 1181.2 455C1186.16 455 1190.12 459 1190.12 464C1190.12 469 1186.16 473 1181.2 473V473Z" fill="white" fill-opacity="0.3"/>
<path fill-rule="evenodd" clip-rule="evenodd" d="M1181.2 455C1176.25 455 1172.28 459 1172.28 464C1172.28 469 1176.25 473 1181.2 473C1186.16 473 1190.12 469 1190.12 464C1190.12 459 1186.16 455 1181.2 455V455ZM1181.2 470C1177.93 470 1175.26 467.3 1175.26 464C1175.26 460.7 1177.93 458 1181.2 458C1184.47 458 1187.15 460.7 1187.15 464C1187.15 467.3 1184.47 470 1181.2 470V470Z" fill="white" fill-opacity="0.9"/>
<path fill-rule="evenodd" clip-rule="evenodd" d="M1181.2 458C1177.93 458 1175.25 460.7 1175.25 464C1175.25 467.3 1177.93 470 1181.2 470C1184.47 470 1187.15 467.3 1187.15 464C1187.15 460.7 1184.47 458 1181.2 458V458ZM1181.2 467C1179.52 467 1178.23 465.7 1178.23 464C1178.23 462.3 1179.52 461 1181.2 461C1182.89 461 1184.18 462.3 1184.18 464C1184.18 465.7 1182.89 467 1181.2 467V467Z" fill="white" fill-opacity="0.9"/>
<path fill-rule="evenodd" clip-rule="evenodd" d="M1181.2 467C1182.84 467 1184.18 465.657 1184.18 464C1184.18 462.343 1182.84 461 1181.2 461C1179.56 461 1178.23 462.343 1178.23 464C1178.23 465.657 1179.56 467 1181.2 467Z" fill="white" fill-opacity="0.9"/>
</g>
<mask id="mask6" mask-type="alpha" maskUnits="userSpaceOnUse" x="1199" y="452" width="12" height="12">
<path fill-rule="evenodd" clip-rule="evenodd" d="M1210.94 464V452L1199.05 464H1210.94Z" fill="white"/>
</mask>
<g mask="url(#mask6)">
<path fill-rule="evenodd" clip-rule="evenodd" d="M1207.97 452V464H1210.94V452H1207.97Z" fill="white" fill-opacity="0.3"/>
<path fill-rule="evenodd" clip-rule="evenodd" d="M1204.99 452V464H1207.97V452H1204.99Z" fill="white" fill-opacity="0.3"/>
<path fill-rule="evenodd" clip-rule="evenodd" d="M1202.02 452V464H1204.99V452H1202.02Z" fill="white" fill-opacity="0.9"/>
<path fill-rule="evenodd" clip-rule="evenodd" d="M1199.05 452V464H1202.02V452H1199.05Z" fill="white" fill-opacity="0.9"/>
</g>
<mask id="mask7" mask-type="alpha" maskUnits="userSpaceOnUse" x="1224" y="451" width="9" height="13">
<path fill-rule="evenodd" clip-rule="evenodd" d="M1231.76 452H1230.77V451H1226.8V452H1225.81C1225.21 452 1224.82 452.4 1224.82 453V463C1224.82 463.6 1225.21 464 1225.81 464H1231.76C1232.35 464 1232.75 463.6 1232.75 463V453C1232.75 452.4 1232.35 452 1231.76 452V452Z" fill="white"/>
</mask>
<g mask="url(#mask7)">
<path fill-rule="evenodd" clip-rule="evenodd" d="M1224.82 461V464H1232.75V461H1224.82Z" fill="white" fill-opacity="0.9"/>
<path fill-rule="evenodd" clip-rule="evenodd" d="M1224.82 458V461H1232.75V458H1224.82Z" fill="white" fill-opacity="0.9"/>
<path fill-rule="evenodd" clip-rule="evenodd" d="M1224.82 455V458H1232.75V455H1224.82Z" fill="white" fill-opacity="0.3"/>
<path fill-rule="evenodd" clip-rule="evenodd" d="M1224.82 452V455H1232.75V452H1224.82Z" fill="white" fill-opacity="0.3"/>
<path fill-rule="evenodd" clip-rule="evenodd" d="M1226.8 451V452H1230.77V451H1226.8Z" fill="white" fill-opacity="0.3"/>
</g>
<g opacity="0.9">
<path d="M1247.37 464H1245.91V454.367L1243 455.438V454.125L1247.14 452.57H1247.37V464ZM1259.05 464H1251.6V462.961L1255.54 458.586C1256.12 457.924 1256.52 457.388 1256.74 456.977C1256.96 456.56 1257.08 456.13 1257.08 455.688C1257.08 455.094 1256.9 454.607 1256.54 454.227C1256.18 453.846 1255.7 453.656 1255.1 453.656C1254.38 453.656 1253.82 453.862 1253.42 454.273C1253.02 454.68 1252.83 455.247 1252.83 455.977H1251.38C1251.38 454.93 1251.72 454.083 1252.39 453.438C1253.07 452.792 1253.97 452.469 1255.1 452.469C1256.16 452.469 1256.99 452.747 1257.61 453.305C1258.22 453.857 1258.53 454.594 1258.53 455.516C1258.53 456.635 1257.82 457.969 1256.39 459.516L1253.34 462.82H1259.05V464ZM1260.69 463.242C1260.69 462.992 1260.76 462.784 1260.9 462.617C1261.06 462.451 1261.28 462.367 1261.58 462.367C1261.87 462.367 1262.1 462.451 1262.25 462.617C1262.4 462.784 1262.48 462.992 1262.48 463.242C1262.48 463.482 1262.4 463.682 1262.25 463.844C1262.1 464.005 1261.87 464.086 1261.58 464.086C1261.28 464.086 1261.06 464.005 1260.9 463.844C1260.76 463.682 1260.69 463.482 1260.69 463.242ZM1260.69 456.344C1260.69 456.094 1260.77 455.885 1260.91 455.719C1261.06 455.552 1261.29 455.469 1261.58 455.469C1261.88 455.469 1262.1 455.552 1262.26 455.719C1262.41 455.885 1262.49 456.094 1262.49 456.344C1262.49 456.583 1262.41 456.784 1262.26 456.945C1262.1 457.107 1261.88 457.188 1261.58 457.188C1261.29 457.188 1261.06 457.107 1260.91 456.945C1260.77 456.784 1260.69 456.583 1260.69 456.344ZM1266.56 457.609H1267.65C1268.33 457.599 1268.87 457.419 1269.26 457.07C1269.65 456.721 1269.84 456.25 1269.84 455.656C1269.84 454.323 1269.18 453.656 1267.85 453.656C1267.22 453.656 1266.72 453.836 1266.35 454.195C1265.98 454.549 1265.79 455.021 1265.79 455.609H1264.35C1264.35 454.708 1264.68 453.961 1265.33 453.367C1266 452.768 1266.83 452.469 1267.85 452.469C1268.92 452.469 1269.76 452.753 1270.37 453.32C1270.98 453.888 1271.29 454.677 1271.29 455.688C1271.29 456.182 1271.13 456.661 1270.8 457.125C1270.49 457.589 1270.05 457.935 1269.5 458.164C1270.12 458.362 1270.6 458.69 1270.94 459.148C1271.29 459.607 1271.46 460.167 1271.46 460.828C1271.46 461.849 1271.13 462.659 1270.46 463.258C1269.79 463.857 1268.93 464.156 1267.86 464.156C1266.79 464.156 1265.92 463.867 1265.25 463.289C1264.58 462.711 1264.25 461.948 1264.25 461H1265.7C1265.7 461.599 1265.9 462.078 1266.29 462.438C1266.68 462.797 1267.2 462.977 1267.86 462.977C1268.56 462.977 1269.09 462.794 1269.46 462.43C1269.83 462.065 1270.01 461.542 1270.01 460.859C1270.01 460.198 1269.81 459.69 1269.4 459.336C1269 458.982 1268.41 458.799 1267.65 458.789H1266.56V457.609ZM1280.58 459.148C1280.58 460.841 1280.29 462.099 1279.71 462.922C1279.13 463.745 1278.23 464.156 1277 464.156C1275.78 464.156 1274.89 463.755 1274.3 462.953C1273.72 462.146 1273.42 460.943 1273.4 459.344V457.414C1273.4 455.742 1273.69 454.5 1274.26 453.688C1274.84 452.875 1275.75 452.469 1276.98 452.469C1278.21 452.469 1279.11 452.862 1279.69 453.648C1280.26 454.43 1280.56 455.638 1280.58 457.273V459.148ZM1279.13 457.172C1279.13 455.948 1278.96 455.057 1278.62 454.5C1278.27 453.938 1277.73 453.656 1276.98 453.656C1276.24 453.656 1275.7 453.935 1275.37 454.492C1275.03 455.049 1274.85 455.906 1274.84 457.062V459.375C1274.84 460.604 1275.02 461.513 1275.37 462.102C1275.73 462.685 1276.27 462.977 1277 462.977C1277.71 462.977 1278.24 462.701 1278.58 462.148C1278.93 461.596 1279.12 460.727 1279.13 459.539V457.172Z" fill="white"/>
</g>
</g>
<defs>
<filter id="filter0_dii" x="212" y="269" width="620" height="1046" filterUnits="userSpaceOnUse" color-interpolation-filters="sRGB">
<feFlood flood-opacity="0" result="BackgroundImageFix"/>
<feColorMatrix in="SourceAlpha" type="matrix" values="0 0 0 0 0 0 0 0 0 0 0 0 0 0 0 0 0 0 127 0"/>
<feOffset dx="60" dy="40"/>
<feGaussianBlur stdDeviation="30"/>
<feColorMatrix type="matrix" values="0 0 0 0 0.419608 0 0 0 0 0.498039 0 0 0 0 0.6 0 0 0 0.2 0"/>
<feBlend mode="normal" in2="BackgroundImageFix" result="effect1_dropShadow"/>
<feBlend mode="normal" in="SourceGraphic" in2="effect1_dropShadow" result="shape"/>
<feColorMatrix in="SourceAlpha" type="matrix" values="0 0 0 0 0 0 0 0 0 0 0 0 0 0 0 0 0 0 127 0" result="hardAlpha"/>
<feOffset dx="-30" dy="-2"/>
<feGaussianBlur stdDeviation="15"/>
<feComposite in2="hardAlpha" operator="arithmetic" k2="-1" k3="1"/>
<feColorMatrix type="matrix" values="0 0 0 0 0.25098 0 0 0 0 0.321569 0 0 0 0 0.501961 0 0 0 0.12 0"/>
<feBlend mode="normal" in2="shape" result="effect2_innerShadow"/>
<feColorMatrix in="SourceAlpha" type="matrix" values="0 0 0 0 0 0 0 0 0 0 0 0 0 0 0 0 0 0 127 0" result="hardAlpha"/>
<feOffset dx="30" dy="2"/>
<feGaussianBlur stdDeviation="15"/>
<feComposite in2="hardAlpha" operator="arithmetic" k2="-1" k3="1"/>
<feColorMatrix type="matrix" values="0 0 0 0 0.996078 0 0 0 0 0.960784 0 0 0 0 0.976471 0 0 0 1 0"/>
<feBlend mode="normal" in2="effect2_innerShadow" result="effect3_innerShadow"/>
</filter>
<filter id="filter1_ii" x="219" y="300" width="516" height="904" filterUnits="userSpaceOnUse" color-interpolation-filters="sRGB">
<feFlood flood-opacity="0" result="BackgroundImageFix"/>
<feBlend mode="normal" in="SourceGraphic" in2="BackgroundImageFix" result="shape"/>
<feColorMatrix in="SourceAlpha" type="matrix" values="0 0 0 0 0 0 0 0 0 0 0 0 0 0 0 0 0 0 127 0" result="hardAlpha"/>
<feOffset dx="-30" dy="-2"/>
<feGaussianBlur stdDeviation="15"/>
<feComposite in2="hardAlpha" operator="arithmetic" k2="-1" k3="1"/>
<feColorMatrix type="matrix" values="0 0 0 0 0.25098 0 0 0 0 0.321569 0 0 0 0 0.501961 0 0 0 0.08 0"/>
<feBlend mode="normal" in2="shape" result="effect1_innerShadow"/>
<feColorMatrix in="SourceAlpha" type="matrix" values="0 0 0 0 0 0 0 0 0 0 0 0 0 0 0 0 0 0 127 0" result="hardAlpha"/>
<feOffset dx="30" dy="2"/>
<feGaussianBlur stdDeviation="15"/>
<feComposite in2="hardAlpha" operator="arithmetic" k2="-1" k3="1"/>
<feColorMatrix type="matrix" values="0 0 0 0 1 0 0 0 0 0.977214 0 0 0 0 0.987341 0 0 0 0.3 0"/>
<feBlend mode="normal" in2="effect1_innerShadow" result="effect2_innerShadow"/>
</filter>
<filter id="filter2_dd" x="547" y="584" width="158" height="470" filterUnits="userSpaceOnUse" color-interpolation-filters="sRGB">
<feFlood flood-opacity="0" result="BackgroundImageFix"/>
<feColorMatrix in="SourceAlpha" type="matrix" values="0 0 0 0 0 0 0 0 0 0 0 0 0 0 0 0 0 0 127 0"/>
<feMorphology radius="7" operator="dilate" in="SourceAlpha" result="effect1_dropShadow"/>
<feOffset dx="-6" dy="-6"/>
<feGaussianBlur stdDeviation="10"/>
<feColorMatrix type="matrix" values="0 0 0 0 1 0 0 0 0 1 0 0 0 0 1 0 0 0 1 0"/>
<feBlend mode="normal" in2="BackgroundImageFix" result="effect1_dropShadow"/>
<feColorMatrix in="SourceAlpha" type="matrix" values="0 0 0 0 0 0 0 0 0 0 0 0 0 0 0 0 0 0 127 0"/>
<feMorphology radius="1" operator="dilate" in="SourceAlpha" result="effect2_dropShadow"/>
<feOffset dx="6" dy="6"/>
<feGaussianBlur stdDeviation="7.5"/>
<feColorMatrix type="matrix" values="0 0 0 0 0 0 0 0 0 0 0 0 0 0 0 0 0 0 0.15 0"/>
<feBlend mode="normal" in2="effect1_dropShadow" result="effect2_dropShadow"/>
<feBlend mode="normal" in="SourceGraphic" in2="effect2_dropShadow" result="shape"/>
</filter>
<filter id="filter3_dd" x="547" y="1010" width="158" height="142" filterUnits="userSpaceOnUse" color-interpolation-filters="sRGB">
<feFlood flood-opacity="0" result="BackgroundImageFix"/>
<feColorMatrix in="SourceAlpha" type="matrix" values="0 0 0 0 0 0 0 0 0 0 0 0 0 0 0 0 0 0 127 0"/>
<feMorphology radius="7" operator="dilate" in="SourceAlpha" result="effect1_dropShadow"/>
<feOffset dx="-6" dy="-6"/>
<feGaussianBlur stdDeviation="10"/>
<feColorMatrix type="matrix" values="0 0 0 0 1 0 0 0 0 1 0 0 0 0 1 0 0 0 1 0"/>
<feBlend mode="normal" in2="BackgroundImageFix" result="effect1_dropShadow"/>
<feColorMatrix in="SourceAlpha" type="matrix" values="0 0 0 0 0 0 0 0 0 0 0 0 0 0 0 0 0 0 127 0"/>
<feMorphology radius="1" operator="dilate" in="SourceAlpha" result="effect2_dropShadow"/>
<feOffset dx="6" dy="6"/>
<feGaussianBlur stdDeviation="7.5"/>
<feColorMatrix type="matrix" values="0 0 0 0 0 0 0 0 0 0 0 0 0 0 0 0 0 0 0.15 0"/>
<feBlend mode="normal" in2="effect1_dropShadow" result="effect2_dropShadow"/>
<feBlend mode="normal" in="SourceGraphic" in2="effect2_dropShadow" result="shape"/>
</filter>
<filter id="filter4_ii" x="254" y="335" width="437" height="257" filterUnits="userSpaceOnUse" color-interpolation-filters="sRGB">
<feFlood flood-opacity="0" result="BackgroundImageFix"/>
<feBlend mode="normal" in="SourceGraphic" in2="BackgroundImageFix" result="shape"/>
<feColorMatrix in="SourceAlpha" type="matrix" values="0 0 0 0 0 0 0 0 0 0 0 0 0 0 0 0 0 0 127 0" result="hardAlpha"/>
<feOffset dx="8" dy="8"/>
<feGaussianBlur stdDeviation="6"/>
<feComposite in2="hardAlpha" operator="arithmetic" k2="-1" k3="1"/>
<feColorMatrix type="matrix" values="0 0 0 0 0.960784 0 0 0 0 0.960784 0 0 0 0 0.960784 0 0 0 1 0"/>
<feBlend mode="normal" in2="shape" result="effect1_innerShadow"/>
<feColorMatrix in="SourceAlpha" type="matrix" values="0 0 0 0 0 0 0 0 0 0 0 0 0 0 0 0 0 0 127 0" result="hardAlpha"/>
<feOffset dx="-8" dy="-8"/>
<feGaussianBlur stdDeviation="6"/>
<feComposite in2="hardAlpha" operator="arithmetic" k2="-1" k3="1"/>
<feColorMatrix type="matrix" values="0 0 0 0 0 0 0 0 0 0 0 0 0 0 0 0 0 0 0.15 0"/>
<feBlend mode="normal" in2="effect1_innerShadow" result="effect2_innerShadow"/>
</filter>
<filter id="filter5_dii" x="826" y="412" width="620" height="1046" filterUnits="userSpaceOnUse" color-interpolation-filters="sRGB">
<feFlood flood-opacity="0" result="BackgroundImageFix"/>
<feColorMatrix in="SourceAlpha" type="matrix" values="0 0 0 0 0 0 0 0 0 0 0 0 0 0 0 0 0 0 127 0"/>
<feOffset dx="60" dy="40"/>
<feGaussianBlur stdDeviation="30"/>
<feColorMatrix type="matrix" values="0 0 0 0 0.419608 0 0 0 0 0.498039 0 0 0 0 0.6 0 0 0 0.2 0"/>
<feBlend mode="normal" in2="BackgroundImageFix" result="effect1_dropShadow"/>
<feBlend mode="normal" in="SourceGraphic" in2="effect1_dropShadow" result="shape"/>
<feColorMatrix in="SourceAlpha" type="matrix" values="0 0 0 0 0 0 0 0 0 0 0 0 0 0 0 0 0 0 127 0" result="hardAlpha"/>
<feOffset dx="-30" dy="-2"/>
<feGaussianBlur stdDeviation="15"/>
<feComposite in2="hardAlpha" operator="arithmetic" k2="-1" k3="1"/>
<feColorMatrix type="matrix" values="0 0 0 0 0.25098 0 0 0 0 0.321569 0 0 0 0 0.501961 0 0 0 0.12 0"/>
<feBlend mode="normal" in2="shape" result="effect2_innerShadow"/>
<feColorMatrix in="SourceAlpha" type="matrix" values="0 0 0 0 0 0 0 0 0 0 0 0 0 0 0 0 0 0 127 0" result="hardAlpha"/>
<feOffset dx="30" dy="2"/>
<feGaussianBlur stdDeviation="15"/>
<feComposite in2="hardAlpha" operator="arithmetic" k2="-1" k3="1"/>
<feColorMatrix type="matrix" values="0 0 0 0 0.996078 0 0 0 0 0.960784 0 0 0 0 0.976471 0 0 0 1 0"/>
<feBlend mode="normal" in2="effect2_innerShadow" result="effect3_innerShadow"/>
</filter>
<filter id="filter6_ii" x="833" y="443" width="516" height="904" filterUnits="userSpaceOnUse" color-interpolation-filters="sRGB">
<feFlood flood-opacity="0" result="BackgroundImageFix"/>
<feBlend mode="normal" in="SourceGraphic" in2="BackgroundImageFix" result="shape"/>
<feColorMatrix in="SourceAlpha" type="matrix" values="0 0 0 0 0 0 0 0 0 0 0 0 0 0 0 0 0 0 127 0" result="hardAlpha"/>
<feOffset dx="-30" dy="-2"/>
<feGaussianBlur stdDeviation="15"/>
<feComposite in2="hardAlpha" operator="arithmetic" k2="-1" k3="1"/>
<feColorMatrix type="matrix" values="0 0 0 0 0.25098 0 0 0 0 0.321569 0 0 0 0 0.501961 0 0 0 0.08 0"/>
<feBlend mode="normal" in2="shape" result="effect1_innerShadow"/>
<feColorMatrix in="SourceAlpha" type="matrix" values="0 0 0 0 0 0 0 0 0 0 0 0 0 0 0 0 0 0 127 0" result="hardAlpha"/>
<feOffset dx="30" dy="2"/>
<feGaussianBlur stdDeviation="15"/>
<feComposite in2="hardAlpha" operator="arithmetic" k2="-1" k3="1"/>
<feColorMatrix type="matrix" values="0 0 0 0 1 0 0 0 0 0.977214 0 0 0 0 0.987341 0 0 0 0.3 0"/>
<feBlend mode="normal" in2="effect1_innerShadow" result="effect2_innerShadow"/>
</filter>
<filter id="filter7_dd" x="1161" y="727" width="158" height="470" filterUnits="userSpaceOnUse" color-interpolation-filters="sRGB">
<feFlood flood-opacity="0" result="BackgroundImageFix"/>
<feColorMatrix in="SourceAlpha" type="matrix" values="0 0 0 0 0 0 0 0 0 0 0 0 0 0 0 0 0 0 127 0"/>
<feMorphology radius="7" operator="dilate" in="SourceAlpha" result="effect1_dropShadow"/>
<feOffset dx="-6" dy="-6"/>
<feGaussianBlur stdDeviation="10"/>
<feColorMatrix type="matrix" values="0 0 0 0 1 0 0 0 0 1 0 0 0 0 1 0 0 0 1 0"/>
<feBlend mode="normal" in2="BackgroundImageFix" result="effect1_dropShadow"/>
<feColorMatrix in="SourceAlpha" type="matrix" values="0 0 0 0 0 0 0 0 0 0 0 0 0 0 0 0 0 0 127 0"/>
<feMorphology radius="1" operator="dilate" in="SourceAlpha" result="effect2_dropShadow"/>
<feOffset dx="6" dy="6"/>
<feGaussianBlur stdDeviation="7.5"/>
<feColorMatrix type="matrix" values="0 0 0 0 0 0 0 0 0 0 0 0 0 0 0 0 0 0 0.15 0"/>
<feBlend mode="normal" in2="effect1_dropShadow" result="effect2_dropShadow"/>
<feBlend mode="normal" in="SourceGraphic" in2="effect2_dropShadow" result="shape"/>
</filter>
<filter id="filter8_ii" x="984" y="976" width="98" height="90" filterUnits="userSpaceOnUse" color-interpolation-filters="sRGB">
<feFlood flood-opacity="0" result="BackgroundImageFix"/>
<feBlend mode="normal" in="SourceGraphic" in2="BackgroundImageFix" result="shape"/>
<feColorMatrix in="SourceAlpha" type="matrix" values="0 0 0 0 0 0 0 0 0 0 0 0 0 0 0 0 0 0 127 0" result="hardAlpha"/>
<feOffset dx="4" dy="4"/>
<feGaussianBlur stdDeviation="6"/>
<feComposite in2="hardAlpha" operator="arithmetic" k2="-1" k3="1"/>
<feColorMatrix type="matrix" values="0 0 0 0 1 0 0 0 0 1 0 0 0 0 1 0 0 0 1 0"/>
<feBlend mode="normal" in2="shape" result="effect1_innerShadow"/>
<feColorMatrix in="SourceAlpha" type="matrix" values="0 0 0 0 0 0 0 0 0 0 0 0 0 0 0 0 0 0 127 0" result="hardAlpha"/>
<feOffset dx="-4" dy="-4"/>
<feGaussianBlur stdDeviation="6"/>
<feComposite in2="hardAlpha" operator="arithmetic" k2="-1" k3="1"/>
<feColorMatrix type="matrix" values="0 0 0 0 0 0 0 0 0 0 0 0 0 0 0 0 0 0 0.15 0"/>
<feBlend mode="normal" in2="effect1_innerShadow" result="effect2_innerShadow"/>
</filter>
<filter id="filter9_dd" x="1161" y="1153" width="158" height="142" filterUnits="userSpaceOnUse" color-interpolation-filters="sRGB">
<feFlood flood-opacity="0" result="BackgroundImageFix"/>
<feColorMatrix in="SourceAlpha" type="matrix" values="0 0 0 0 0 0 0 0 0 0 0 0 0 0 0 0 0 0 127 0"/>
<feMorphology radius="7" operator="dilate" in="SourceAlpha" result="effect1_dropShadow"/>
<feOffset dx="-6" dy="-6"/>
<feGaussianBlur stdDeviation="10"/>
<feColorMatrix type="matrix" values="0 0 0 0 1 0 0 0 0 1 0 0 0 0 1 0 0 0 1 0"/>
<feBlend mode="normal" in2="BackgroundImageFix" result="effect1_dropShadow"/>
<feColorMatrix in="SourceAlpha" type="matrix" values="0 0 0 0 0 0 0 0 0 0 0 0 0 0 0 0 0 0 127 0"/>
<feMorphology radius="1" operator="dilate" in="SourceAlpha" result="effect2_dropShadow"/>
<feOffset dx="6" dy="6"/>
<feGaussianBlur stdDeviation="7.5"/>
<feColorMatrix type="matrix" values="0 0 0 0 0 0 0 0 0 0 0 0 0 0 0 0 0 0 0.15 0"/>
<feBlend mode="normal" in2="effect1_dropShadow" result="effect2_dropShadow"/>
<feBlend mode="normal" in="SourceGraphic" in2="effect2_dropShadow" result="shape"/>
</filter>
<filter id="filter10_ii" x="868" y="478" width="437" height="257" filterUnits="userSpaceOnUse" color-interpolation-filters="sRGB">
<feFlood flood-opacity="0" result="BackgroundImageFix"/>
<feBlend mode="normal" in="SourceGraphic" in2="BackgroundImageFix" result="shape"/>
<feColorMatrix in="SourceAlpha" type="matrix" values="0 0 0 0 0 0 0 0 0 0 0 0 0 0 0 0 0 0 127 0" result="hardAlpha"/>
<feOffset dx="8" dy="8"/>
<feGaussianBlur stdDeviation="6"/>
<feComposite in2="hardAlpha" operator="arithmetic" k2="-1" k3="1"/>
<feColorMatrix type="matrix" values="0 0 0 0 0.960784 0 0 0 0 0.960784 0 0 0 0 0.960784 0 0 0 1 0"/>
<feBlend mode="normal" in2="shape" result="effect1_innerShadow"/>
<feColorMatrix in="SourceAlpha" type="matrix" values="0 0 0 0 0 0 0 0 0 0 0 0 0 0 0 0 0 0 127 0" result="hardAlpha"/>
<feOffset dx="-8" dy="-8"/>
<feGaussianBlur stdDeviation="6"/>
<feComposite in2="hardAlpha" operator="arithmetic" k2="-1" k3="1"/>
<feColorMatrix type="matrix" values="0 0 0 0 0 0 0 0 0 0 0 0 0 0 0 0 0 0 0.15 0"/>
<feBlend mode="normal" in2="effect1_innerShadow" result="effect2_innerShadow"/>
</filter>
<linearGradient id="paint0_linear" x1="477" y1="302" x2="477" y2="1202" gradientUnits="userSpaceOnUse">
<stop stop-color="#D3D7DB"/>
<stop offset="1" stop-color="#CED2D6"/>
</linearGradient>
<linearGradient id="paint1_linear" x1="1091" y1="445" x2="1091" y2="1345" gradientUnits="userSpaceOnUse">
<stop stop-color="#D3D7DB"/>
<stop offset="1" stop-color="#CED2D6"/>
</linearGradient>
</defs>
</svg>
